<svg xmlns="http://www.w3.org/2000/svg" width="43.631" height="54.156" viewBox="0 0 43.631 54.156"><defs><style>.a{fill:#2849a0;}.b{fill:#f74a1e;}</style></defs><g transform="translate(-49.75)"><path d="M172.13,437a2.38,2.38,0,1,0,2.38,2.38A2.383,2.383,0,0,0,172.13,437Zm0,3.173a.793.793,0,1,1,.793-.793A.794.794,0,0,1,172.13,440.173Z" transform="translate(-107.307 -390.777)"/><path class="a" d="M184.75,497h1.587v1.587H184.75Z" transform="translate(-120.721 -444.431)"/><path d="M109.751,266.249H116.1v1.587h-6.346Z" transform="translate(-53.655 -238.087)"/><path d="M109.751,228.749H116.1v1.587h-6.346Z" transform="translate(-53.655 -204.554)"/><path d="M109.751,191.25H116.1v1.587h-6.346Z" transform="translate(-53.655 -171.021)"/><path d="M109.751,153.75H116.1v1.587h-6.346Z" transform="translate(-53.655 -137.487)"/><path class="b" d="M266.89,150a7.07,7.07,0,0,0-4.38,1.5l.974,1.252a5.5,5.5,0,0,1,3.405-1.167,5.553,5.553,0,1,1-5.553,5.553,5.5,5.5,0,0,1,1.167-3.406l-1.252-.974a7.07,7.07,0,0,0-1.5,4.38,7.14,7.14,0,1,0,7.14-7.14Z" transform="translate(-187.788 -134.134)"/><path d="M93.381,25.874V20.137H90.967a12.042,12.042,0,0,0-1.448-3.493l1.708-1.708-4.056-4.056-1.708,1.708a12.04,12.04,0,0,0-3.493-1.448V8.726H79.9V3.966A3.971,3.971,0,0,0,75.929,0H53.716A3.971,3.971,0,0,0,49.75,3.966V50.189a3.971,3.971,0,0,0,3.966,3.966h8.726V52.569H53.716a2.383,2.383,0,0,1-2.38-2.38V44.636H78.309v5.553a2.383,2.383,0,0,1-2.38,2.38H67.2v1.587h8.726A3.971,3.971,0,0,0,79.9,50.189v-12.9H81.97V34.871a12.039,12.039,0,0,0,3.493-1.448l1.708,1.708,4.056-4.056-1.708-1.708a12.038,12.038,0,0,0,1.448-3.493h2.414ZM69.092,1.587,68.3,3.173H61.346l-.793-1.587ZM78.309,43.05H51.337V3.966a2.383,2.383,0,0,1,2.38-2.38h5.063L60.366,4.76h8.914l1.586-3.173h5.063a2.383,2.383,0,0,1,2.38,2.38v4.76H76.234v2.414a12.04,12.04,0,0,0-3.493,1.448l-1.708-1.708-4.056,4.056,1.708,1.708a12.04,12.04,0,0,0-1.448,3.493H64.823v5.736h2.414a12.038,12.038,0,0,0,1.448,3.493l-1.708,1.708,4.056,4.056,1.708-1.708a12.034,12.034,0,0,0,3.493,1.448v2.414h2.075V43.05ZM89.544,24.937a10.5,10.5,0,0,1-1.694,4.086l-.375.544,1.508,1.508-1.812,1.812-1.508-1.508-.544.375a10.5,10.5,0,0,1-4.086,1.694l-.65.119V35.7H77.82V33.567l-.65-.119a10.5,10.5,0,0,1-4.086-1.694l-.544-.375-1.508,1.508-1.812-1.812,1.508-1.508-.375-.544a10.5,10.5,0,0,1-1.694-4.086l-.12-.65H66.409V21.724H68.54l.119-.65a10.5,10.5,0,0,1,1.694-4.086l.375-.544-1.508-1.508,1.812-1.812,1.508,1.508.544-.375a10.5,10.5,0,0,1,4.086-1.694l.65-.12V10.313h2.563v2.131l.65.119a10.5,10.5,0,0,1,4.086,1.694l.544.375,1.508-1.508,1.812,1.812-1.508,1.508.375.544a10.5,10.5,0,0,1,1.694,4.086l.119.65h2.131v2.563H89.664Z" transform="translate(0)"/><path class="b" d="M347.591,214.529h1.587v1.587h-1.587Z" transform="translate(-266.337 -191.838)"/><path class="b" d="M332.591,184.53h1.587v1.587h-1.587Z" transform="translate(-252.924 -165.012)"/></g></svg>