<svg xmlns="http://www.w3.org/2000/svg" width="47.659" height="56.396" viewBox="0 0 47.659 56.396"><defs><style>.a,.b{stroke:#fff;stroke-width:0.3px;}.b{fill:#f74a1e;}</style></defs><g transform="translate(-0.523 0.154)"><g transform="translate(0.707 0.004)"><path class="a" d="M37.6,38.081l5.814-14.807a.935.935,0,1,0-1.741-.682L36.346,36.169l-1.958-2.975a3.755,3.755,0,0,0-3.226-1.844H17.545a3.734,3.734,0,0,0-3.2,1.807l-1.984,3.016L7.037,22.595a.935.935,0,1,0-1.741.682l5.807,14.8L1.168,53.18a2.8,2.8,0,0,0,2.348,4.345H45.19a2.8,2.8,0,0,0,2.347-4.346ZM46.015,55.16a.914.914,0,0,1-.824.491H3.516a.935.935,0,0,1-.78-1.448l9.205-13.994.325.824a.935.935,0,1,0,1.741-.682L13.2,38.291l2.735-4.158a1.875,1.875,0,0,1,1.613-.919H31.159a1.9,1.9,0,0,1,1.639.966L35.509,38.3,34.7,40.357a.935.935,0,1,0,1.741.682l.323-.824,9.206,14a.914.914,0,0,1,.04.953Z" transform="translate(-0.707 -1.438)"/><path class="b" d="M24.749,17.6a.935.935,0,1,0,1.87,0V15.352l3.244-1.745a.935.935,0,1,0-.886-1.647l-3.294,1.771-3.294-1.776A.935.935,0,0,0,21.5,13.6l3.248,1.751Z" transform="translate(-2.038 -0.773)"/><path class="a" d="M12,7.482V20.567a.935.935,0,0,0,.491.824l12.154,6.545a.935.935,0,0,0,.886,0l12.153-6.544a.935.935,0,0,0,.491-.824V7.482a.935.935,0,0,0-.455-.8c-.012-.008-.026-.01-.038-.017L25.529.116a.935.935,0,0,0-.886,0L12.49,6.659c-.012.007-.026.01-.038.017A.935.935,0,0,0,12,7.482Zm1.87,1.564,2.362,1.27a.935.935,0,1,0,.886-1.647L14.908,7.482,25.088,2,35.267,7.482,33.057,8.67a.935.935,0,1,0,.886,1.647l2.362-1.27V20.006l-10.283,5.54V22.437a.935.935,0,0,0-1.87,0v3.109L13.87,20.006Z" transform="translate(-1.443 -0.004)"/><path class="a" d="M32.375,38.467A.935.935,0,0,0,31.567,38H18.482a.935.935,0,0,0-.808.467L11.128,49.686a.935.935,0,0,0,.808,1.4H38.111a.935.935,0,0,0,.808-1.4Zm-8.491,1.4h2.279l.467,1.87H23.416Zm-.935,3.739H27.1l.467,1.87H22.481Zm-3.33,5.609H13.563l1.091-1.87h5.432Zm.935-3.736h-4.81l1.091-1.87h4.187Zm-2.627-3.742,1.09-1.87h2.94l-.467,1.87Zm3.62,7.481.467-1.87h6.018l.467,1.87ZM28.09,39.87h2.94l1.09,1.87H28.558Zm.935,3.739h4.187l1.091,1.87H29.493Zm1.4,5.609-.467-1.87h5.432l1.091,1.87Z" transform="translate(-1.378 -2.48)"/><path class="a" d="M2.593,13.065a.935.935,0,0,0-.529,1.215l1.467,3.739a.935.935,0,1,0,1.74-.682L3.805,13.6a.935.935,0,0,0-1.211-.533Z" transform="translate(-0.791 -0.851)"/><path class="a" d="M47.962,13.595l-1.467,3.739a.935.935,0,1,0,1.74.682L49.7,14.278A.935.935,0,1,0,47.96,13.6Z" transform="translate(-3.686 -0.852)"/></g></g></svg>