<svg xmlns="http://www.w3.org/2000/svg" width="71.156" height="71.114" viewBox="0 0 71.156 71.114"><defs><style>.a,.b{stroke:#fff;stroke-width:0.5px;}.b{fill:#f74a1e;}</style></defs><g transform="translate(0.277 0.25)"><g transform="translate(0 0)"><path class="a" d="M22.883,52.767A5.883,5.883,0,1,0,17,46.883a5.883,5.883,0,0,0,5.883,5.883Zm0-9.413a3.53,3.53,0,1,1-3.53,3.53,3.53,3.53,0,0,1,3.53-3.53Z" transform="translate(3.004 7.243)"/><path class="a" d="M31.176,43.354h3.53a1.177,1.177,0,0,0,0-2.354h-3.53a1.177,1.177,0,0,0,0,2.354Z" transform="translate(5.3 7.243)"/><path class="a" d="M38.176,43.354h4.706a1.177,1.177,0,0,0,0-2.354H38.176a1.177,1.177,0,1,0,0,2.354Z" transform="translate(6.537 7.243)"/><path class="a" d="M31.176,51.354h3.53a1.177,1.177,0,1,0,0-2.354h-3.53a1.177,1.177,0,1,0,0,2.354Z" transform="translate(5.3 8.657)"/><path class="a" d="M42.883,49H38.176a1.177,1.177,0,1,0,0,2.354h4.706a1.177,1.177,0,1,0,0-2.354Z" transform="translate(6.537 8.657)"/><path class="a" d="M31.176,47.354H44.12a1.177,1.177,0,0,0,0-2.354H31.176a1.177,1.177,0,1,0,0,2.354Z" transform="translate(5.3 7.951)"/><path class="b" d="M31.59,10A10.6,10.6,0,0,0,21,20.59c0,3.883,4.3,9.772,7.9,14.028a3.518,3.518,0,0,0,5.371,0c3.606-4.252,7.9-10.144,7.9-14.028A10.6,10.6,0,0,0,31.59,10Zm.891,23.1a1.192,1.192,0,0,1-1.781,0C26.1,27.67,23.354,23,23.354,20.59a8.237,8.237,0,1,1,16.473,0c0,2.406-2.746,7.08-7.346,12.506Z" transform="translate(3.71 1.767)"/><path class="a" d="M30.706,15a4.706,4.706,0,1,0,4.706,4.706A4.706,4.706,0,0,0,30.706,15Zm0,7.06a2.354,2.354,0,1,1,2.354-2.354,2.354,2.354,0,0,1-2.354,2.354Z" transform="translate(4.594 2.651)"/><path class="a" d="M67.07,0a3.522,3.522,0,0,0-1.181,6.844V29.417a3.53,3.53,0,0,1-3.525,3.528H56.48V4.706A4.706,4.706,0,0,0,51.773,0H18.827a4.706,4.706,0,0,0-4.706,4.706V32.945H8.237a5.89,5.89,0,0,0-5.883,5.883V63.756a3.53,3.53,0,1,0,2.354,0V38.83a3.53,3.53,0,0,1,3.53-3.53h5.883V65.889A4.706,4.706,0,0,0,18.827,70.6H51.771a4.706,4.706,0,0,0,4.709-4.706V35.3h5.883a5.89,5.89,0,0,0,5.883-5.883V6.844A3.522,3.522,0,0,0,67.07,0ZM3.53,68.247A1.176,1.176,0,1,1,4.706,67.07,1.176,1.176,0,0,1,3.53,68.247ZM44.35,2.357,42.84,3.967a2.354,2.354,0,0,1-1.715.745H29.475a2.36,2.36,0,0,1-1.717-.745L26.25,2.357Zm9.777,63.532a2.354,2.354,0,0,1-2.354,2.354H18.827a2.354,2.354,0,0,1-2.355-2.354V64.062a4.659,4.659,0,0,0,2.354.651H51.771a4.659,4.659,0,0,0,2.354-.651Zm0-5.883a2.354,2.354,0,0,1-2.354,2.354H18.827a2.354,2.354,0,0,1-2.355-2.349V45.89H54.126Zm0-27.063H47.556l2.7-2.7a1.177,1.177,0,1,0-1.664-1.664l-4.706,4.706a1.176,1.176,0,0,0,0,1.664l4.706,4.706A1.176,1.176,0,0,0,50.254,38l-2.7-2.7h6.573v8.237H16.472V35.3h6.573l-2.7,2.7a1.177,1.177,0,0,0,1.664,1.664l4.706-4.706a1.176,1.176,0,0,0,0-1.664l-4.706-4.706a1.176,1.176,0,0,0-1.662,1.659l2.7,2.7H16.472V4.706a2.354,2.354,0,0,1,2.355-2.353h4.2l3.018,3.219a4.727,4.727,0,0,0,3.433,1.489h11.65a4.719,4.719,0,0,0,3.433-1.489l3.018-3.219h4.2a2.354,2.354,0,0,1,2.354,2.354ZM67.07,4.706a1.176,1.176,0,1,1,.832-.344A1.176,1.176,0,0,1,67.07,4.706Z" transform="translate(0 0)"/></g></g></svg>