<svg xmlns="http://www.w3.org/2000/svg" width="65.089" height="65.089" viewBox="0 0 65.089 65.089"><defs><style>.a,.b{stroke:#fff;}.b{fill:#f74a1e;}</style></defs><g transform="translate(0.5 0.5)"><path class="a" d="M380.847,0h-8.97a1.877,1.877,0,0,0,0,3.755h8.97a3.176,3.176,0,0,1,3.172,3.172V15.9a1.877,1.877,0,1,0,3.755,0V6.927A6.935,6.935,0,0,0,380.847,0Z" transform="translate(-323.685)"/><path class="a" d="M1.877,17.775A1.877,1.877,0,0,0,3.755,15.9V6.927A3.176,3.176,0,0,1,6.927,3.755H15.9A1.877,1.877,0,1,0,15.9,0H6.927A6.935,6.935,0,0,0,0,6.927V15.9a1.877,1.877,0,0,0,1.877,1.879Z" transform="translate(0 0)"/><path class="a" d="M15.9,384.019H6.927a3.176,3.176,0,0,1-3.172-3.172v-8.97a1.877,1.877,0,0,0-3.755,0v8.97a6.935,6.935,0,0,0,6.927,6.927H15.9a1.877,1.877,0,1,0,0-3.755Z" transform="translate(0 -323.685)"/><path class="a" d="M385.9,370a1.878,1.878,0,0,0-1.877,1.877v8.97a3.176,3.176,0,0,1-3.172,3.172h-8.97a1.877,1.877,0,0,0,0,3.755h8.97a6.935,6.935,0,0,0,6.927-6.927v-8.97A1.877,1.877,0,0,0,385.9,370Z" transform="translate(-323.685 -323.685)"/><path class="a" d="M328.52,83.755h5.951a1.477,1.477,0,0,1,1.474,1.474v5.951a1.877,1.877,0,1,0,3.755,0V85.229A5.236,5.236,0,0,0,334.476,80h-5.951a1.877,1.877,0,0,0,0,3.755Z" transform="translate(-285.755 -69.986)"/><path class="a" d="M81,85.23v5.951a1.877,1.877,0,1,0,3.755,0V85.23a1.477,1.477,0,0,1,1.474-1.474h5.951a1.877,1.877,0,1,0,0-3.755H86.229A5.236,5.236,0,0,0,81,85.23Z" transform="translate(-70.86 -69.986)"/><path class="a" d="M92.185,334.951H86.233a1.477,1.477,0,0,1-1.474-1.474v-5.951a1.877,1.877,0,0,0-3.755,0v5.951a5.236,5.236,0,0,0,5.23,5.23h5.951a1.877,1.877,0,0,0,0-3.755Z" transform="translate(-70.86 -284.881)"/><path class="a" d="M339.705,333.476v-5.951a1.877,1.877,0,1,0-3.755,0v5.951a1.477,1.477,0,0,1-1.474,1.474h-5.951a1.877,1.877,0,1,0,0,3.755h5.951a5.236,5.236,0,0,0,5.229-5.229Z" transform="translate(-285.755 -284.881)"/><path class="b" d="M1,242.877a1.877,1.877,0,0,0,1.877,1.877H62.961a1.877,1.877,0,1,0,0-3.755H2.877A1.877,1.877,0,0,0,1,242.877Z" transform="translate(-0.875 -210.832)"/></g></svg>