<svg xmlns="http://www.w3.org/2000/svg" width="41" height="35" viewBox="0 0 41 35">
  <g id="wreath" transform="translate(-16.527 -34.771)">
    <path id="Path_1988" data-name="Path 1988" d="M98.061,83.97l-.69,4.02,3.61-1.9h.27l3.61,1.9-.69-4.02.084-.256,2.92-2.847-4.036-.586-.218-.158-1.8-3.657-1.805,3.657-.218.158-4.036.586,2.921,2.847Z" transform="translate(-64.089 -34.025)" fill="#abacac"/>
    <path id="Path_1989" data-name="Path 1989" d="M40.378,71.608a17.084,17.084,0,0,0-.918,2.5,2.914,2.914,0,0,1,.027,1.53,1.443,1.443,0,0,1-.122.359.147.147,0,0,1-.034.046.145.145,0,0,1-.048.033,1.17,1.17,0,0,1-.266.086,16.676,16.676,0,0,0-.19,2.5c0,.113,0,.226,0,.34a3.011,3.011,0,0,1,.566,1.8,1.517,1.517,0,0,1-.035.4.15.15,0,0,1-.018.045.158.158,0,0,1-.047.053,1.169,1.169,0,0,1-.225.14,16.412,16.412,0,0,0,.786,2.888,3.225,3.225,0,0,1,.877,1.812c.01.071.017.129.022.182a16.337,16.337,0,0,0,1.208,1.931A3.023,3.023,0,0,1,43.351,89.9a15.547,15.547,0,0,0,1.393,1.288q.326.266.665.512a2.59,2.59,0,0,1,.653.076,3.078,3.078,0,0,1,1.821,1.4,15.552,15.552,0,0,0,2.986,1.076,7.3,7.3,0,0,1,2.142-.959c-.494-.078-.991-.166-1.484-.274q-.389-.086-.773-.2a3.291,3.291,0,0,1-.736.26l-.07,0-.085-.013-.067-.023a3.305,3.305,0,0,1-1.03-.952,14.424,14.424,0,0,1-3.15-1.948,2.52,2.52,0,0,1-.273.018l-.069-.012-.077-.028-.061-.036a3.15,3.15,0,0,1-.817-1.14,15.007,15.007,0,0,1-4.141-10.306,15.4,15.4,0,0,1,.361-3.3,2.336,2.336,0,0,1,.53-1.858,15.734,15.734,0,0,1,.984-2.223,2.4,2.4,0,0,1-.156-1.026c-.013-.008-.025-.018-.039-.027a.672.672,0,0,0-.325-.084.679.679,0,0,0-.49.21,2.957,2.957,0,0,1-.071.727,1.311,1.311,0,0,1-.109.337.145.145,0,0,1-.026.037.148.148,0,0,1-.052.038,1.384,1.384,0,0,1-.342.108l-.065.014Z" transform="translate(-18.198 -28.86)" fill="#abacac"/>
    <path id="Path_1990" data-name="Path 1990" d="M141.4,205.81l-.033.008c-.711.158-1.406.271-2.086.371a3.237,3.237,0,0,1,2.339,2.615.676.676,0,0,0,1.326-.265A4.466,4.466,0,0,0,141.4,205.81Z" transform="translate(-100.181 -139.577)" fill="#abacac"/>
    <path id="Path_1991" data-name="Path 1991" d="M109.8,93.185a3.078,3.078,0,0,1,1.821-1.4,2.593,2.593,0,0,1,.653-.076q.339-.247.665-.512a15.548,15.548,0,0,0,1.393-1.288,3.023,3.023,0,0,1,1.386-1.655,16.334,16.334,0,0,0,1.209-1.931c0-.052.011-.108.022-.178a3.225,3.225,0,0,1,.877-1.816,16.413,16.413,0,0,0,.786-2.888,1.166,1.166,0,0,1-.225-.14.155.155,0,0,1-.043-.046.159.159,0,0,1-.025-.061,1.6,1.6,0,0,1-.033-.394,3.011,3.011,0,0,1,.566-1.8c0-.113,0-.226,0-.34a16.674,16.674,0,0,0-.19-2.5,1.17,1.17,0,0,1-.266-.086.147.147,0,0,1-.048-.033.149.149,0,0,1-.034-.046,1.443,1.443,0,0,1-.122-.359,2.914,2.914,0,0,1,.027-1.53,17.088,17.088,0,0,0-.918-2.5l-.065-.013a1.384,1.384,0,0,1-.342-.108.148.148,0,0,1-.052-.038.145.145,0,0,1-.026-.037,1.311,1.311,0,0,1-.109-.337,2.959,2.959,0,0,1-.072-.725.67.67,0,0,0-.816-.128c-.014.008-.025.018-.039.026a2.4,2.4,0,0,1-.156,1.026,15.742,15.742,0,0,1,.984,2.223,2.336,2.336,0,0,1,.53,1.858,15.4,15.4,0,0,1,.361,3.3,15.007,15.007,0,0,1-4.14,10.306,3.149,3.149,0,0,1-.817,1.14l-.061.036-.077.028-.069.012c-.067,0-.162-.007-.273-.018a14.425,14.425,0,0,1-3.151,1.947,3.307,3.307,0,0,1-1.03.952l-.067.023-.085.013-.07,0a3.29,3.29,0,0,1-.736-.26q-.384.109-.773.2c-.894.2-1.8.326-2.672.449-3.127.441-6.074.856-6.772,4.346a.676.676,0,1,0,1.326.265c.51-2.551,2.656-2.853,5.627-3.272.9-.127,1.836-.259,2.785-.469A15.512,15.512,0,0,0,109.8,93.185Z" transform="translate(-65.432 -28.861)" fill="#abacac"/>
    <path id="Path_1992" data-name="Path 1992" d="M54.937,59.3l-.014-.008,0,0,0,0Z" transform="translate(-31.333 -20.01)" fill="#abacac"/>
    <path id="Path_1993" data-name="Path 1993" d="M50.734,39.246a2.274,2.274,0,0,0,1.55-1.37c.29-.926-.39-2.525-.662-3.1a5.012,5.012,0,0,0-1.769,2.6A2.273,2.273,0,0,0,50.734,39.246Z" transform="translate(-27.188)" fill="#abacac"/>
    <path id="Path_1994" data-name="Path 1994" d="M32.715,62.118a2.107,2.107,0,0,0,1.921.277,2.107,2.107,0,0,0-.277-1.921,5.177,5.177,0,0,0-2.775-1.085A4.706,4.706,0,0,0,32.715,62.118Z" transform="translate(-12.287 -20.089)" fill="#abacac"/>
    <path id="Path_1995" data-name="Path 1995" d="M48.48,75.594l-.014.007,0,0v0Z" transform="translate(-26.064 -33.314)" fill="#abacac"/>
    <path id="Path_1996" data-name="Path 1996" d="M58.013,60.1a1.864,1.864,0,0,0-.28,1.924,1.864,1.864,0,0,0,1.924-.28,5.435,5.435,0,0,0,1.13-2.813A5.516,5.516,0,0,0,58.013,60.1Z" transform="translate(-33.505 -19.718)" fill="#abacac"/>
    <path id="Path_1997" data-name="Path 1997" d="M23.572,85.546a2.317,2.317,0,0,0,2.08.34,2.315,2.315,0,0,0-.255-2.092c-.611-.779-2.348-1.13-2.988-1.236A5.1,5.1,0,0,0,23.572,85.546Z" transform="translate(-4.8 -38.998)" fill="#abacac"/>
    <path id="Path_1998" data-name="Path 1998" d="M40.337,100.518l-.014.007,0,0v0Z" transform="translate(-19.419 -53.653)" fill="#abacac"/>
    <path id="Path_1999" data-name="Path 1999" d="M52.345,86.049c.776-.608,1.164-2.366,1.286-3.029-.659.107-2.4.454-3.037,1.2a2.02,2.02,0,0,0-.343,2.083A2.019,2.019,0,0,0,52.345,86.049Z" transform="translate(-27.4 -39.374)" fill="#abacac"/>
    <path id="Path_2000" data-name="Path 2000" d="M18.521,117.564a2.5,2.5,0,0,0,2.279-.182,2.5,2.5,0,0,0-.807-2.139c-.849-.666-2.785-.579-3.466-.526C16.776,115.4,17.47,117.037,18.521,117.564Z" transform="translate(0 -65.21)" fill="#abacac"/>
    <path id="Path_2001" data-name="Path 2001" d="M40.017,129.16l.007-.011-.013.011,0,0Z" transform="translate(-19.164 -77.018)" fill="#abacac"/>
    <path id="Path_2002" data-name="Path 2002" d="M49.189,107.626a2.187,2.187,0,0,0,2.141-.811c.664-.846.611-2.814.568-3.523-.648.274-2.408,1.091-2.89,2.051A2.186,2.186,0,0,0,49.189,107.626Z" transform="translate(-26.312 -55.917)" fill="#abacac"/>
    <path id="Path_2003" data-name="Path 2003" d="M25.061,147.9a2.7,2.7,0,0,0-1.2-2.168c-1.021-.582-3.1-.172-3.8-.011.366.675,1.371,2.338,2.587,2.738A2.7,2.7,0,0,0,25.061,147.9Z" transform="translate(-2.882 -90.302)" fill="#abacac"/>
    <path id="Path_2004" data-name="Path 2004" d="M47.48,158.6l.006-.012-.012.014,0,0Z" transform="translate(-25.254 -101.045)" fill="#abacac"/>
    <path id="Path_2005" data-name="Path 2005" d="M55.724,131.935a2.37,2.37,0,0,0,2.167-1.207c.58-1.017.2-3.136.046-3.867-.633.384-2.408,1.543-2.774,2.655a2.366,2.366,0,0,0,.558,2.417Z" transform="translate(-31.43 -75.151)" fill="#abacac"/>
    <path id="Path_2006" data-name="Path 2006" d="M36.333,169.249c-1.153-.555-3.385.054-4.1.275.435.688,1.648,2.426,3,2.769a2.91,2.91,0,0,0,2.568-.788A2.907,2.907,0,0,0,36.333,169.249Z" transform="translate(-12.814 -109.556)" fill="#abacac"/>
    <path id="Path_2007" data-name="Path 2007" d="M62.69,182.249l0-.013-.011.015,0,0Z" transform="translate(-37.668 -120.34)" fill="#abacac"/>
    <path id="Path_2008" data-name="Path 2008" d="M70.512,151.933l.008,0a2.558,2.558,0,0,0,2.251-1.463c.553-1.148-.025-3.427-.242-4.181-.636.448-2.488,1.839-2.8,3.074a2.559,2.559,0,0,0,.784,2.568Z" transform="translate(-43.349 -91.007)" fill="#abacac"/>
    <path id="Path_2009" data-name="Path 2009" d="M88.48,200.585l0,0,0-.014-.008.017Z" transform="translate(-58.718 -135.304)" fill="#abacac"/>
    <path id="Path_2010" data-name="Path 2010" d="M59.062,189.538c-1.308-.342-3.5.75-4.185,1.119.581.615,2.19,2.174,3.657,2.255a3.056,3.056,0,0,0,2.494-1.338A3.051,3.051,0,0,0,59.062,189.538Z" transform="translate(-31.297 -126.245)" fill="#abacac"/>
    <path id="Path_2011" data-name="Path 2011" d="M93.416,165.147l.013,0a2.692,2.692,0,0,0,2.029-1.968c.34-1.3-.729-3.551-1.1-4.272-.556.58-2.2,2.4-2.274,3.744A2.693,2.693,0,0,0,93.416,165.147Z" transform="translate(-61.658 -101.304)" fill="#abacac"/>
    <path id="Path_2012" data-name="Path 2012" d="M201.618,59.183l-.016,0h0v0Z" transform="translate(-151.04 -19.92)" fill="#abacac"/>
    <path id="Path_2013" data-name="Path 2013" d="M194.119,39.246A2.274,2.274,0,0,0,195,37.375a5.011,5.011,0,0,0-1.769-2.6c-.272.58-.952,2.179-.662,3.1A2.271,2.271,0,0,0,194.119,39.246Z" transform="translate(-143.611 0)" fill="#abacac"/>
    <path id="Path_2014" data-name="Path 2014" d="M209.226,62.121a4.7,4.7,0,0,0,1.131-2.729,5.168,5.168,0,0,0-2.775,1.085A2.106,2.106,0,0,0,207.3,62.4,2.11,2.11,0,0,0,209.226,62.121Z" transform="translate(-155.599 -20.092)" fill="#abacac"/>
    <path id="Path_2015" data-name="Path 2015" d="M207.925,76.037l-.007-.013,0,0h0Z" transform="translate(-156.194 -33.665)" fill="#abacac"/>
    <path id="Path_2016" data-name="Path 2016" d="M182.121,61.748a1.864,1.864,0,0,0,1.924.28,1.863,1.863,0,0,0-.28-1.924,5.514,5.514,0,0,0-2.774-1.169,5.434,5.434,0,0,0,1.13,2.813Z" transform="translate(-134.219 -19.719)" fill="#abacac"/>
    <path id="Path_2017" data-name="Path 2017" d="M216.062,100.948l-.008-.014,0,0h0Z" transform="translate(-162.833 -53.993)" fill="#abacac"/>
    <path id="Path_2018" data-name="Path 2018" d="M215.587,83.795a2.315,2.315,0,0,0-.255,2.092,2.314,2.314,0,0,0,2.08-.34,5.106,5.106,0,0,0,1.163-2.987c-.64.106-2.377.457-2.988,1.236Z" transform="translate(-162.13 -38.998)" fill="#abacac"/>
    <path id="Path_2019" data-name="Path 2019" d="M186.708,83.019c.122.663.51,2.421,1.286,3.029a2.018,2.018,0,0,0,2.1.258,2.02,2.02,0,0,0-.343-2.083C189.106,83.472,187.367,83.126,186.708,83.019Z" transform="translate(-138.884 -39.373)" fill="#abacac"/>
    <path id="Path_2020" data-name="Path 2020" d="M216.192,117.384a2.5,2.5,0,0,0,2.279.182c1.051-.527,1.744-2.167,1.994-2.847-.681-.053-2.617-.14-3.466.526a2.5,2.5,0,0,0-.807,2.139Z" transform="translate(-162.938 -65.212)" fill="#abacac"/>
    <path id="Path_2021" data-name="Path 2021" d="M216.261,129.677l0-.016v0h0Z" transform="translate(-162.997 -77.436)" fill="#abacac"/>
    <path id="Path_2022" data-name="Path 2022" d="M192.824,107.626a2.186,2.186,0,0,0,.18-2.283c-.482-.96-2.242-1.777-2.89-2.051-.043.709-.1,2.678.568,3.523A2.186,2.186,0,0,0,192.824,107.626Z" transform="translate(-141.647 -55.917)" fill="#abacac"/>
    <path id="Path_2023" data-name="Path 2023" d="M209.948,145.728a2.7,2.7,0,0,0-1.2,2.168,2.693,2.693,0,0,0,2.415.56c1.215-.4,2.221-2.063,2.587-2.738C213.047,145.555,210.968,145.145,209.948,145.728Z" transform="translate(-156.868 -90.3)" fill="#abacac"/>
    <path id="Path_2024" data-name="Path 2024" d="M208.721,159.16a.118.118,0,0,0,0-.018v.005h0Z" transform="translate(-156.845 -101.494)" fill="#abacac"/>
    <path id="Path_2025" data-name="Path 2025" d="M184.024,126.861c-.155.73-.533,2.85.046,3.867a2.366,2.366,0,0,0,2.167,1.207h0a2.366,2.366,0,0,0,.558-2.417C186.432,128.4,184.656,127.245,184.024,126.861Z" transform="translate(-136.478 -75.151)" fill="#abacac"/>
    <path id="Path_2026" data-name="Path 2026" d="M193.466,182.8l0,.013a.1.1,0,0,0,0-.018v.006Z" transform="translate(-144.399 -120.799)" fill="#abacac"/>
    <path id="Path_2027" data-name="Path 2027" d="M194.975,169.249a2.907,2.907,0,0,0-1.461,2.255,2.91,2.91,0,0,0,2.568.788c1.349-.343,2.562-2.08,3-2.768C198.358,169.3,196.127,168.693,194.975,169.249Z" transform="translate(-144.44 -109.556)" fill="#abacac"/>
    <path id="Path_2028" data-name="Path 2028" d="M170.574,151.934l.008,0a2.559,2.559,0,0,0,.784-2.569c-.314-1.236-2.166-2.627-2.8-3.074-.217.754-.795,3.034-.241,4.181a2.558,2.558,0,0,0,2.25,1.464Z" transform="translate(-123.691 -91.005)" fill="#abacac"/>
    <path id="Path_2029" data-name="Path 2029" d="M169.642,189.54a3.053,3.053,0,0,0-1.966,2.036,3.062,3.062,0,0,0,2.494,1.338c1.467-.081,3.077-1.64,3.657-2.255C173.142,190.29,170.95,189.2,169.642,189.54Z" transform="translate(-123.353 -126.247)" fill="#abacac"/>
    <path id="Path_2030" data-name="Path 2030" d="M167.57,201.17l0,.014a.182.182,0,0,0,0-.018v.005Z" transform="translate(-123.265 -135.788)" fill="#abacac"/>
    <path id="Path_2031" data-name="Path 2031" d="M145.255,163.185a2.692,2.692,0,0,0,2.029,1.968l.013,0a2.693,2.693,0,0,0,1.331-2.494c-.074-1.345-1.717-3.165-2.274-3.744C145.985,159.633,144.916,161.882,145.255,163.185Z" transform="translate(-105.001 -101.307)" fill="#abacac"/>
  </g>
</svg>
