<svg xmlns="http://www.w3.org/2000/svg" width="48.188" height="48.184" viewBox="0 0 48.188 48.184"><defs><style>.a{fill:#f8552c;stroke:#fff;}</style></defs><g transform="translate(0.001 -0.021)"><g transform="translate(-0.001 0.021)"><g transform="translate(0 0)"><path d="M47.577,30.59,45.054,29.6a21.128,21.128,0,0,0-.17-10.954l2.738-1.2a.941.941,0,0,0,.485-1.24l-1.592-3.639a.968.968,0,0,0-1.24-.485l-2.745,1.2A21.149,21.149,0,0,0,34.8,5.866l1.214-3.1a.968.968,0,0,0-.533-1.22L31.786.1a.941.941,0,0,0-1.22.533l-1.214,3.1a21.169,21.169,0,0,0-10.485.144L17.427.585A.944.944,0,0,0,16.188.1L12.548,1.691a.941.941,0,0,0-.485,1.24l1.411,3.226A21.178,21.178,0,0,0,6.11,13.508L2.74,12.189a.967.967,0,0,0-1.22.533l-1.448,3.7a.966.966,0,0,0,.533,1.22L3.825,18.9a21.169,21.169,0,0,0-.147,10.515L.561,30.78a.952.952,0,0,0-.485,1.24l1.592,3.639a.961.961,0,0,0,1.24.485l2.911-1.273a21.148,21.148,0,0,0,7.462,7.748l-1.115,2.848a.963.963,0,0,0,.533,1.22l3.7,1.448a.941.941,0,0,0,1.22-.533l1.035-2.644a21.13,21.13,0,0,0,10.985.131l1.119,2.559a.971.971,0,0,0,1.24.485l3.639-1.592a.969.969,0,0,0,.485-1.24L35.06,42.878a21.119,21.119,0,0,0,7.81-7.843l2.573,1.007a.941.941,0,0,0,1.22-.533l1.448-3.7A.941.941,0,0,0,47.577,30.59Zm-2.324,3.356-2.469-.966a.941.941,0,0,0-1.178.442,19.272,19.272,0,0,1-8.189,8.213.941.941,0,0,0-.425,1.211l1.027,2.347L32.1,46.03l-1.069-2.444a.941.941,0,0,0-1.13-.525,19.278,19.278,0,0,1-11.52-.153.941.941,0,0,0-1.168.552l-1.009,2.578-1.946-.761,1.065-2.722a.941.941,0,0,0-.418-1.165,19.294,19.294,0,0,1-7.831-8.156A.941.941,0,0,0,5.861,32.8L3.015,34.042l-.837-1.915L5.17,30.819A.941.941,0,0,0,5.7,29.7a19.306,19.306,0,0,1,.17-11.079.941.941,0,0,0-.555-1.16L2.169,16.231l.761-1.946,3.251,1.272a.941.941,0,0,0,1.169-.426,19.314,19.314,0,0,1,7.774-7.748.941.941,0,0,0,.414-1.2l-1.374-3.14L16.08,2.2l1.394,3.186a.941.941,0,0,0,1.143.521,19.3,19.3,0,0,1,11.051-.148A.941.941,0,0,0,30.8,5.2l1.176-3,1.946.761-1.176,3A.941.941,0,0,0,33.2,7.142a19.292,19.292,0,0,1,8.125,7.8.941.941,0,0,0,1.2.4l2.648-1.158.837,1.915L43.362,17.26a.941.941,0,0,0-.517,1.155,19.277,19.277,0,0,1,.176,11.49.941.941,0,0,0,.56,1.142L46.014,32Z" transform="translate(0.001 -0.021)"/></g></g><g transform="translate(8.653 16.422)"><path class="a" d="M122.676,174.281H92.886a.941.941,0,0,0-.941.941v13.9a.941.941,0,0,0,.941.941h29.79a.941.941,0,0,0,.941-.941v-13.9A.941.941,0,0,0,122.676,174.281Zm-.941,13.9H93.827v-12.02h27.908Z" transform="translate(-91.945 -174.281)"/></g><g transform="translate(13.56 20.13)"><path d="M148.636,219.045q-.689,0-.723.463c-.053.721-.385,1.209-1.152,1.209q-1.209,0-1.209-1.3v-3.151q0-1.3,1.186-1.3a1.059,1.059,0,0,1,1.147.864c.08.511.2.717.762.717a.652.652,0,0,0,.734-.723,1.881,1.881,0,0,0-.751-1.559,3.053,3.053,0,0,0-1.937-.587,2.776,2.776,0,0,0-1.886.627,2.459,2.459,0,0,0-.723,1.96v3.151a2.469,2.469,0,0,0,.717,1.96,2.754,2.754,0,0,0,1.881.627,2.994,2.994,0,0,0,1.948-.61,1.989,1.989,0,0,0,.751-1.626A.666.666,0,0,0,148.636,219.045Z" transform="translate(-144.084 -213.68)"/></g><g transform="translate(20.98 20.13)"><path d="M228.731,213.68a1.243,1.243,0,0,0-1.152.779l-1.389,2.53-1.389-2.53a1.215,1.215,0,0,0-1.141-.779.692.692,0,0,0-.734.734v7.058a.385.385,0,0,0,.216.337,1.1,1.1,0,0,0,.518.127c.26,0,.734-.109.734-.463v-4.947l1.3,2.439a.565.565,0,0,0,.983,0L228,216.617v4.856c0,.353.458.463.734.463.258,0,.734-.116.734-.463v-7.059A.7.7,0,0,0,228.731,213.68Z" transform="translate(-222.926 -213.68)"/></g><g transform="translate(29.598 20.076)"><path d="M318.842,217.113a21.007,21.007,0,0,1-2.411-1.282.777.777,0,0,1,.062-1.209,1.639,1.639,0,0,1,.943-.232c.562,0,1.041.429,1.558.429.375,0,.588-.466.588-.789,0-.426-.476-.664-.83-.754a4.739,4.739,0,0,0-2.3-.054,2.19,2.19,0,0,0-1.762,2.172,2.141,2.141,0,0,0,.717,1.643A14.528,14.528,0,0,0,317.6,218.2a1.25,1.25,0,0,1,.717,1.045c0,.693-.66.983-1.265.983a2.5,2.5,0,0,1-1.587-.763.51.51,0,0,0-.779.125.88.88,0,0,0-.2.525q0,.52.768.96a3.641,3.641,0,0,0,1.841.44,2.9,2.9,0,0,0,1.948-.629,2.218,2.218,0,0,0,.74-1.788A2.424,2.424,0,0,0,318.842,217.113Z" transform="translate(-314.488 -213.106)"/></g><g transform="translate(22.978 12.45)"><path d="M245.1,132.082a.941.941,0,1,0,.941.941A.941.941,0,0,0,245.1,132.082Z" transform="translate(-244.156 -132.082)"/></g><g transform="translate(26.743 12.45)"><path d="M291.688,132.082H285.1a.941.941,0,1,0,0,1.882h6.588a.941.941,0,0,0,0-1.882Z" transform="translate(-284.158 -132.082)"/></g><g transform="translate(12.625 12.45)"><path d="M141.681,132.082h-6.588a.941.941,0,0,0,0,1.882h6.588a.941.941,0,1,0,0-1.882Z" transform="translate(-134.151 -132.082)"/></g><g transform="translate(22.978 34.296)"><path d="M245.1,364.192a.941.941,0,1,0,.941.942A.942.942,0,0,0,245.1,364.192Z" transform="translate(-244.156 -364.192)"/></g><g transform="translate(26.743 34.296)"><path d="M291.688,364.192H285.1a.941.941,0,1,0,0,1.882h6.588a.941.941,0,0,0,0-1.882Z" transform="translate(-284.158 -364.192)"/></g><g transform="translate(12.625 34.296)"><path d="M141.681,364.192h-6.588a.941.941,0,0,0,0,1.882h6.588a.941.941,0,0,0,0-1.882Z" transform="translate(-134.151 -364.192)"/></g></g></svg>