<svg xmlns="http://www.w3.org/2000/svg" width="48.478" height="47.882" viewBox="0 0 48.478 47.882"><defs><style>.a{fill:#f74a1e;}</style></defs><g transform="translate(-12 -15)"><path class="a" d="M208.04,261.056a5.364,5.364,0,1,0,5.364,5.364A5.364,5.364,0,0,0,208.04,261.056Zm0,9.537a4.172,4.172,0,1,1,4.172-4.172A4.172,4.172,0,0,1,208.04,270.593Z" transform="translate(-171.734 -221.613)"/><path d="M56.9,15H15.576A3.581,3.581,0,0,0,12,18.577v29a3.583,3.583,0,0,0,3.576,3.58h7.385l-4.467,4.482a.6.6,0,0,0,0,.841l6.193,6.223a.595.595,0,0,0,.844,0l8.884-8.913a.6.6,0,0,0,.382-.2l.682-.79a8.127,8.127,0,0,0,1.878-.049l.73.762a.6.6,0,0,0,.669.133l1.23-.538c.87,1.091,1.465,1.906,1.719,2.26a6.311,6.311,0,0,0,7.464,7.385.6.6,0,0,0,.3-1l-3.689-3.71.928-2.667,2.67-.929L53.1,58.084a.6.6,0,0,0,1-.312A6.306,6.306,0,0,0,51.16,51.16H56.9a3.583,3.583,0,0,0,3.576-3.58v-29A3.581,3.581,0,0,0,56.9,15ZM19.757,56.063l4.113-4.126.534.539a.6.6,0,0,0,.847-.839l-.539-.544,3.05-3.06.718,1.641a.59.59,0,0,0,.033.062L20.98,57.291ZM27.8,31.185l-3.053-3.071a5.12,5.12,0,1,1-5.295,5.347l3.073,3.006a.6.6,0,0,0,.613.137l3.291-1.145a.6.6,0,0,0,.368-.367L27.943,31.8a.6.6,0,0,0-.141-.616ZM30.3,35.893q.525.661,1.06,1.313a.6.6,0,0,0-.245.525l.077,1.051a7.358,7.358,0,0,0-1.3,1.362l-1.049-.031a.58.58,0,0,0-.157.017c-.544-.451-1.031-.844-1.446-1.174A6.329,6.329,0,0,0,30.3,35.893ZM21.821,58.136l8.148-8.175.152-.011A7.349,7.349,0,0,0,31.286,51.1l-8.241,8.268Zm6.193.39-.417-.42a.6.6,0,1,0-.845.841l.421.424L25.11,61.44l-1.223-1.229,4.48-4.495a.594.594,0,0,0,.048.782l.809.815Zm4.1-4.114-.418-.421a.6.6,0,0,0-.845.841l.422.424-1.209,1.213-.8-.81a.594.594,0,0,0-.787-.048l3.035-3.045a.6.6,0,0,0,.326.306l1.312.507Zm8.2-4.148a.6.6,0,0,0-.24.523l.07.949-1.489.651L38,51.7a.6.6,0,0,0-.538-.174,6.957,6.957,0,0,1-2.153.056.6.6,0,0,0-.528.2l-.612.71-1.512-.584.028-.948a.6.6,0,0,0-.265-.513,6.174,6.174,0,0,1-1.544-1.47.593.593,0,0,0-.523-.24l-.949.07-.652-1.489.687-.659a.6.6,0,0,0,.174-.537,6.961,6.961,0,0,1-.056-2.153.6.6,0,0,0-.2-.528l-.71-.612.583-1.512.948.028a.593.593,0,0,0,.513-.265,6.175,6.175,0,0,1,1.47-1.544.6.6,0,0,0,.24-.523l-.07-.949,1.489-.651.659.687a.6.6,0,0,0,.537.174,6.96,6.96,0,0,1,2.153-.056.6.6,0,0,0,.528-.2l.612-.71,1.512.583-.028.948a.6.6,0,0,0,.265.513,6.175,6.175,0,0,1,1.544,1.47.594.594,0,0,0,.523.24l.949-.07.651,1.489-.687.659a.6.6,0,0,0-.174.537,6.96,6.96,0,0,1,.056,2.153.6.6,0,0,0,.2.528l.71.612-.583,1.512-.948-.028a.593.593,0,0,0-.513.265,6.172,6.172,0,0,1-1.47,1.544Zm1.336-15.087-.538-.543,3.259-3.27.623.628a.6.6,0,1,0,.846-.84l-.628-.633,2.152-2.16,1.223,1.229L40.97,37.235a.6.6,0,0,0-.326-.305l-1.312-.507.942-.945.533.538a.6.6,0,1,0,.847-.839Zm5.6,3.2.422.425-1.208,1.213-.806-.811a.594.594,0,0,0-.779-.055l3.976-3.99a.6.6,0,0,0,.057.77l.81.816-1.209,1.213-.419-.421a.6.6,0,0,0-.845.841ZM44.816,40.04l.81.815-.91.914L44,40.128a.624.624,0,0,0-.033-.062l.8-.8A.594.594,0,0,0,44.816,40.04Zm4.17-5.011,2.511-2.52,1.223,1.229L50.569,35.9l-.806-.811a.594.594,0,0,0-.777-.057Zm-6.477,4.81-.152.011A7.354,7.354,0,0,0,41.192,38.7l8.241-8.268,1.224,1.23Zm-.356,14.125c-.271-.363-.622-.823-1.046-1.359a.6.6,0,0,0,.26-.536l-.077-1.051a7.348,7.348,0,0,0,1.3-1.362l1.049.031a.583.583,0,0,0,.219-.036c.452.356.934.729,1.478,1.149a6.27,6.27,0,0,0-2.7,2.285,6.39,6.39,0,0,0-.485.88Zm10.771,1.578a5.126,5.126,0,0,1,.1.8l-3.072-3.006a.6.6,0,0,0-.613-.137l-3.291,1.145a.6.6,0,0,0-.367.368L44.536,58a.6.6,0,0,0,.14.616l3.053,3.071a5.122,5.122,0,1,1,5.2-6.144Zm6.362-7.961A2.39,2.39,0,0,1,56.9,49.968H46.207c-.65-.5-1.212-.935-1.734-1.347l.622-1.612a.6.6,0,0,0-.167-.666l-.79-.682a8.142,8.142,0,0,0-.015-1.609l9.86-9.893a.6.6,0,0,0,0-.841L47.791,27.1a.6.6,0,0,0-.844,0l-8.884,8.913a.6.6,0,0,0-.381.2L37,37a8.141,8.141,0,0,0-1.878.048l-.73-.761a.6.6,0,0,0-.669-.133l-1.241.543c-.587-.709-1.168-1.431-1.734-2.156a6.313,6.313,0,0,0-7.439-7.493.6.6,0,0,0-.3,1l3.689,3.71-.928,2.667-2.67.929-3.721-3.641a.6.6,0,0,0-1,.312,6.312,6.312,0,0,0,7.46,7.392l.052-.012c.524.409,1.258.993,2.136,1.722l-.641,1.662a.6.6,0,0,0,.167.666l.79.682a8.14,8.14,0,0,0,.015,1.609l-4.2,4.219H15.576a2.39,2.39,0,0,1-2.384-2.388V22.749H59.286Zm0-26.024H13.192V18.577a2.387,2.387,0,0,1,2.384-2.385H56.9a2.388,2.388,0,0,1,2.384,2.385Z"/><path d="M34.068,38.061a1.629,1.629,0,1,0,1.63,1.63A1.629,1.629,0,0,0,34.068,38.061Zm0,2.067a.438.438,0,1,1,.437-.438A.438.438,0,0,1,34.068,40.128Z" transform="translate(-18.409 -20.77)"/><path d="M70.568,38.061a1.629,1.629,0,1,0,1.63,1.63A1.629,1.629,0,0,0,70.568,38.061Zm0,2.067a.438.438,0,1,1,.438-.438A.438.438,0,0,1,70.568,40.128Z" transform="translate(-51.283 -20.77)"/><path d="M107.068,38.061a1.629,1.629,0,1,0,1.63,1.63A1.629,1.629,0,0,0,107.068,38.061Zm0,2.067a.438.438,0,1,1,.438-.438A.438.438,0,0,1,107.068,40.128Z" transform="translate(-84.157 -20.77)"/></g></svg>