<svg xmlns="http://www.w3.org/2000/svg" xmlns:xlink="http://www.w3.org/1999/xlink" width="134.385" height="134.079" viewBox="0 0 134.385 134.079">
  <defs>
    <radialGradient id="radial-gradient" cx="0.5" cy="0.5" r="0.5" gradientUnits="objectBoundingBox">
      <stop offset="0.183" stop-color="#999"/>
      <stop offset="0.282" stop-color="#acacac"/>
      <stop offset="0.49" stop-color="#d0d0d0"/>
      <stop offset="0.685" stop-color="#e9e9e9"/>
      <stop offset="0.861" stop-color="#f9f9f9"/>
      <stop offset="1" stop-color="#fff"/>
    </radialGradient>
  </defs>
  <g id="Group_77319" data-name="Group 77319" transform="translate(-50.033 -60.466)">
    <g id="Group_77318" data-name="Group 77318" transform="translate(50.033 60.466)">
      <g id="Group_77288" data-name="Group 77288" transform="translate(0)">
        <path id="Path_129864" data-name="Path 129864" d="M124.546,174.487a67.039,67.039,0,1,1,67.039-67.039A67.116,67.116,0,0,1,124.546,174.487Zm0-132.613a65.574,65.574,0,1,0,65.574,65.574A65.648,65.648,0,0,0,124.546,41.874Z" transform="translate(-57.506 -40.408)" fill="#ffc27c"/>
      </g>
      <g id="Group_77289" data-name="Group 77289" transform="translate(0.006 1.762)">
        <ellipse id="Ellipse_1323" data-name="Ellipse 1323" cx="67.19" cy="55.229" rx="67.19" ry="55.229" transform="translate(0 18.023)" opacity="0.75" fill="url(#radial-gradient)" style="mix-blend-mode: multiply;isolation: isolate"/>
        <circle id="Ellipse_1324" data-name="Ellipse 1324" cx="50.967" cy="50.967" r="50.967" transform="translate(15.892 13.273)" fill="#fff"/>
        <circle id="Ellipse_1325" data-name="Ellipse 1325" cx="49.35" cy="49.35" r="49.35" transform="matrix(0.927, -0.374, 0.374, 0.927, 2.62, 36.961)" fill="#ffdcb4"/>
        <g id="prototyping" transform="translate(40.408 38.021)">
          <path id="Path_7172" data-name="Path 7172" d="M51.321,0h-16.8a4.671,4.671,0,0,0-4.666,4.666V9.331H11.2V7.465a5.6,5.6,0,0,0-11.2,0V48.522a5.6,5.6,0,0,0,5.6,5.6H46.655a5.6,5.6,0,0,0,5.6-5.6v-1.96a4.674,4.674,0,0,0,3.732-4.572V4.666A4.671,4.671,0,0,0,51.321,0Zm-16.8,1.866h16.8a2.8,2.8,0,0,1,2.8,2.8v2.8H31.726v-2.8a2.8,2.8,0,0,1,2.8-2.8Zm19.6,32.659H31.725V9.331H54.12ZM29.859,20.068l-10.205-4.2H29.859Zm-1.516,1.394L15.98,26.555a.909.909,0,0,1-.117-.428V16.8a.908.908,0,0,1,.117-.428Zm1.516,1.394v4.2H19.654ZM5.6,3.732A3.732,3.732,0,0,1,9.331,7.465V40.627a5.565,5.565,0,0,0-7.465,0V7.465A3.732,3.732,0,0,1,5.6,3.732ZM46.655,52.254H5.6a3.732,3.732,0,0,1-3.732-3.732V44.789a3.732,3.732,0,1,1,7.465,0,.933.933,0,0,0,1.866,0V11.2H29.859V14H16.8a2.765,2.765,0,0,0-1.413.4c-.012,0-.022.013-.035.019-.07.043-.138.087-.2.135a.86.86,0,0,0-.087.071A2.784,2.784,0,0,0,14,16.8v9.331a2.787,2.787,0,0,0,1.084,2.2.942.942,0,0,0,.21.157,2.78,2.78,0,0,0,1.505.446H29.859v2.8h-5.6a.933.933,0,1,0,0,1.866h5.6v2.8H14.93a.933.933,0,1,0,0,1.866H29.859V41.99a4.671,4.671,0,0,0,4.666,4.666H50.388v1.866a3.733,3.733,0,0,1-3.732,3.732Zm4.665-7.465h-16.8a2.8,2.8,0,0,1-2.8-2.8v-5.6H54.12v5.6a2.8,2.8,0,0,1-2.8,2.8Zm0,0" transform="translate(0 0)" fill="#242a39"/>
          <path id="Path_7173" data-name="Path 7173" d="M.933,1.866H4.666A.933.933,0,0,0,4.666,0H.933a.933.933,0,0,0,0,1.866Zm0,0" transform="translate(40.124 3.732)" fill="#242a39"/>
          <path id="Path_7174" data-name="Path 7174" d="M3.732,0H1.866A1.866,1.866,0,0,0,0,1.866V3.732A1.867,1.867,0,0,0,1.866,5.6H3.732A1.867,1.867,0,0,0,5.6,3.732V1.866A1.866,1.866,0,0,0,3.732,0ZM1.866,3.732V1.866H3.732V3.732Zm0,0" transform="translate(40.124 37.324)" fill="#242a39"/>
          <path id="Path_7175" data-name="Path 7175" d="M.629,11.651c.013.013.028.023.042.035a1.846,1.846,0,0,0,1.2.445H16.8a1.855,1.855,0,0,0,1.2-.447c.013-.011.026-.021.039-.033a1.855,1.855,0,0,0,.629-1.387v-8.4A1.855,1.855,0,0,0,17.943.4L17.919.384A1.854,1.854,0,0,0,16.8,0H1.866A1.849,1.849,0,0,0,.747.387L.727.4A1.856,1.856,0,0,0,0,1.866v8.4A1.855,1.855,0,0,0,.629,11.651ZM16.8,9.532,11.122,6.065,16.8,2.6Zm-2.38.733H4.246L9.331,7.159ZM9.331,4.972,4.246,1.866H14.416ZM7.54,6.065,1.866,9.531V2.6Zm0,0" transform="translate(33.592 11.197)" fill="#242a39"/>
          <path id="Path_7176" data-name="Path 7176" d="M.933,1.866H4.665A.933.933,0,1,0,4.665,0H.933a.933.933,0,0,0,0,1.866Zm0,0" transform="translate(34.525 25.194)" fill="#242a39"/>
          <path id="Path_7177" data-name="Path 7177" d="M9.331,0H.933a.933.933,0,1,0,0,1.866h8.4A.933.933,0,1,0,9.331,0Zm0,0" transform="translate(41.99 25.194)" fill="#242a39"/>
          <path id="Path_7178" data-name="Path 7178" d="M16.8,0H.933a.933.933,0,0,0,0,1.866H16.8A.933.933,0,1,0,16.8,0Zm0,0" transform="translate(34.525 28.926)" fill="#242a39"/>
          <path id="Path_7179" data-name="Path 7179" d="M.933,1.866H5.6A.933.933,0,1,0,5.6,0H.933a.933.933,0,1,0,0,1.866Zm0,0" transform="translate(13.997 31.726)" fill="#242a39"/>
        </g>
      </g>
    </g>
  </g>
</svg>
