<svg xmlns="http://www.w3.org/2000/svg" width="22" height="16.477" viewBox="0 0 22 16.477">
  <g id="email" transform="translate(0 -64.266)">
    <path id="Path_6445" data-name="Path 6445" d="M12.839,177.554a3.292,3.292,0,0,1-3.677,0L.146,171.507c-.05-.034-.1-.069-.146-.1v9.91a2.031,2.031,0,0,0,2.025,2.038H19.975A2.031,2.031,0,0,0,22,181.312V171.4c-.048.036-.1.071-.147.1Z" transform="translate(0 -102.607)"/>
    <path id="Path_6446" data-name="Path 6446" d="M.862,67.842l9.015,5.913a2.048,2.048,0,0,0,2.247,0l9.015-5.913A1.891,1.891,0,0,0,22,66.258a2.011,2.011,0,0,0-2.025-1.992H2.025A2.011,2.011,0,0,0,0,66.259a1.891,1.891,0,0,0,.862,1.583Z"/>
  </g>
</svg>
