<svg xmlns="http://www.w3.org/2000/svg" width="16.022" height="12" viewBox="0 0 16.022 12">
  <g id="email" transform="translate(0 -64.266)">
    <path id="Path_6445" data-name="Path 6445" d="M9.35,175.883a2.4,2.4,0,0,1-2.678,0l-6.566-4.4c-.036-.024-.072-.05-.107-.076v7.217A1.479,1.479,0,0,0,1.475,180.1H14.547a1.479,1.479,0,0,0,1.475-1.484V171.4c-.035.026-.07.052-.107.076Z" transform="translate(0 -103.838)" fill="#fff"/>
    <path id="Path_6446" data-name="Path 6446" d="M.627,66.87l6.566,4.306a1.491,1.491,0,0,0,1.636,0l6.566-4.306a1.377,1.377,0,0,0,.627-1.154,1.464,1.464,0,0,0-1.474-1.451H1.474A1.465,1.465,0,0,0,0,65.717,1.377,1.377,0,0,0,.627,66.87Z" fill="#fff"/>
  </g>
</svg>
