<svg xmlns="http://www.w3.org/2000/svg" width="62.582" height="55.237" viewBox="0 0 62.582 55.237"><defs><style>.a{fill:#f74a1e;}.a,.b,.c{stroke:#fff;stroke-width:0.7px;}.c{fill:#2849a0;}</style></defs><g transform="translate(0.35 -29.459)"><g transform="translate(0 29.809)"><path class="a" d="M59.706,126.511a1.205,1.205,0,0,0-1.7.042l-3.427,3.6a1.206,1.206,0,0,0,0,1.662l3.427,3.6a1.206,1.206,0,1,0,1.747-1.662l-2.636-2.77,2.636-2.77A1.205,1.205,0,0,0,59.706,126.511Z" transform="translate(-47.703 -114.561)"/><path class="a" d="M195.377,135.46a1.217,1.217,0,0,0,1.7-.042l3.427-3.6a1.206,1.206,0,0,0,0-1.662l-3.427-3.6a1.206,1.206,0,1,0-1.747,1.662l2.636,2.77-2.636,2.77A1.206,1.206,0,0,0,195.377,135.46Z" transform="translate(-171.494 -114.561)"/><path class="a" d="M121.595,135.611a1.217,1.217,0,0,0,1.659-.394l4.436-7.2a1.206,1.206,0,1,0-2.053-1.265l-4.436,7.2A1.206,1.206,0,0,0,121.595,135.611Z" transform="translate(-106.431 -114.559)"/><path class="b" d="M76.07,231.017H55.448a1.206,1.206,0,0,0,0,2.411H76.07a1.206,1.206,0,1,0,0-2.411Z" transform="translate(-47.703 -206.76)"/><path class="b" d="M55.448,281.762a1.206,1.206,0,0,0,0,2.411H70.2a1.206,1.206,0,0,0,0-2.411Z" transform="translate(-47.703 -251.387)"/><path class="b" d="M230.243,282.968a1.206,1.206,0,0,0,1.206,1.206h10.3a1.206,1.206,0,0,0,0-2.411h-10.3A1.206,1.206,0,0,0,230.243,282.968Z" transform="translate(-202.486 -251.387)"/><path class="c" d="M166.164,83.592a1.205,1.205,0,1,0,.534-1.518A1.214,1.214,0,0,0,166.164,83.592Z" transform="translate(-146.052 -75.646)"/><path class="b" d="M270.33,232.932a1.205,1.205,0,1,0,.333-1.671,1.219,1.219,0,0,0-.333,1.671Z" transform="translate(-237.565 -206.8)"/><path class="b" d="M60.3,44.142l-1.019-.589a.609.609,0,0,1,0-.978l1.019-.589a2.861,2.861,0,0,0,1.047-3.9l-1.9-3.293a2.888,2.888,0,0,0-3.9-1.046l-1.02.589a.593.593,0,0,1-.846-.488V32.667a2.861,2.861,0,0,0-2.858-2.858h-3.8a2.861,2.861,0,0,0-2.858,2.858v1.178a.593.593,0,0,1-.847.488l-1.02-.588a2.888,2.888,0,0,0-3.9,1.045l-.75,1.3H26.622a1.206,1.206,0,1,0,0,2.411h9.662a2.887,2.887,0,0,0,1.245,3.487l1.019.588a.609.609,0,0,1,0,.978l-1.022.589a2.862,2.862,0,0,0-1.044,3.9l1.9,3.291a2.888,2.888,0,0,0,3.9,1.047l1.02-.589a.594.594,0,0,1,.846.488v1.178a2.883,2.883,0,0,0,2.816,2.858l.847.052v9.965H2.411v-26.7A1.04,1.04,0,0,1,3.419,38.5H15.8a1.206,1.206,0,1,0,0-2.411H3.419A3.445,3.445,0,0,0,0,39.631V71.586H0a3.4,3.4,0,0,0,3.419,3.3H19.545l-.588,5.043a2.26,2.26,0,0,1-2.247,2.006h0a.426.426,0,0,0-.05,0l-1.378,0a1.206,1.206,0,0,0,0,2.411h20.9a1.206,1.206,0,1,0,0-2.411l-1.378,0h-.052A2.261,2.261,0,0,1,32.5,79.925v0l-.587-5.04H46.807a3.4,3.4,0,0,0,3.42-3.3V56.319h.586a2.861,2.861,0,0,0,2.858-2.858V52.283a.593.593,0,0,1,.846-.489l1.021.59a2.888,2.888,0,0,0,3.9-1.046l1.9-3.292a2.861,2.861,0,0,0-1.046-3.9Zm-12.48,24.6v2.839a.989.989,0,0,1-1.008.885H3.419a.989.989,0,0,1-1.008-.885V68.747ZM30.105,80.2a4.668,4.668,0,0,0,.554,1.735H20.8a4.656,4.656,0,0,0,.553-1.733l.62-5.319h7.514ZM59.254,46.84l-1.9,3.292a.449.449,0,0,1-.609.164l-1.021-.59a3.02,3.02,0,0,0-4.463,2.577v1.178a.447.447,0,0,1-.447.447h-3.8a.45.45,0,0,1-.446-.447V52.284A3.021,3.021,0,0,0,42.1,49.707l-1.02.59a.451.451,0,0,1-.609-.164l-1.9-3.292a.447.447,0,0,1,.163-.61l1.021-.589a3.035,3.035,0,0,0,0-5.154L38.735,39.9a.455.455,0,0,1-.164-.61L40.472,36a.449.449,0,0,1,.61-.163l1.02.588a3.02,3.02,0,0,0,4.463-2.577V32.666a.447.447,0,0,1,.447-.447h3.8a.447.447,0,0,1,.447.447v1.178a3.02,3.02,0,0,0,4.463,2.577l1.021-.589a.448.448,0,0,1,.61.163l1.9,3.293a.447.447,0,0,1-.164.61l-1.018.588a3.036,3.036,0,0,0,0,5.154l1.019.589a.448.448,0,0,1,.164.61Z" transform="translate(0 -29.809)"/><path class="b" d="M369.085,98.108a5.021,5.021,0,1,0,5.022,5.021A5.027,5.027,0,0,0,369.085,98.108Zm0,7.631a2.61,2.61,0,1,1,0-5.22,2.644,2.644,0,0,1,2.611,2.61A2.614,2.614,0,0,1,369.085,105.739Z" transform="translate(-320.174 -89.874)"/></g></g></svg>