<svg id="expertise_logo" xmlns="http://www.w3.org/2000/svg" width="175.279" height="22" viewBox="0 0 175.279 22">
  <path id="Path_1951" data-name="Path 1951" d="M38.086,10.279,27.842,0l-4.4,4.4,1.479,1.479,2.92-2.922,7.322,7.322L27.842,17.6l-2.92-2.922L23.443,13.2l-2.922-2.922,2.922-2.922L21.963,5.879,19.043,8.8l-2.922-2.92L14.678,4.4,10.279,0,0,10.279,10.279,20.521l4.4-4.363L13.2,14.678,10.279,17.6,2.957,10.279l7.322-7.322L17.6,10.279,14.678,13.2l1.443,1.478,2.922-2.92,4.4,4.4,4.4,4.363" fill="#00cea6"/>
  <path id="Path_1952" data-name="Path 1952" d="M45.064,2.957l2.92,2.922,4.4,4.4-2.92,2.92,1.478,1.479,4.4-4.4-4.4-4.4L49.463,4.4,45.064,0,40.7,4.4l1.443,1.479" transform="translate(-26.021)" fill="#024a6c"/>
  <path id="Path_1953" data-name="Path 1953" d="M37.562,25.1l-2.92,2.922L31.72,25.1l-1.443-1.479-2.92-2.92,2.92-2.92L28.8,16.3l-4.4,4.4,4.4,4.4,1.478,1.479,4.365,4.363,4.4-4.363" transform="translate(-15.599 -10.422)" fill="#024a6c"/>
  <path id="Path_1954" data-name="Path 1954" d="M118.1,9.1h8.871v2.308h-6.346v3.463h5.805v2.236h-5.805v3.787h6.346V23.2H118.1" transform="translate(-75.508 -5.819)" fill="#024a6c"/>
  <path id="Path_1955" data-name="Path 1955" d="M150.479,23.866,146.836,18.6h2.85l2.236,3.5h.037l2.236-3.5h2.885l-3.643,5.265,3.752,5.446h-2.85l-2.307-3.643h-.037l-2.307,3.643H146.8" transform="translate(-93.856 -11.893)" fill="#024a6c"/>
  <path id="Path_1956" data-name="Path 1956" d="M188.418,23.463c0-2.127-1.047-3.426-2.742-3.426a2.5,2.5,0,0,0-2.561,2.561v1.73a2.5,2.5,0,0,0,2.525,2.6C187.371,26.889,188.418,25.555,188.418,23.463ZM180.7,18.09h2.381v.865h.035a4,4,0,0,1,2.922-1.154c2.814,0,4.8,2.344,4.8,5.662s-1.984,5.662-4.8,5.662a3.929,3.929,0,0,1-2.885-1.154h-.037v5.41H180.7" transform="translate(-115.529 -11.381)" fill="#024a6c"/>
  <path id="Path_1957" data-name="Path 1957" d="M220.139,22.381a2.414,2.414,0,0,0-2.525-2.488,2.581,2.581,0,0,0-2.561,2.488ZM212.6,23.463c0-3.354,2.055-5.662,4.976-5.662,2.959,0,4.942,2.236,4.942,5.518v.828h-7.5c.072,1.7,1.045,2.85,2.6,2.85a3.139,3.139,0,0,0,2.813-1.768l1.767,1.3a4.984,4.984,0,0,1-4.58,2.561C214.657,29.09,212.6,26.817,212.6,23.463Z" transform="translate(-135.926 -11.381)" fill="#024a6c"/>
  <path id="Path_1958" data-name="Path 1958" d="M244.9,18.282h2.273v.937h.037a2.567,2.567,0,0,1,2.271-1.117,4.9,4.9,0,0,1,1.3.18l-.432,2.379a4.733,4.733,0,0,0-1.154-.18c-1.227,0-1.876.83-1.876,2.561v5.986H244.9" transform="translate(-156.574 -11.573)" fill="#024a6c"/>
  <path id="Path_1959" data-name="Path 1959" d="M269.484,16.16v5.3c0,.685.252.9,1.119.9h1.082v2.308h-1.3c-2.416,0-3.318-.865-3.318-3.1V16.16H265.3V14h1.767V11.4h2.416V14h2.633V16.16" transform="translate(-169.619 -7.288)" fill="#024a6c"/>
  <path id="Path_1960" data-name="Path 1960" d="M290.674,11.057h2.416V21.768h-2.416ZM290.6,6.8h2.56V9.254H290.6Z" transform="translate(-185.795 -4.348)" fill="#024a6c"/>
  <path id="Path_1961" data-name="Path 1961" d="M303.6,25.3l2.2-.576c.361,1.623,1.119,2.309,2.7,2.309,1.154,0,1.875-.434,1.875-1.082,0-.9-.937-1.3-2.56-1.768-2.055-.576-3.678-1.262-3.678-3.211,0-1.8,1.658-3.173,3.93-3.173a4.373,4.373,0,0,1,4.4,3.137l-2.236.613a2.172,2.172,0,0,0-2.164-1.731c-1.01,0-1.623.433-1.623,1.082,0,.613.758.9,2.127,1.3,2.164.613,4.113,1.407,4.113,3.642,0,1.948-1.66,3.246-4.184,3.246C305.766,29.088,304,27.719,303.6,25.3Z" transform="translate(-194.106 -11.381)" fill="#024a6c"/>
  <path id="Path_1962" data-name="Path 1962" d="M340.439,22.381a2.414,2.414,0,0,0-2.525-2.488,2.581,2.581,0,0,0-2.561,2.488ZM332.9,23.463c0-3.354,2.056-5.662,4.976-5.662,2.958,0,4.942,2.236,4.942,5.518v.828h-7.5c.072,1.7,1.045,2.85,2.6,2.85a3.139,3.139,0,0,0,2.813-1.768l1.767,1.3a4.985,4.985,0,0,1-4.58,2.561C334.958,29.09,332.9,26.817,332.9,23.463Z" transform="translate(-212.839 -11.381)" fill="#024a6c"/>
  <path id="Path_1963" data-name="Path 1963" d="M366.9,43.248h2.922V40.4H366.9Z" transform="translate(-234.574 -25.828)" fill="#024a6c"/>
  <path id="Path_1964" data-name="Path 1964" d="M380,23.463c0-3.39,2.092-5.662,5.121-5.662a4.554,4.554,0,0,1,4.76,3.931l-2.307.432a2.342,2.342,0,0,0-2.453-2.127c-1.623,0-2.668,1.3-2.668,3.426s1.045,3.426,2.668,3.426a2.319,2.319,0,0,0,2.453-2.127l2.307.432a4.579,4.579,0,0,1-4.76,3.931C382.092,29.09,380,26.817,380,23.463Z" transform="translate(-242.951 -11.381)" fill="#024a6c"/>
  <path id="Path_1965" data-name="Path 1965" d="M419.27,23.463c0-2.127-1.045-3.426-2.777-3.426s-2.777,1.3-2.777,3.426,1.045,3.426,2.777,3.426S419.27,25.59,419.27,23.463Zm-7.969,0c0-3.39,2.091-5.662,5.193-5.662s5.193,2.272,5.193,5.662-2.091,5.662-5.193,5.662C413.392,29.09,411.3,26.817,411.3,23.463Z" transform="translate(-262.963 -11.381)" fill="#024a6c"/>
  <path id="Path_1966" data-name="Path 1966" d="M445.336,18.025h2.272v.9h.037a3.456,3.456,0,0,1,2.74-1.227,3.509,3.509,0,0,1,2.777,1.334h.036a3.564,3.564,0,0,1,2.885-1.334,3.726,3.726,0,0,1,3.9,3.787V28.7H457.6V21.919a1.8,1.8,0,0,0-1.911-1.984,1.888,1.888,0,0,0-1.91,2.092V28.7H451.5V21.919a1.8,1.8,0,0,0-1.912-1.984,1.89,1.89,0,0,0-1.912,2.092V28.7H445.3V18.025" transform="translate(-284.701 -11.316)" fill="#024a6c"/>
</svg>
