
<svg xmlns="http://www.w3.org/2000/svg" xmlns:xlink="http://www.w3.org/1999/xlink" width="181.421" height="26.814" viewBox="0 0 181.421 26.814">
  <defs>
    <clipPath id="clip-path">
      <rect id="Rectangle_2" data-name="Rectangle 2" width="27.032" height="13.548" fill="none"/>
    </clipPath>
  </defs>
  <g id="Group_8683" data-name="Group 8683" transform="translate(-167 -70.931)">
    <g id="Group_6712" data-name="Group 6712" transform="translate(167 70.931)">
      <path id="Path_1" data-name="Path 1" d="M378.105,602.7l-13.376-13.41v26.814h0l6.687-6.7,6.688,6.7,6.685-6.7,6.685,6.7V589.292Z" transform="translate(-364.587 -589.292)" fill="#3a6ae7"/>
      <g id="Group_3" data-name="Group 3" transform="translate(0 13.266)" opacity="0.3" style="isolation: isolate">
        <g id="Group_2" data-name="Group 2" transform="translate(0 0)">
          <g id="Group_1" data-name="Group 1" clip-path="url(#clip-path)">
            <path id="Path_2" data-name="Path 2" d="M391.761,626.592v13.547l-6.756-6.772h0Zm-20.274,6.775-6.759-6.776v13.548Z" transform="translate(-364.729 -626.591)"/>
          </g>
        </g>
      </g>
    </g>
    <path id="Path_3" data-name="Path 3" d="M482.348,600.211v17.82h-3.755V606.99l-5.007,7.98h-1.527l-5.007-7.98v11.042H463.3v-17.82h3.755l5.734,8.96,5.758-8.96Zm2.38,8.91a9.085,9.085,0,1,1,2.648,6.487,9.11,9.11,0,0,1-2.648-6.487m14.419,0a5.353,5.353,0,1,0-1.475,3.913,5.325,5.325,0,0,0,1.475-3.913m18.926,3.615c0,3.387-2.654,5.3-6.407,5.3H505.48V600.21h5.733c3.755,0,5.859,2.033,5.859,4.919a4.445,4.445,0,0,1-1.628,3.362,5.022,5.022,0,0,1,2.628,4.243Zm-8.762-5.8h1.954c1.251,0,2.078-.476,2.078-1.58s-.851-1.581-2.078-1.581h-2l.049,3.161m5.007,5.572c0-1.179-.926-2.007-2.579-2.007h-2.5v3.94h2.4c1.727,0,2.654-.753,2.654-1.932Zm14.721-8.985a5.585,5.585,0,0,0,0,11.169,6.249,6.249,0,0,0,4.706-1.934v3.765a7.86,7.86,0,0,1-5.182,1.732,9.161,9.161,0,0,1,0-18.321,7.859,7.859,0,0,1,5.182,1.732v3.765a6.251,6.251,0,0,0-4.706-1.908m50.019,5.6a8.547,8.547,0,0,1-8.637,8.909h-6.408V600.211h6.408a8.547,8.547,0,0,1,8.637,8.91m-3.755,0c0-3.614-2.228-5.345-4.857-5.345h-2.628v10.666h2.6c2.63,0,4.857-1.706,4.857-5.321Zm9.213-5.347v3.463h5.207v3.591h-5.207v3.613h6.459v3.589H580.709V600.211h10.265v3.565Zm14.77,8.936h-2.5v5.321h-3.756V600.211h6.96a6.263,6.263,0,0,1,6.508,6.275,5.987,5.987,0,0,1-3.354,5.521l3.579,6.049h-4.254Zm-2.5-3.564h3.153a2.685,2.685,0,0,0,0-5.37h-3.153v5.371Z" transform="translate(-258.299 -523.828)" fill="#fff"/>
    <path id="Path_4" data-name="Path 4" d="M693.245,606.019l-1.89-3.061-10.364,6.451-.051,3.01,10.351,6.99,2-2.974-8.048-5.446Zm3.43-3.061-1.89,3.061,8,4.97-8.061,5.446,2,2.973,10.364-6.989-.062-3.012Z" transform="translate(-403.416 -525.846)" fill="#f74a1e"/>
  </g>
</svg>
