<svg xmlns="http://www.w3.org/2000/svg" width="190.805" height="163.676" viewBox="0 0 190.805 163.676">
  <g id="Group_77263" data-name="Group 77263" transform="translate(0.332 -0.4)">
    <path id="Path_129561" data-name="Path 129561" d="M0,0H119.337l21.622,24.307L119.337,49.785H0Z" transform="translate(5.969 4.252)" fill="#d6f2ff"/>
    <path id="Path_130178" data-name="Path 130178" d="M-24.9,0V-14.442L-19.676,0h2.61V-20.3h-2.523V-6.322l-5.1-13.978h-2.726V0Zm10.962-16.24V-4.06c0,2.987,1.856,4.292,4.93,4.292h.232c3.074,0,4.93-1.3,4.93-4.292V-16.24c0-2.987-1.856-4.292-4.93-4.292H-9C-12.078-20.532-13.934-19.256-13.934-16.24Zm2.726,11.658V-15.718c0-1.8.812-2.407,2.32-2.407s2.32.609,2.32,2.407V-4.582c0,1.8-.812,2.407-2.32,2.407S-11.208-2.784-11.208-4.582ZM2.132,0V-20.3H-.594V0Zm8.381-20.3H5.5V0h5.017c3.074,0,4.93-1.305,4.93-4.292V-16.008C15.443-19,13.587-20.3,10.513-20.3Zm2.2,4.814V-4.814c0,1.8-.812,2.407-2.32,2.407H8.222V-17.893H10.4C11.9-17.893,12.717-17.284,12.717-15.486ZM25.854,0h2.784L24.549-20.3H21.185L17.154,0h2.639l.87-4.785h4.35ZM21.069-7.076l1.769-9.8,1.74,9.8Z" transform="translate(52.669 40.4)" fill="#2d3243"/>
    <rect id="Rectangle_20243" data-name="Rectangle 20243" width="7" height="57" rx="3.5" transform="translate(-0.332 0.4)" fill="#b4e7ff"/>
    <g id="india-gate" transform="translate(59.483 33.087)">
      <path id="Path_129563" data-name="Path 129563" d="M128.578,126.667h-8.934V54.8h1.693a1.911,1.911,0,0,0,0-3.823h-1.693V46.674a5.741,5.741,0,0,0-5.734-5.734h-2.664V34.459a5.743,5.743,0,0,0-4.2-5.524V22.244a5.741,5.741,0,0,0-5.734-5.734H94.45V13.878a5.741,5.741,0,0,0-5.734-5.734h-3.8L84.5,7.737a27.818,27.818,0,0,0-38.5,0l-.419.406h-3.8a5.741,5.741,0,0,0-5.734,5.734v2.632H29.177a5.741,5.741,0,0,0-5.734,5.734v6.691a5.744,5.744,0,0,0-4.2,5.524v6.481H16.58a5.741,5.741,0,0,0-5.734,5.734v4.307H9.153a1.911,1.911,0,1,0,0,3.823h1.693v71.863H1.912a1.911,1.911,0,1,0,0,3.823H128.578a1.911,1.911,0,1,0,0-3.823Zm-23.067-94.12a1.913,1.913,0,0,1,1.911,1.911v6.481H86.052V32.547ZM39.863,13.878a1.913,1.913,0,0,1,1.911-1.911h4.575a1.912,1.912,0,0,0,1.331-.539l.975-.946a24,24,0,0,1,33.18,0l.975.946a1.911,1.911,0,0,0,1.331.539h4.575a1.913,1.913,0,0,1,1.911,1.911V16.51H39.863Zm-12.6,8.366a1.913,1.913,0,0,1,1.911-1.911h72.135a1.913,1.913,0,0,1,1.911,1.911v6.48H27.266Zm54.963,10.3v8.392H48.261V32.547ZM23.067,34.459a1.913,1.913,0,0,1,1.911-1.911h19.46v8.392H23.067ZM36.04,126.667H14.669v-4.543H36.04v4.543Zm0-8.366H14.669V97.694H36.04V118.3Zm0-24.43H14.669V81.407H36.04V93.871Zm8.4,32.8H39.863V66.757a1.913,1.913,0,0,1,1.911-1.911H63.333v4.907A20.488,20.488,0,0,0,44.438,89.9Zm46.189,0H86.052V108.1a1.911,1.911,0,1,0-3.823,0v18.569H48.261V89.9c0-9.049,7.619-16.411,16.984-16.411S82.229,80.848,82.229,89.9v10.554a1.911,1.911,0,0,0,3.823,0V89.9a20.488,20.488,0,0,0-18.9-20.145V64.846H88.715a1.913,1.913,0,0,1,1.911,1.911Zm25.194,0H94.45v-4.543h21.371Zm0-8.366H94.45V97.694h21.371Zm0-24.43H94.45V81.407h21.371Zm0-42.89H84.14a1.911,1.911,0,1,0,0,3.823h31.681v22.78H94.45V66.758a5.741,5.741,0,0,0-5.734-5.734H41.774a5.741,5.741,0,0,0-5.734,5.734V77.584H14.669V54.8h60.68a1.911,1.911,0,0,0,0-3.823H14.669V46.674a1.913,1.913,0,0,1,1.911-1.911H113.91a1.913,1.913,0,0,1,1.911,1.911v4.307ZM105.136,73.264a5.984,5.984,0,1,0-6.111-5.983A6.055,6.055,0,0,0,105.136,73.264Zm0-8.143a2.164,2.164,0,1,1-2.288,2.16,2.229,2.229,0,0,1,2.288-2.16ZM25.354,61.3a5.984,5.984,0,1,0,6.111,5.983A6.055,6.055,0,0,0,25.354,61.3Zm0,8.143a2.164,2.164,0,1,1,2.288-2.16A2.229,2.229,0,0,1,25.354,69.441Z" transform="translate(0 0)" fill="#283b6f" stroke="#fff" stroke-width="1"/>
    </g>
  </g>
</svg>
