<svg xmlns="http://www.w3.org/2000/svg" width="56.3" height="60.3" viewBox="0 0 56.3 60.3"><defs><style>.a,.b{stroke:#fff;stroke-width:0.3px;}.b{fill:#f74a1e;}</style></defs><g transform="translate(-3.85 -1.85)"><path class="a" d="M59,52H58V17a5,5,0,0,0-5-5H50V5a3.009,3.009,0,0,0-3-3H17a3.009,3.009,0,0,0-3,3v7H11a5,5,0,0,0-5,5V52H5a1,1,0,0,0-1,1v4a5,5,0,0,0,5,5H55a5,5,0,0,0,5-5V53A1,1,0,0,0,59,52ZM16,5a1,1,0,0,1,1-1H47a1,1,0,0,1,1,1v5H16Zm0,7H48V33a1,1,0,0,1-1,1H17a1,1,0,0,1-1-1Zm1,24H47a3.009,3.009,0,0,0,3-3V18h2V48H12V18h2V33a3.009,3.009,0,0,0,3,3ZM8,17a3.009,3.009,0,0,1,3-3h3v2H11a1,1,0,0,0-1,1V49a1,1,0,0,0,1,1H53a1,1,0,0,0,1-1V17a1,1,0,0,0-1-1H50V14h3a3.009,3.009,0,0,1,3,3V52H47a1,1,0,0,0-1,1v2a1,1,0,0,1-1,1H19a1,1,0,0,1-1-1V53a1,1,0,0,0-1-1H8ZM58,57a3.009,3.009,0,0,1-3,3H9a3.009,3.009,0,0,1-3-3V54H16v1a3.009,3.009,0,0,0,3,3H45a3.009,3.009,0,0,0,3-3V54H58Z"/><path class="a" d="M27,52H37v2H27Z"/><path class="a" d="M8,56h2v2H8Z"/><path class="a" d="M12,56h2v2H12Z"/><path class="a" d="M50,56h2v2H50Z"/><path class="a" d="M54,56h2v2H54Z"/><path class="a" d="M18,6h2V8H18Z"/><path class="a" d="M22,6h2V8H22Z"/><path class="a" d="M26,6h2V8H26Z"/><path class="a" d="M44,6h2V8H44Z"/><path class="a" d="M32,16a13.9,13.9,0,0,1,9.893,4.107l1.414-1.414a15.968,15.968,0,0,0-22.614,0l1.414,1.414A13.9,13.9,0,0,1,32,16Z"/><path class="a" d="M23.515,21.511l1.41,1.418a10.009,10.009,0,0,1,14.15,0l1.41-1.418a12.008,12.008,0,0,0-16.97,0Z"/><path class="a" d="M26.343,24.343l1.414,1.414a6,6,0,0,1,8.486,0l1.414-1.414a8,8,0,0,0-11.314,0Z"/><path class="b" d="M32,26a3,3,0,1,0,3,3A3,3,0,0,0,32,26Zm0,4a1,1,0,1,1,1-1A1,1,0,0,1,32,30Z"/></g></svg>