<svg xmlns="http://www.w3.org/2000/svg" width="60.142" height="60.143" viewBox="0 0 60.142 60.143"><defs><style>.a,.b{stroke:#fff;stroke-width:0.5px;}.b{fill:#f74a1e;}</style></defs><g transform="translate(0.25 0.25)"><g transform="translate(0 0)"><path class="a" d="M94.125,429.419H84.5a1.926,1.926,0,0,0-1.924,1.924v1.924a1.926,1.926,0,0,0,1.924,1.924h9.62a1.926,1.926,0,0,0,1.924-1.924v-1.924A1.926,1.926,0,0,0,94.125,429.419Zm-9.62,3.848v-1.924h9.62v1.924Z" transform="translate(-72.961 -379.396)"/><path class="a" d="M82.581,49.548H92.2v1.924h-9.62Z" transform="translate(-72.961 -43.776)"/><path class="a" d="M181.677,49.548H183.6v1.924h-1.924Z" transform="translate(-160.513 -43.776)"/><circle class="a" cx="0.962" cy="0.962" r="0.962" transform="translate(11.544 26.936)"/><circle class="a" cx="0.962" cy="0.962" r="0.962" transform="translate(19.24 26.936)"/><path class="a" d="M119.461,266.182h-3.848v1.924h3.848a3.852,3.852,0,0,0,3.848-3.848h-1.924A1.926,1.926,0,0,1,119.461,266.182Z" transform="translate(-102.145 -233.475)"/><path class="a" d="M57.719,0H28.86a1.926,1.926,0,0,0-1.924,1.924H4.81A4.815,4.815,0,0,0,0,6.734v48.1a4.815,4.815,0,0,0,4.81,4.81H27.9A4.819,4.819,0,0,0,32.61,55.8h4.761l.162-.977a2.747,2.747,0,0,1,4.28-1.77l.805.572,5.232-5.231-.576-.806a2.747,2.747,0,0,1,1.773-4.277l.976-.164v-7.4l-.977-.164A2.747,2.747,0,0,1,47.274,31.3l.575-.806L42.616,25.26l-.805.578a2.748,2.748,0,0,1-4.277-1.771l-.163-.979H32.707v-.735l.594-1.189H57.719a1.926,1.926,0,0,0,1.924-1.924V1.924A1.925,1.925,0,0,0,57.719,0ZM32.707,34.738a4.81,4.81,0,1,1,0,9.406Zm0,11.355a6.734,6.734,0,1,0,0-13.3V30.841a8.658,8.658,0,1,1,0,17.2Zm-1.924.082H26.936v-.962a10.6,10.6,0,0,0-4.2-8.437,6.716,6.716,0,0,0,2.2-4.069h.077a3.843,3.843,0,0,0,3.531-5.37,19.845,19.845,0,0,0,.27-2.48,2.507,2.507,0,0,0,1.97-.1v21.42Zm-12.506-9.62H14.43a4.815,4.815,0,0,1-4.81-4.81v-6.31a2.349,2.349,0,0,1,3.091-2.228l2.3.767A20.141,20.141,0,0,0,21.4,25.011h.725a.963.963,0,0,1,.962.962v5.772a4.815,4.815,0,0,1-4.81,4.81Zm.8,1.872a2.867,2.867,0,0,1-5.451,0,6.9,6.9,0,0,0,.8.052h3.848a6.9,6.9,0,0,0,.8-.052Zm3.047-15.34H21.4a18.245,18.245,0,0,1-5.78-.938l-2.3-.767a4.254,4.254,0,0,0-5.582,3.629H7.7A3.8,3.8,0,0,0,5.85,25.5c-.049-.536-.078-1.074-.078-1.61a8.512,8.512,0,0,1,8.5-8.5h4.16a8.512,8.512,0,0,1,8.5,8.5c0,.537-.029,1.076-.078,1.61a3.8,3.8,0,0,0-1.846-.493h-.177a2.882,2.882,0,0,0-2.709-1.924ZM7.7,30.783a1.924,1.924,0,0,1,0-3.848Zm17.316-3.848a1.924,1.924,0,1,1,0,3.848Zm1.924-9.055a10.412,10.412,0,0,0-8.5-4.413h-4.16A10.438,10.438,0,0,0,3.848,23.894a19.787,19.787,0,0,0,.317,3.444A3.843,3.843,0,0,0,7.7,32.707h.077a6.715,6.715,0,0,0,2.2,4.069,10.6,10.6,0,0,0-4.2,8.437v.962H1.924V11.544H26.936ZM7.7,45.213A8.656,8.656,0,0,1,11.593,38a4.783,4.783,0,0,0,9.522,0,8.66,8.66,0,0,1,3.9,7.21v.962H7.7ZM4.81,3.848H26.935V9.62H1.924V6.734A2.889,2.889,0,0,1,4.81,3.848ZM27.9,57.719H4.81a2.889,2.889,0,0,1-2.886-2.886V48.1h28.86v6.734A2.889,2.889,0,0,1,27.9,57.719Zm7.888-32.707a4.686,4.686,0,0,0,6.592,2.73l2.993,2.993a4.685,4.685,0,0,0,2.73,6.591v4.233a4.685,4.685,0,0,0-2.73,6.59L42.377,51.14a4.685,4.685,0,0,0-6.591,2.731H32.708v-3.9c.32.029.641.048.962.048a10.582,10.582,0,1,0,0-21.164c-.321,0-.642.019-.962.048v-3.9ZM57.719,19.24H32.113l-1.7,3.393a.821.821,0,0,1-1.556-.366V1.924h28.86V19.24Z" transform="translate(0 0)"/><path class="a" d="M280.774,33.032h3.848v1.924h-3.848Z" transform="translate(-248.067 -29.184)"/><path class="a" d="M330.323,33.032h15.392v1.924H330.323Z" transform="translate(-291.844 -29.184)"/><path class="b" d="M280.774,66.065H298.09v1.924H280.774Z" transform="translate(-248.067 -58.369)"/><path class="b" d="M280.774,99.1h9.62v1.924h-9.62Z" transform="translate(-248.067 -87.553)"/></g></g></svg>