<svg xmlns="http://www.w3.org/2000/svg" width="59.091" height="50" viewBox="0 0 59.091 50">
  <g id="quote" transform="translate(0 -36.545)" opacity="0.2">
    <g id="Group_4521" data-name="Group 4521" transform="translate(0 36.545)">
      <path id="Path_5533" data-name="Path 5533" d="M20.706,59.272H12.653a3.349,3.349,0,0,1-2.445-.994A3.269,3.269,0,0,1,9.2,55.863V54.727A8.706,8.706,0,0,1,11.9,48.3a8.923,8.923,0,0,1,6.507-2.663h2.3a2.225,2.225,0,0,0,1.618-.675,2.171,2.171,0,0,0,.683-1.6V38.818a2.173,2.173,0,0,0-.683-1.6,2.226,2.226,0,0,0-1.618-.675h-2.3a18.125,18.125,0,0,0-7.136,1.438,18.564,18.564,0,0,0-5.877,3.889,18.3,18.3,0,0,0-3.936,5.806A17.525,17.525,0,0,0,0,54.727v25a6.535,6.535,0,0,0,2.013,4.83A6.7,6.7,0,0,0,6.9,86.545h13.8A6.7,6.7,0,0,0,25.6,84.557a6.537,6.537,0,0,0,2.013-4.83V66.091a6.534,6.534,0,0,0-2.014-4.83A6.7,6.7,0,0,0,20.706,59.272Z" transform="translate(0 -36.545)" fill="#016cf9"/>
      <path id="Path_5534" data-name="Path 5534" d="M281.415,61.261a6.7,6.7,0,0,0-4.889-1.988h-8.052a3.346,3.346,0,0,1-2.444-.994,3.267,3.267,0,0,1-1.007-2.415V54.727a8.708,8.708,0,0,1,2.7-6.428,8.921,8.921,0,0,1,6.507-2.663h2.3a2.225,2.225,0,0,0,1.618-.675,2.173,2.173,0,0,0,.683-1.6V38.818a2.174,2.174,0,0,0-.683-1.6,2.226,2.226,0,0,0-1.618-.675h-2.3a18.13,18.13,0,0,0-7.137,1.438,18.563,18.563,0,0,0-5.876,3.889,18.289,18.289,0,0,0-3.937,5.806,17.53,17.53,0,0,0-1.456,7.049v25a6.537,6.537,0,0,0,2.013,4.83,6.7,6.7,0,0,0,4.889,1.988h13.8a6.7,6.7,0,0,0,4.889-1.988,6.533,6.533,0,0,0,2.013-4.83V66.091A6.535,6.535,0,0,0,281.415,61.261Z" transform="translate(-224.336 -36.545)" fill="#016cf9"/>
    </g>
  </g>
</svg>
