<svg xmlns="http://www.w3.org/2000/svg" xmlns:xlink="http://www.w3.org/1999/xlink" width="134.386" height="134.079" viewBox="0 0 134.386 134.079">
  <defs>
    <radialGradient id="radial-gradient" cx="0.5" cy="0.5" r="0.5" gradientUnits="objectBoundingBox">
      <stop offset="0.183" stop-color="#999"/>
      <stop offset="0.282" stop-color="#acacac"/>
      <stop offset="0.49" stop-color="#d0d0d0"/>
      <stop offset="0.685" stop-color="#e9e9e9"/>
      <stop offset="0.861" stop-color="#f9f9f9"/>
      <stop offset="1" stop-color="#fff"/>
    </radialGradient>
  </defs>
  <g id="Group_77319" data-name="Group 77319" transform="translate(-50.033 -60.466)">
    <g id="Group_77318" data-name="Group 77318" transform="translate(50.033 60.466)">
      <path id="Path_129864" data-name="Path 129864" d="M124.546,174.487a67.039,67.039,0,1,1,67.039-67.039A67.116,67.116,0,0,1,124.546,174.487Zm0-132.613a65.574,65.574,0,1,0,65.574,65.574A65.648,65.648,0,0,0,124.546,41.874Z" transform="translate(-57.507 -40.408)" fill="#b6a6fc"/>
      <g id="Group_77289" data-name="Group 77289" transform="translate(0.006 1.762)">
        <ellipse id="Ellipse_1323" data-name="Ellipse 1323" cx="67.19" cy="55.229" rx="67.19" ry="55.229" transform="translate(0 18.023)" opacity="0.75" fill="url(#radial-gradient)" style="mix-blend-mode: multiply;isolation: isolate"/>
        <circle id="Ellipse_1324" data-name="Ellipse 1324" cx="50.967" cy="50.967" r="50.967" transform="translate(15.892 13.273)" fill="#fff"/>
        <circle id="Ellipse_1325" data-name="Ellipse 1325" cx="49.35" cy="49.35" r="49.35" transform="matrix(0.927, -0.374, 0.374, 0.927, 2.62, 36.961)" fill="#e5dfff"/>
        <g id="maintenance" transform="translate(38.994 27.904)">
          <g id="Group_77373" data-name="Group 77373" transform="translate(0 5.4)">
            <g id="Group_77372" data-name="Group 77372" transform="translate(0 0)">
              <path id="Path_129892" data-name="Path 129892" d="M188.912,76.893a1.175,1.175,0,0,0,1.565-.781,12.556,12.556,0,0,0,0-6.329A1.175,1.175,0,0,0,188.915,69a1.851,1.851,0,0,1-1.835-3.177,1.175,1.175,0,0,0,.109-1.747A12.487,12.487,0,0,0,181.7,60.9a1.175,1.175,0,0,0-1.459.97,1.851,1.851,0,0,1-3.669,0,1.175,1.175,0,0,0-1.459-.97,12.485,12.485,0,0,0-5.485,3.173,1.175,1.175,0,0,0,.109,1.747A1.851,1.851,0,0,1,167.906,69a1.175,1.175,0,0,0-1.567.782,12.553,12.553,0,0,0,0,6.329,1.175,1.175,0,0,0,1.565.781,1.851,1.851,0,0,1,1.837,3.174,1.163,1.163,0,0,0-.1,1.745,12.483,12.483,0,0,0,5.477,3.163,1.175,1.175,0,0,0,1.458-.963,1.851,1.851,0,0,1,3.666,0,1.175,1.175,0,0,0,1.458.964,12.482,12.482,0,0,0,5.478-3.163,1.175,1.175,0,0,0-.1-1.745,1.851,1.851,0,0,1,1.837-3.174Zm-4.315-.373a4.2,4.2,0,0,0,.12,4.371,10.163,10.163,0,0,1-2.582,1.492,4.175,4.175,0,0,0-7.451,0A10.162,10.162,0,0,1,172.1,80.89a4.175,4.175,0,0,0-3.732-6.452,10.267,10.267,0,0,1,0-2.982,4.175,4.175,0,0,0,3.727-6.463,10.17,10.17,0,0,1,2.581-1.495,4.176,4.176,0,0,0,7.466,0,10.164,10.164,0,0,1,2.581,1.495,4.176,4.176,0,0,0,3.727,6.463,10.269,10.269,0,0,1,0,2.982A4.2,4.2,0,0,0,184.6,76.519Z" transform="translate(-146.642 -54.415)" fill="#242a39"/>
              <path id="Path_129893" data-name="Path 129893" d="M234.917,121.371a5.04,5.04,0,1,0,5.04,5.04,5.045,5.045,0,0,0-5.04-5.04Zm0,7.754a2.714,2.714,0,1,1,2.714-2.714A2.717,2.717,0,0,1,234.917,129.125Z" transform="translate(-203.148 -107.887)" fill="#242a39"/>
              <path id="Path_129894" data-name="Path 129894" d="M59.425,280.692a5.115,5.115,0,0,0-6.094-3.909l-11.639,2.665a11.7,11.7,0,0,1-6.294-.292,5.354,5.354,0,0,0,1.853-2.3,5.262,5.262,0,0,0-2.761-6.932l-11.855-4.907a1.164,1.164,0,0,0-.445-.088H11.127v-1.579a1.175,1.175,0,0,0-1.163-1.163h-8.8A1.163,1.163,0,0,0,0,263.345v20.438a1.163,1.163,0,0,0,1.163,1.163h8.8a1.163,1.163,0,0,0,1.163-1.163v-1.105h4.594a1.163,1.163,0,0,0,0-2.326H11.127v-13.1H21.96L33.6,272.068a2.916,2.916,0,0,1,1.509,3.876,2.99,2.99,0,0,1-3.688,1.7L23.5,274.594a1.163,1.163,0,0,0-.835,2.171s4.411,1.7,7.775,2.993q.1.039.2.073l3.384,1.3a14.025,14.025,0,0,0,8.191.582l11.639-2.665a2.768,2.768,0,0,1,3.3,2.116,2.738,2.738,0,0,1-2.01,3.217l-13.887,3.529a11.682,11.682,0,0,1-7.184-.449l-8.219-3.224A1.163,1.163,0,1,0,25,286.4l8.219,3.224a13.995,13.995,0,0,0,8.605.538l13.887-3.529a5.059,5.059,0,0,0,3.714-5.944Zm-57.1,1.929V264.507H8.8v17.008h0v1.105Z" transform="translate(0 -232.325)" fill="#242a39"/>
              <path id="Path_129895" data-name="Path 129895" d="M91.987,28.909l3.278,1.932a1.175,1.175,0,0,0,1.549-.345l2.166-3.161a1.163,1.163,0,1,0-1.918-1.314l-.693,1.011a16.317,16.317,0,1,1,27.514,8.628,1.163,1.163,0,0,0-.011,1.644,1.175,1.175,0,0,0,1.644.011,18.648,18.648,0,1,0-31.435-9.872l-.913-.538a1.163,1.163,0,0,0-1.181,2Z" transform="translate(-80.786 -5.4)" fill="#242a39"/>
              <path id="Path_129896" data-name="Path 129896" d="M334.253,286.314a1.163,1.163,0,1,0-.321,1.613A1.174,1.174,0,0,0,334.253,286.314Z" transform="translate(-293.51 -253.198)" fill="#242a39"/>
            </g>
          </g>
          <path id="Path_129897" data-name="Path 129897" d="M168.109,434.982a1.163,1.163,0,1,0-.321,1.613A1.174,1.174,0,0,0,168.109,434.982Z" transform="translate(-146.685 -379.181)" fill="#242a39"/>
        </g>
      </g>
    </g>
  </g>
</svg>
