<svg xmlns="http://www.w3.org/2000/svg" width="165.393" height="50" xmlns:v="https://vecta.io/nano"><path d="M24.834 25.007L.001 0v50l12.416-12.5L24.836 50l12.412-12.5L49.657 50V0z" fill="#006cfc"/><path d="M49.662 25.113V50L37.244 37.558zM12.416 37.558L.001 25.1V50z" opacity=".3"/><path d="M72.457 18.515v13.32h-2.8v-8.25l-3.745 5.962h-1.14l-3.744-5.96v8.25h-2.8v-13.32h2.807l4.285 6.7 4.3-6.7zm1.78 6.658a6.79 6.79 0 0 1 13.077-2.509 6.79 6.79 0 0 1-11.1 7.355c-1.278-1.287-1.99-3.03-1.977-4.843zm10.775 0a4 4 0 0 0-7.74-1.243 4 4 0 0 0 6.64 4.167 4.02 4.02 0 0 0 1.1-2.921zm14.14 2.7c0 2.532-1.98 3.958-4.788 3.958h-4.62V18.515h4.282c2.807 0 4.38 1.52 4.38 3.676a3.33 3.33 0 0 1-1.216 2.512 3.75 3.75 0 0 1 1.961 3.17zm-6.545-4.33h1.46c.934 0 1.553-.357 1.553-1.183s-.635-1.18-1.553-1.18h-1.5zm3.74 4.162c0-.882-.694-1.5-1.93-1.5h-1.87v2.943h1.8c1.293 0 1.984-.56 1.984-1.443zm11-6.714c-1.105.001-2.165.442-2.945 1.224s-1.218 1.843-1.217 2.948h0a4.17 4.17 0 0 0 4.162 4.175h0c1.324.04 2.603-.486 3.517-1.446v2.814a5.89 5.89 0 0 1-3.874 1.293c-3.78 0-6.845-3.065-6.845-6.845s3.065-6.845 6.845-6.845c1.404-.046 2.78.413 3.874 1.293v2.814a4.66 4.66 0 0 0-3.518-1.421zm37.376 4.182a6.39 6.39 0 0 1-6.454 6.658h-4.788V18.515h4.788a6.39 6.39 0 0 1 6.454 6.658zm-2.807 0c0-2.7-1.663-3.994-3.627-3.994h-1.964v7.968h1.945c1.964 0 3.63-1.274 3.63-3.974zm6.885-3.994v2.587h3.9v2.684h-3.9v2.7h4.827v2.684h-7.67V18.515h7.67v2.665zm11.038 6.675h-1.87v3.978h-2.808V18.515h5.2c1.275-.05 2.514.424 3.432 1.31s1.436 2.107 1.434 3.382a4.48 4.48 0 0 1-2.506 4.123l2.67 4.522h-3.177zm-1.87-2.66h2.357c1.09-.024 1.962-.916 1.962-2.007s-.87-1.982-1.962-2.006h-2.357v4.016z" fill="#3e3e3d"/><path d="M121.6 21.35l-1.4-2.29-7.742 4.82-.04 2.25 7.735 5.222 1.5-2.22-6.013-4.072zm2.564-2.29l-1.416 2.29 5.978 3.712-6.02 4.072 1.494 2.22 7.748-5.22-.045-2.25z" fill="#ff5860"/></svg>