<svg id="phone" xmlns="http://www.w3.org/2000/svg" width="21.089" height="21.089" viewBox="0 0 21.089 21.089">
  <g id="Group_4549" data-name="Group 4549">
    <path id="Path_6447" data-name="Path 6447" d="M19.4,13.842a11.973,11.973,0,0,1-3.76-.6,1.719,1.719,0,0,0-1.672.352l-2.371,1.79A13.1,13.1,0,0,1,5.7,9.5L7.439,7.186a1.7,1.7,0,0,0,.419-1.727,11.992,11.992,0,0,1-.6-3.767A1.694,1.694,0,0,0,5.565,0H1.692A1.694,1.694,0,0,0,0,1.692a19.419,19.419,0,0,0,19.4,19.4A1.694,1.694,0,0,0,21.089,19.4V15.535A1.694,1.694,0,0,0,19.4,13.842Z"/>
  </g>
</svg>
