<svg id="phone" xmlns="http://www.w3.org/2000/svg" width="13" height="13" viewBox="0 0 13 13">
  <g id="Group_4549" data-name="Group 4549">
    <path id="Path_6447" data-name="Path 6447" d="M11.957,8.533a7.381,7.381,0,0,1-2.318-.369,1.059,1.059,0,0,0-1.03.217l-1.462,1.1A8.078,8.078,0,0,1,3.515,5.853L4.586,4.43a1.051,1.051,0,0,0,.258-1.065,7.392,7.392,0,0,1-.371-2.322A1.044,1.044,0,0,0,3.431,0H1.043A1.044,1.044,0,0,0,0,1.043,11.97,11.97,0,0,0,11.957,13,1.044,1.044,0,0,0,13,11.957V9.576A1.044,1.044,0,0,0,11.957,8.533Z" fill="#fff"/>
  </g>
</svg>
