<svg xmlns="http://www.w3.org/2000/svg" width="40" height="40" viewBox="0 0 40 40">
  <g id="play" transform="translate(-0.2)">
    <g id="Group_4523" data-name="Group 4523" transform="translate(0.2 0)">
      <path id="Path_5535" data-name="Path 5535" d="M149.416,115.268l-6.022-3.489-5.981-3.447a2.387,2.387,0,0,0-1.827-.249,2.425,2.425,0,0,0-1.454,1.121,2.455,2.455,0,0,0-.249.581c-.042.125-.042.291-.083.457V124.53a2.452,2.452,0,0,0,.706,1.7,2.352,2.352,0,0,0,1.7.706,4.092,4.092,0,0,0,1.371-.457l5.9-3.406h.042l.042-.042,6.105-3.53a2.393,2.393,0,0,0,1.121-1.5,1.558,1.558,0,0,0,.042-.457A3.148,3.148,0,0,0,149.416,115.268Z" transform="translate(-120.617 -97.411)" fill="#fff"/>
      <path id="Path_5536" data-name="Path 5536" d="M34.353,5.881a19.97,19.97,0,0,0-28.266-.04A20.1,20.1,0,0,0,.2,20.02,20,20,0,1,0,34.353,5.881ZM32.942,32.709a17.925,17.925,0,0,1-25.4,0,17.881,17.881,0,0,1,0-25.378A17.984,17.984,0,0,1,38.224,20.02,17.734,17.734,0,0,1,32.942,32.709Z" transform="translate(-0.2 0)" fill="#fff"/>
    </g>
  </g>
</svg>
