<svg xmlns="http://www.w3.org/2000/svg" width="261.935" height="221.637" viewBox="0 0 261.935 221.637">
  <g id="quote" transform="translate(261.935 258.182) rotate(180)" opacity="0.03">
    <g id="Group_4521" data-name="Group 4521" transform="translate(0 36.545)">
      <path id="Path_5533" data-name="Path 5533" d="M91.783,137.29H56.089a14.846,14.846,0,0,1-10.837-4.407,14.491,14.491,0,0,1-4.462-10.706v-5.035A38.59,38.59,0,0,1,52.743,88.65a39.555,39.555,0,0,1,28.843-11.8h10.2a9.864,9.864,0,0,0,7.17-2.99,9.624,9.624,0,0,0,3.027-7.083V46.62a9.631,9.631,0,0,0-3.027-7.085,9.869,9.869,0,0,0-7.17-2.991h-10.2a80.345,80.345,0,0,0-31.63,6.375A82.289,82.289,0,0,0,23.9,60.159,81.1,81.1,0,0,0,6.454,85.895,77.685,77.685,0,0,0,0,117.142V227.958a28.97,28.97,0,0,0,8.922,21.411A29.7,29.7,0,0,0,30.6,258.182H91.787a29.694,29.694,0,0,0,21.671-8.813,28.975,28.975,0,0,0,8.923-21.411V167.514a28.965,28.965,0,0,0-8.927-21.41A29.692,29.692,0,0,0,91.783,137.29Z" transform="translate(0 -36.545)" fill="#016cf9"/>
      <path id="Path_5534" data-name="Path 5534" d="M369.276,146.1a29.688,29.688,0,0,0-21.671-8.814H311.912a14.833,14.833,0,0,1-10.833-4.408,14.48,14.48,0,0,1-4.462-10.706v-5.035A38.6,38.6,0,0,1,308.566,88.65a39.547,39.547,0,0,1,28.845-11.8h10.2a9.862,9.862,0,0,0,7.171-2.991,9.633,9.633,0,0,0,3.029-7.083V46.62a9.635,9.635,0,0,0-3.029-7.085,9.867,9.867,0,0,0-7.171-2.991h-10.2a80.367,80.367,0,0,0-31.637,6.375,82.288,82.288,0,0,0-26.049,17.239,81.072,81.072,0,0,0-17.45,25.735,77.7,77.7,0,0,0-6.456,31.247V227.958a28.977,28.977,0,0,0,8.923,21.411,29.688,29.688,0,0,0,21.671,8.813H347.6a29.684,29.684,0,0,0,21.67-8.813,28.959,28.959,0,0,0,8.922-21.411V167.514A28.968,28.968,0,0,0,369.276,146.1Z" transform="translate(-116.259 -36.545)" fill="#016cf9"/>
    </g>
  </g>
</svg>
