<svg xmlns="http://www.w3.org/2000/svg" width="170.779" height="159.956" viewBox="0 0 170.779 159.956">
  <g id="Group_77261" data-name="Group 77261" transform="translate(-0.174 -0.4)">
    <path id="Path_129561" data-name="Path 129561" d="M0,0H119.337l21.622,24.307L119.337,49.785H0Z" transform="translate(5.969 4.252)" fill="#fff3a3"/>
    <path id="Path_130176" data-name="Path 130176" d="M-27.622-13.137v-3.219c0-2.929-2.03-4.176-4.814-4.176h-.058c-2.784,0-4.814,1.247-4.814,4.176V-13.8c0,1.943.986,2.813,2.842,3.886l2.61,1.45c1.189.667,1.624,1.189,1.624,2.407v1.595c0,1.6-.783,2.32-2.2,2.32s-2.2-.725-2.2-2.32V-7.453h-2.668V-4c0,3.074,1.769,4.234,4.843,4.234h.058c3.074,0,4.843-1.189,4.843-4.234V-6.815c0-1.943-1.1-2.929-2.842-3.915l-2.639-1.45c-1.16-.667-1.595-1.1-1.595-2.32v-1.392c0-1.624.783-2.262,2.175-2.262s2.175.638,2.175,2.262v2.755ZM-16.138,0V-2.407h-5.916v-6.67h4.93v-2.436h-4.93v-6.38h5.829V-20.3H-24.78V0ZM-6.017,0h2.784L-7.322-20.3h-3.364L-14.717,0h2.639l.87-4.785h4.35ZM-10.8-7.076l1.769-9.8,1.74,9.8ZM6.047-20.3h-9.8v2.407H-.217V0H2.509V-17.893H6.047Zm10.556,0H6.8v2.407h3.538V0h2.726V-17.893H16.6ZM26.811-2.465H21.33V-20.3H18.6V0h8.207ZM37.511,0V-2.407H31.6v-6.67h4.93v-2.436H31.6v-6.38h5.829V-20.3H28.869V0Z" transform="translate(60.174 40.4)" fill="#2d3243"/>
    <rect id="Rectangle_20243" data-name="Rectangle 20243" width="6" height="57" rx="3" transform="translate(0.174 0.4)" fill="#ffe852"/>
    <g id="space-needle" transform="translate(75.283 40.894)">
      <g id="Group_77265" data-name="Group 77265" transform="translate(0)">
        <path id="Path_129562" data-name="Path 129562" d="M144.388,115h-27.8a142.55,142.55,0,0,1-5.317-16.686c2.209-.283,4.412-.613,6.6-1.044L119,97.045a1.983,1.983,0,0,0,1.6-1.946V83.346A1.983,1.983,0,0,0,119,81.4l-1.126-.223A98.113,98.113,0,0,0,107.8,79.739c-3.172-26.324,1.634-46.67,3.086-51.981h1.78a1.983,1.983,0,1,0,0-3.965h-3.409l.991-3.966h6.423a1.982,1.982,0,0,0,1.653-3.077,17.666,17.666,0,0,0-16.336-10.8h-1.219V1.983a1.983,1.983,0,1,0-3.965,0V5.948H95.584A17.667,17.667,0,0,0,79.1,17.109a1.982,1.982,0,0,0,1.84,2.718h6.383l.991,3.966H84.906a1.983,1.983,0,1,0,0,3.965h1.782c1.455,5.3,6.263,25.612,3.085,51.981A98.109,98.109,0,0,0,79.7,81.177l-1.126.223a1.983,1.983,0,0,0-1.6,1.946V95.1a1.983,1.983,0,0,0,1.6,1.946l1.126.223c2.183.431,4.386.761,6.6,1.044A142.536,142.536,0,0,1,80.979,115h-27.8a1.983,1.983,0,1,0,0,3.965h91.2a1.982,1.982,0,1,0,0-3.965ZM84.234,15.862A13.717,13.717,0,0,1,95.584,9.914h6.4a13.717,13.717,0,0,1,11.349,5.948Zm21.925,3.965-.991,3.966H92.4l-.991-3.966ZM90.8,27.758h15.962c-1.787,6.8-5.938,26.283-3,51.687a99.1,99.1,0,0,0-9.963,0C96.742,54.041,92.591,34.556,90.8,27.758ZM80.941,84.976a94.794,94.794,0,0,1,35.689,0v2.264H80.941Zm0,8.492V91.2h35.689v2.264A94.675,94.675,0,0,1,80.941,93.468ZM85.215,115a146.158,146.158,0,0,0,5.06-16.251c2.834.247,5.675.391,8.509.391s5.675-.144,8.509-.391A146.158,146.158,0,0,0,112.354,115Z" transform="translate(-51.2)" fill="#283b6f" stroke="#fff" stroke-width="1"/>
      </g>
    </g>
  </g>
</svg>
