<svg xmlns="http://www.w3.org/2000/svg" width="45.145" height="45.145" viewBox="0 0 45.145 45.145"><path d="M215.617,158.749l-6.48-4.607a2.641,2.641,0,0,0-2.784-.2,2.913,2.913,0,0,0-1.556,2.611v9.214a2.912,2.912,0,0,0,1.553,2.616,2.642,2.642,0,0,0,2.784-.2l6.48-4.607a2.995,2.995,0,0,0,0-4.823Zm-.872,3.6-6.481,4.6a1.146,1.146,0,0,1-1.224.093,1.413,1.413,0,0,1-.738-1.279v-9.214a1.413,1.413,0,0,1,.738-1.279,1.147,1.147,0,0,1,1.224.093l6.481,4.607a1.491,1.491,0,0,1,0,2.37Zm0,0" transform="translate(-186.74 -140.089)"/><path d="M397.8,384h-4.514a.752.752,0,0,0,0,1.5H397.8a.752.752,0,1,0,0-1.5Zm0,0" transform="translate(-357.924 -350.142)"/><path d="M397.8,418.133h-4.514a.752.752,0,0,0,0,1.5H397.8a.752.752,0,1,0,0-1.5Zm0,0" transform="translate(-357.924 -381.265)"/><path d="M397.8,452.266h-4.514a.752.752,0,0,0,0,1.5H397.8a.752.752,0,1,0,0-1.5Zm0,0" transform="translate(-357.924 -412.388)"/><path d="M78.286,402.571H56.466v-.752a.752.752,0,1,0-1.5,0v.752h-3.01a.752.752,0,1,0,0,1.5h3.01v.753a.752.752,0,0,0,1.5,0v-.753h21.82a.752.752,0,1,0,0-1.5Zm0,0" transform="translate(-46.685 -365.703)"/><path d="M41.382,0H3.762A3.766,3.766,0,0,0,0,3.762v37.62a3.766,3.766,0,0,0,3.762,3.762h37.62a3.766,3.766,0,0,0,3.762-3.762V3.762A3.766,3.766,0,0,0,41.382,0ZM3.762,1.5h37.62A2.257,2.257,0,0,1,43.64,3.762V6.019H1.5V3.762A2.257,2.257,0,0,1,3.762,1.5ZM41.382,43.64H3.762A2.257,2.257,0,0,1,1.5,41.382V7.524H43.64V41.382A2.257,2.257,0,0,1,41.382,43.64Zm0,0"/><path d="M43.42,35.638h.753a.752.752,0,0,0,0-1.5H43.42a.752.752,0,0,0,0,1.5Zm0,0" transform="translate(-38.906 -31.123)"/><path d="M86.085,35.638h.752a.752.752,0,1,0,0-1.5h-.752a.752.752,0,1,0,0,1.5Zm0,0" transform="translate(-77.808 -31.123)"/><path d="M128.753,35.638h.752a.752.752,0,1,0,0-1.5h-.752a.752.752,0,1,0,0,1.5Zm0,0" transform="translate(-116.714 -31.123)"/><path d="M139.286,110.934a11.286,11.286,0,1,0,11.286,11.286A11.286,11.286,0,0,0,139.286,110.934Zm0,21.067a9.781,9.781,0,1,1,9.781-9.781A9.781,9.781,0,0,1,139.286,132Zm0,0" transform="translate(-116.714 -101.152)"/></svg>