<svg xmlns="http://www.w3.org/2000/svg" width="46.373" height="46.373" viewBox="0 0 46.373 46.373"><path d="M260.766,206.17a2.089,2.089,0,1,0,0-4.178H256v1.359h2.809a2.09,2.09,0,0,0,1.957,2.819Zm.731-2.089a.73.73,0,1,1-.731-.731A.731.731,0,0,1,261.5,204.081Zm0,0" transform="translate(-232.813 -183.697)"/><path d="M261.906,137.77h1.359v3.036h-1.359Zm0,0" transform="translate(-238.185 -125.291)"/><path d="M233.852,137.77h1.359v3.036h-1.359Zm0,0" transform="translate(-212.671 -125.291)"/><path d="M289.961,137.77h1.359v3.036h-1.359Zm0,0" transform="translate(-263.698 -125.291)"/><path d="M135.739,179.908v-.314l-1.005-1h-2.7v-.64l-1.15-1.15H128.24v-4.975l-1.206-1.206H124.3l-1.206,1.206v14.811l-1.955-1.953h-2.156l-2.233,2.233,0,2.154,6.346,6.373v6.1h12.5v-6.11l3.486-3.452V181.454l-1.546-1.546Zm1.976,11.5-3.486,3.452v5.318h-9.783v-5.3l-6.346-6.372v-1.03l1.437-1.438h1.031l3.876,3.872V172.387l.411-.411h1.613l.41.411v12.449h1.359v-6.678h2.081l.354.354v1.435h0v4.889h1.359v-4.889h2.138l.209.209v4.679h1.359v-3.569h1.226l.751.751Zm0,0" transform="translate(-106.169 -155.164)"/><path d="M77.236,55.47v1.359h8.033V30H47.5V56.829h7.556V55.47h-6.2V31.359H83.91V55.47Zm0,0" transform="translate(-43.198 -27.283)"/><path d="M0,0V32.263H9.444V30.9H1.359V1.359H45.014V30.9H34.038v1.359H46.373V0ZM0,0"/><path d="M167.741,99.923l-.41-1.529h-3.663v1.359h2.621l.275,1.025.857,3.2,1.312-.351-.628-2.346h10.28l-1.206,4.508h-5.131v1.359h6.173l1.934-7.225Zm0,0" transform="translate(-148.844 -89.483)"/><path d="M439.5,69.5" transform="translate(-399.693 -63.205)"/></svg>