<svg xmlns="http://www.w3.org/2000/svg" width="67.701" height="56.867" viewBox="0 0 67.701 56.867"><defs><style>.a{fill:#f74a1e;}.a,.b{stroke:#fff;stroke-width:1.5px;}</style></defs><g transform="translate(0.75 -23.757)"><path class="a" d="M223.075,41.116a9.272,9.272,0,1,0,9.272,9.272,9.283,9.283,0,0,0-9.272-9.272Zm0,14.664a5.391,5.391,0,1,1,5.391-5.391A5.4,5.4,0,0,1,223.075,55.78Z" transform="translate(-166.146 -12.781)"/><path class="b" d="M8.791,40.813a1.941,1.941,0,0,0,2.744,0l5.043-5.043,5.043,5.043a1.941,1.941,0,0,0,2.744-2.744l-5.044-5.043,5.043-5.043a1.941,1.941,0,0,0-2.744-2.744l-5.043,5.043-5.043-5.043a1.941,1.941,0,1,0-2.744,2.744l5.043,5.043L8.791,38.068a1.941,1.941,0,0,0,0,2.744Z" transform="translate(-6.39)"/><path class="a" d="M139.491,197.927a1.941,1.941,0,0,0-2.744,0L131.7,202.97l-5.043-5.043a1.941,1.941,0,1,0-2.744,2.744l5.043,5.043-5.043,5.043a1.941,1.941,0,0,0,2.744,2.744l5.043-5.043,5.043,5.043a1.941,1.941,0,1,0,2.744-2.744l-5.043-5.043,5.043-5.043A1.94,1.94,0,0,0,139.491,197.927Z" transform="translate(-95.854 -134.197)"/><path class="b" d="M43.789,52.461l-7.825-6.8a1.94,1.94,0,0,0-2.546,2.929l4.15,3.608c-12.249,1.6-19.5,8-23.533,13.413A37.264,37.264,0,0,0,8.189,77.335a9.271,9.271,0,1,0,3.941.387,33.779,33.779,0,0,1,5.11-9.92C22.286,61.1,29.3,57.152,38.116,56.03l-3.867,4.448a1.94,1.94,0,0,0,2.929,2.546l6.8-7.826a1.94,1.94,0,0,0-.192-2.737ZM14.664,86.542A5.391,5.391,0,1,1,9.272,81.15,5.4,5.4,0,0,1,14.664,86.542Z" transform="translate(0 -15.941)"/></g></svg>