<svg xmlns="http://www.w3.org/2000/svg" width="67.587" height="55.144" viewBox="0 0 67.587 55.144"><defs><style>.a{fill:#f74a1e;}</style></defs><g transform="translate(-4.25 -15.25)"><path d="M66.322,15.25H9.764A5.521,5.521,0,0,0,4.25,20.764V64.314a6.087,6.087,0,0,0,6.08,6.08H65.757a6.087,6.087,0,0,0,6.08-6.08V20.764a5.521,5.521,0,0,0-5.514-5.514Zm3.535,5.514v6.608h-38.1l4.8-10.143H66.322a3.539,3.539,0,0,1,3.535,3.535ZM9.764,17.23h24.6l-4.8,10.143H6.23V20.764A3.539,3.539,0,0,1,9.764,17.23ZM65.757,68.414H10.33a4.1,4.1,0,0,1-4.1-4.1V29.352H69.857V64.314a4.1,4.1,0,0,1-4.1,4.1Z"/><path d="M19.072,28.47a3.252,3.252,0,1,0-3.252-3.252A3.252,3.252,0,0,0,19.072,28.47Zm0-4.525A1.273,1.273,0,1,1,17.8,25.218,1.273,1.273,0,0,1,19.072,23.946Z" transform="translate(-5.026 -2.918)"/><path d="M35.128,28.47a3.252,3.252,0,1,0-3.252-3.252A3.252,3.252,0,0,0,35.128,28.47Zm0-4.525a1.273,1.273,0,1,1-1.273,1.273A1.273,1.273,0,0,1,35.128,23.946Z" transform="translate(-12.001 -2.918)"/><path d="M66.762,27.946H92.069a.99.99,0,0,0,0-1.98H66.762a.99.99,0,1,0,0,1.98Z" transform="translate(-26.727 -4.655)"/><path class="a" d="M44.179,76.114h-2.4V60.3a.99.99,0,0,0-.99-.99H34.41a.99.99,0,0,0-.99.99V76.114H30.867V55.207a.99.99,0,0,0-.99-.99H23.5a.99.99,0,0,0-.99.99V76.114H19.027V49.956a.99.99,0,1,0-1.98,0V76.114H14.156a.99.99,0,1,0,0,1.98H44.179a.99.99,0,0,0,0-1.98Zm-19.688,0V56.2h4.4V76.114Zm10.909,0V61.287h4.4V76.114Z" transform="translate(-3.873 -14.647)"/><path d="M96.328,55.716h-16.4a.99.99,0,1,0,0,1.98h16.4a.99.99,0,1,0,0-1.98Z" transform="translate(-32.445 -17.579)"/><path d="M96.328,67.216h-16.4a.99.99,0,1,0,0,1.98h16.4a.99.99,0,1,0,0-1.98Z" transform="translate(-32.445 -22.575)"/><path d="M96.328,78.716h-16.4a.99.99,0,1,0,0,1.98h16.4a.99.99,0,1,0,0-1.98Z" transform="translate(-32.445 -27.571)"/><path d="M96.328,90.216h-16.4a.99.99,0,1,0,0,1.98h16.4a.99.99,0,1,0,0-1.98Z" transform="translate(-32.445 -32.567)"/></g></svg>