<svg xmlns="http://www.w3.org/2000/svg" width="49.606" height="49.606" viewBox="0 0 49.606 49.606"><defs><style>.a{fill:#f74a1e;}</style></defs><path d="M47.953,0H1.654A1.655,1.655,0,0,0,0,1.654v46.3a1.655,1.655,0,0,0,1.654,1.654h46.3a1.655,1.655,0,0,0,1.654-1.654V1.654A1.655,1.655,0,0,0,47.953,0ZM1.654,1.654h46.3V4.961H1.654Zm0,46.3V6.614h46.3V47.953H1.654Z"/><path class="a" d="M66.22,127.959H64.256V124.03a1.967,1.967,0,0,0-1.965-1.965H51.814v-3.274h1.965a1.967,1.967,0,0,0,1.965-1.965V112.9a1.967,1.967,0,0,0-1.965-1.965H48.54a1.967,1.967,0,0,0-1.965,1.965v3.929a1.967,1.967,0,0,0,1.965,1.965H50.5v3.274H40.027a1.967,1.967,0,0,0-1.965,1.965v3.929H36.1a1.967,1.967,0,0,0-1.965,1.965v3.929a1.967,1.967,0,0,0,1.965,1.965h5.239a1.967,1.967,0,0,0,1.965-1.965v-3.929a1.967,1.967,0,0,0-1.965-1.965H39.372V124.03a.656.656,0,0,1,.655-.655H50.5v4.584H48.54a1.967,1.967,0,0,0-1.965,1.965v3.929a1.967,1.967,0,0,0,1.965,1.965h5.239a1.967,1.967,0,0,0,1.965-1.965v-3.929a1.967,1.967,0,0,0-1.965-1.965H51.814v-4.584H62.291a.656.656,0,0,1,.655.655v3.929H60.982a1.967,1.967,0,0,0-1.965,1.965v3.929a1.967,1.967,0,0,0,1.965,1.965H66.22a1.967,1.967,0,0,0,1.965-1.965v-3.929A1.967,1.967,0,0,0,66.22,127.959Zm-24.884,1.31a.656.656,0,0,1,.655.655v3.929a.656.656,0,0,1-.655.655H36.1a.656.656,0,0,1-.655-.655v-3.929a.656.656,0,0,1,.655-.655h1.965v1.965a.655.655,0,1,0,1.31,0v-1.965Zm12.442,0a.656.656,0,0,1,.655.655v3.929a.656.656,0,0,1-.655.655H48.54a.656.656,0,0,1-.655-.655v-3.929a.656.656,0,0,1,.655-.655H50.5v1.965a.655.655,0,1,0,1.31,0v-1.965Zm-2.619-14.407a.655.655,0,0,0-.655.655v1.965H48.54a.656.656,0,0,1-.655-.655V112.9a.656.656,0,0,1,.655-.655h5.239a.656.656,0,0,1,.655.655v3.929a.656.656,0,0,1-.655.655H51.814v-1.965A.655.655,0,0,0,51.159,114.862Zm15.716,18.991a.656.656,0,0,1-.655.655H60.982a.656.656,0,0,1-.655-.655v-3.929a.656.656,0,0,1,.655-.655h1.965v1.965a.655.655,0,1,0,1.31,0v-1.965H66.22a.656.656,0,0,1,.655.655v3.929Z" transform="translate(-26.583 -96.834)"/></svg>