<svg xmlns="http://www.w3.org/2000/svg" width="55.406" height="49.151" viewBox="0 0 55.406 49.151">
  <g id="graphic-design" transform="translate(-8 -64)">
    <path id="Path_101546" data-name="Path 101546" d="M60.278,64H11.128A3.131,3.131,0,0,0,8,67.128v33.959a3.131,3.131,0,0,0,3.128,3.128H28.262l-1.276,4.468H23.192a.894.894,0,0,0-.894.894v2.681a.894.894,0,0,0,.894.894H48.214a.894.894,0,0,0,.894-.894v-2.681a.894.894,0,0,0-.894-.894H44.42l-1.276-4.468H60.278a3.131,3.131,0,0,0,3.128-3.128V67.128A3.131,3.131,0,0,0,60.278,64ZM47.321,110.47v.894H24.086v-.894Zm-18.475-1.787,1.276-4.468H41.285l1.276,4.468Zm32.773-7.6a1.342,1.342,0,0,1-1.34,1.34H11.128a1.342,1.342,0,0,1-1.34-1.34V98.852H61.619Zm0-4.021H9.787V67.128a1.342,1.342,0,0,1,1.34-1.34H60.278a1.342,1.342,0,0,1,1.34,1.34Z"/>
    <path id="Path_101555" data-name="Path 101555" d="M125.369,158.149l-1.7,3.4a.894.894,0,0,0,.8,1.293h8.936a.894.894,0,0,0,.8-1.293l-2.437-4.873a7.144,7.144,0,1,0-6.4,1.474Zm6.591,2.905h-6.045l1.342-2.684a7.105,7.105,0,0,0,3-.711Zm-3.759-4.572.736-1.472.526,1.051A5.324,5.324,0,0,1,128.2,156.482Zm-1.051-10.62a5.359,5.359,0,0,1,3.788,9.153l-1.2-2.4a.894.894,0,0,0-1.6,0l-1.944,3.887a5.361,5.361,0,0,1,.956-10.637Z" transform="translate(-99.489 -71.138)" fill="#f74a1e"/>
    <path id="Path_101556" data-name="Path 101556" d="M249.06,176.459l10.289,3.021a.892.892,0,0,0,1.109-.606l3.022-10.289a.894.894,0,0,0-.606-1.109l-10.289-3.021a.894.894,0,0,0-1.109.606l-3.022,10.289A.894.894,0,0,0,249.06,176.459Zm3.879-10.038,8.574,2.518L259,177.514,250.421,175Z" transform="translate(-213.562 -89.201)" fill="#f74a1e"/>
  </g>
</svg>
