<svg xmlns="http://www.w3.org/2000/svg" width="59.326" height="59.8" viewBox="0 0 59.326 59.8"><defs><style>.a{fill:#f74a1e;}</style></defs><g transform="translate(-0.5)"><path class="a" d="M52.275,201.378l4.311-2.82a.426.426,0,0,1,.246-.066.865.865,0,0,1,.787.82.575.575,0,0,1-.246.475l-3.443,2.262,3.443,2.262a.533.533,0,0,1,.246.475.848.848,0,0,1-.787.8.429.429,0,0,1-.246-.065l-4.311-2.82a.821.821,0,0,1-.361-.656A.85.85,0,0,1,52.275,201.378Zm0,0" transform="translate(-45.409 -175.309)"/><path class="a" d="M123.88,160.377a.479.479,0,0,1-.066.262l-6.017,12a.594.594,0,0,1-.541.311.634.634,0,0,1-.64-.606.657.657,0,0,1,.049-.246l6.033-12.05a.5.5,0,0,1,.492-.3A.669.669,0,0,1,123.88,160.377Zm0,0" transform="translate(-102.555 -141.095)"/><path class="a" d="M199.985,202.709l-4.312,2.82a.376.376,0,0,1-.229.066.835.835,0,0,1-.787-.8.561.561,0,0,1,.229-.475l3.459-2.262-3.459-2.262a.608.608,0,0,1-.229-.475.851.851,0,0,1,.787-.82.376.376,0,0,1,.229.066l4.312,2.82a.85.85,0,0,1,.36.672A.78.78,0,0,1,199.985,202.709Zm0,0" transform="translate(-171.48 -175.313)"/><path d="M34.8,129.717V111.025a3.721,3.721,0,0,0-3.716-3.716H4.216A3.721,3.721,0,0,0,.5,111.025v18.691a3.721,3.721,0,0,0,3.716,3.716h26.87A3.721,3.721,0,0,0,34.8,129.717Zm-32.551,0V111.025a1.967,1.967,0,0,1,1.965-1.965h26.87a1.967,1.967,0,0,1,1.965,1.965v18.691a1.967,1.967,0,0,1-1.965,1.965H4.216A1.967,1.967,0,0,1,2.252,129.717Zm0,0" transform="translate(0 -94.775)"/><path d="M369.056,368.055a4.565,4.565,0,0,0-4.56,4.56q0,.1,0,.194c0,.028,0,.057,0,.086a.885.885,0,0,0,.027.216,4.56,4.56,0,1,0,4.533-5.056Zm0,1.752a2.813,2.813,0,0,1,2.744,2.212h-5.488A2.812,2.812,0,0,1,369.056,369.807Zm0,5.616a2.812,2.812,0,0,1-2.559-1.652h5.118A2.811,2.811,0,0,1,369.056,375.422Zm0,0" transform="translate(-321.483 -325.067)"/><path d="M168.235,44.5h-.462a9.918,9.918,0,0,0-.589-1.406l.332-.332a2.445,2.445,0,0,0,0-3.456l-.851-.851a2.445,2.445,0,0,0-3.116-.284V3.733A3.737,3.737,0,0,0,159.815,0h-30.07a3.737,3.737,0,0,0-3.733,3.733V9.905a.876.876,0,0,0,1.752,0V7.8H161.8V38.314q-.162-.06-.325-.114v-.462a2.446,2.446,0,0,0-2.443-2.444h-1.2a2.446,2.446,0,0,0-2.443,2.444v.412a9.876,9.876,0,0,0-1.458.587l-.279-.279a2.443,2.443,0,0,0-3.456,0l-.851.851a2.444,2.444,0,0,0,0,3.456l.229.229a9.885,9.885,0,0,0-.643,1.508h-.306a2.446,2.446,0,0,0-2.443,2.443v.006h-18.41V41.286a.876.876,0,0,0-1.752,0v9.641a3.737,3.737,0,0,0,3.733,3.733h18.95a2.427,2.427,0,0,0,.641,1.126l.851.852a2.443,2.443,0,0,0,3.456,0l.175-.176a9.915,9.915,0,0,0,1.562.64v.255a2.446,2.446,0,0,0,2.443,2.444h1.2a2.446,2.446,0,0,0,2.443-2.444v-.305a9.912,9.912,0,0,0,1.508-.643l.229.229a2.443,2.443,0,0,0,3.456,0l.851-.851a2.443,2.443,0,0,0,0-3.456l-.28-.28a9.852,9.852,0,0,0,.587-1.458h.412a2.446,2.446,0,0,0,2.444-2.443v-1.2A2.446,2.446,0,0,0,168.235,44.5ZM127.764,6.047V3.733a1.983,1.983,0,0,1,1.981-1.981h30.07A1.983,1.983,0,0,1,161.8,3.733V6.047Zm0,44.879V48.7h18.473a2.447,2.447,0,0,0,2.38,1.89h.255a9.873,9.873,0,0,0,.64,1.562l-.176.175a2.456,2.456,0,0,0-.43.578H129.745A1.983,1.983,0,0,1,127.764,50.926Zm41.163-2.777a.692.692,0,0,1-.692.691h-.658a1.422,1.422,0,0,0-1.365,1.025,8.144,8.144,0,0,1-.639,1.588,1.428,1.428,0,0,0,.254,1.665l.45.45a.692.692,0,0,1,0,.978l-.851.851a.692.692,0,0,1-.978,0l-.4-.4a1.417,1.417,0,0,0-1.7-.237,8.113,8.113,0,0,1-1.625.694,1.43,1.43,0,0,0-1,1.364v.542a.692.692,0,0,1-.692.692h-1.2a.692.692,0,0,1-.692-.692v-.5a1.421,1.421,0,0,0-1.023-1.366,8.161,8.161,0,0,1-1.678-.687,1.4,1.4,0,0,0-.671-.171,1.435,1.435,0,0,0-1.007.418l-.348.348a.692.692,0,0,1-.978,0l-.852-.852a.678.678,0,0,1-.2-.489.815.815,0,0,1,.005-.089.667.667,0,0,0,.012-.068.681.681,0,0,1,.185-.332l.348-.348a1.423,1.423,0,0,0,.246-1.678,8.176,8.176,0,0,1-.687-1.678,1.422,1.422,0,0,0-1.367-1.024h-.5a.692.692,0,0,1-.692-.692v-1.2a.692.692,0,0,1,.692-.692h.542a1.431,1.431,0,0,0,1.364-1,8.122,8.122,0,0,1,.693-1.625,1.423,1.423,0,0,0-.237-1.7l-.4-.4a.692.692,0,0,1,0-.978l.852-.851a.691.691,0,0,1,.978,0l.45.45a1.434,1.434,0,0,0,1.006.417,1.391,1.391,0,0,0,.659-.164,8.158,8.158,0,0,1,1.587-.639,1.422,1.422,0,0,0,1.026-1.365v-.658a.692.692,0,0,1,.691-.692h1.2a.692.692,0,0,1,.691.692v.7a1.426,1.426,0,0,0,1,1.358,8.12,8.12,0,0,1,1.513.631l.045.024a1.418,1.418,0,0,0,1.664-.254l.5-.5a.692.692,0,0,1,.978,0l.851.851a.693.693,0,0,1,0,.978l-.5.505a1.426,1.426,0,0,0-.244,1.683,8.15,8.15,0,0,1,.645,1.539,1.426,1.426,0,0,0,1.358,1h.7a.692.692,0,0,1,.692.691Zm0,0" transform="translate(-110.852)"/></g></svg>