<svg xmlns="http://www.w3.org/2000/svg" width="66.355" height="45.437" viewBox="0 0 66.355 45.437"><defs><style>.a{stroke:#fff;stroke-width:0.3px;}</style></defs><g transform="translate(-15.847 -87.85)"><path class="a" d="M19.3,133.137H78.748a3.307,3.307,0,0,0,3.3-3.246,3.365,3.365,0,0,0-3.378-3.359H64.609l8.482-10.024a22.838,22.838,0,0,0,1.829-2.49c.058-.071,1.27-2.206,1.715-3.244l1-2.334a8.873,8.873,0,0,0,.45-5.616L77,98.486l1.4.467a1.1,1.1,0,0,0,1.127-.266l1.1-1.1a1.1,1.1,0,0,0,.322-.779V93.5a1.1,1.1,0,0,0-.609-.985L78.3,91.5l-2.522-2.522A3.336,3.336,0,0,0,73.419,88h-.141A3.329,3.329,0,0,0,70.8,89.11a4.642,4.642,0,0,0-2.636.984,4.585,4.585,0,0,0-1.472,2.115l-1.093,3.15a1.1,1.1,0,0,0,.022.757l1.022,2.556v2.54a1.1,1.1,0,0,0,1.1,1.1h2.2v1.247l-1.074.153h0l-4.007.572a4.34,4.34,0,0,0-3.726,4.3v4.435l-2.42,4.034L47.889,106.225A5.842,5.842,0,0,0,39,106.96L29.53,120.223l-2.976,1.984-4.219,1.055a1.1,1.1,0,0,0-.834,1.068v2.2H19.375A3.365,3.365,0,0,0,16,129.891,3.307,3.307,0,0,0,19.3,133.137ZM69.941,91.561v1.487l-.822-.822A2.439,2.439,0,0,1,69.941,91.561Zm-1.1,8.548V98.459a1.1,1.1,0,0,0-.079-.409l-.951-2.378.41-1.23,1.72,1.72v3.948Zm.4,8.432.665-2.661.006-.026.016-.071L71.2,105.6a1.1,1.1,0,0,0,.945-1.09V91.337A1.136,1.136,0,0,1,73.278,90.2h.141a1.126,1.126,0,0,1,.8.332l2.648,2.648a1.1,1.1,0,0,0,.286.206l1.593.8v2.166l-.3.3-.632-.211-2.083-2.045a1.1,1.1,0,0,0-1.827,1.1l2.039,7.866a6.659,6.659,0,0,1-.338,4.215l-1,2.334a20.655,20.655,0,0,1-1.17,2.314H72.114a2.959,2.959,0,0,1-2.871-3.677Zm-6.064,5.345a1.1,1.1,0,0,0,.157-.566v-4.74a2.139,2.139,0,0,1,1.836-2.117l2.408-.344-.472,1.888a5.158,5.158,0,0,0,4.842,6.408c-.176.227-.355.451-.54.669l-8.479,10.021-.2-1.19a10.748,10.748,0,0,0-2.432-5.232ZM40.8,108.24a3.64,3.64,0,0,1,5.536-.458L58.154,119.6a8.566,8.566,0,0,1,2.406,4.676l.376,2.252H55.079L44.436,111.609a1.1,1.1,0,0,0-1.86.044l-3.233,5.388-5.731,5.731-1.865-1.865Zm11.531,18.292H34.038l.536-1.607L41,118.5a1.107,1.107,0,0,0,.165-.212l2.408-4.013ZM23.7,125.189l3.57-.892a1.1,1.1,0,0,0,.344-.152l2.552-1.7,2.183,2.183-.635,1.9H23.7Zm-4.4,3.544H78.748a1.1,1.1,0,0,1,0,2.2H19.3a1.1,1.1,0,0,1,0-2.2Z" transform="translate(0)"/><path class="a" d="M425.366,327.051l-1.1,1.284a1.1,1.1,0,1,0,1.672,1.433l1.1-1.284a1.1,1.1,0,1,0-1.672-1.433Z" transform="translate(-351.857 -205.823)"/><path class="a" d="M451.567,280.384l-3.3,3.853a1.1,1.1,0,1,0,1.672,1.433l3.3-3.853a1.1,1.1,0,1,0-1.672-1.433Z" transform="translate(-372.554 -165.578)"/></g></svg>