<svg xmlns="http://www.w3.org/2000/svg" width="47.785" height="47.765" viewBox="0 0 47.785 47.765"><g transform="translate(0 -0.103)"><path d="M25.319,27.822a.7.7,0,1,0,1.4,0,2.06,2.06,0,0,0-2.127-2.136V25.3a.7.7,0,1,0-1.4,0v.387a2.059,2.059,0,0,0-2.127,2.136v.957a2.059,2.059,0,0,0,2.127,2.136v2.429a.664.664,0,0,1-.727-.736.7.7,0,1,0-1.4,0,2.063,2.063,0,0,0,2.127,2.136v.387a.7.7,0,0,0,1.4,0v-.387a2.067,2.067,0,0,0,2.127-2.136v-.957a2.059,2.059,0,0,0-2.127-2.136V27.086a.667.667,0,0,1,.727.736Zm-2.127,1.693a.664.664,0,0,1-.727-.736v-.957a.669.669,0,0,1,.727-.736Zm2.127,2.136v.957c-.006.46-.337.81-.727.736V30.915A.666.666,0,0,1,25.319,31.651Zm1.793-24.1a3.22,3.22,0,1,0-3.22,3.22A3.224,3.224,0,0,0,27.112,7.55Zm-5.04,0a1.82,1.82,0,1,1,1.82,1.82A1.822,1.822,0,0,1,22.072,7.55Zm1.82,14.645a8.02,8.02,0,1,0,8.02,8.02,8.03,8.03,0,0,0-8.02-8.02Zm0,14.641a6.621,6.621,0,1,1,6.621-6.621,6.628,6.628,0,0,1-6.621,6.621ZM44.646,18.161a2.867,2.867,0,0,0,3.138-2.8v-2.1a.7.7,0,0,0-.368-.616L25.589.545a3.48,3.48,0,0,0-3.394,0L13.389,5.427a.7.7,0,1,0,.679,1.224l8.807-4.882a2.088,2.088,0,0,1,2.036,0L44.378,12.562H3.406l7.772-4.309A.7.7,0,0,0,10.5,7.029L.368,12.645A.71.71,0,0,0,0,13.262v2.1a2.841,2.841,0,0,0,3.138,2.8L5.6,21.626V38.8L3.138,42.269H1.633A1.635,1.635,0,0,0,0,43.9v2.333a1.635,1.635,0,0,0,1.633,1.633H46.151a1.635,1.635,0,0,0,1.633-1.633V43.9a1.635,1.635,0,0,0-1.633-1.633H44.646L42.185,38.8V21.626ZM2.8,16.762a1.4,1.4,0,0,1-1.4-1.4v-1.4H46.384v1.4a1.4,1.4,0,0,1-1.4,1.4ZM35.861,30.816a.7.7,0,0,0,.7-.7V22.1h4.223V38.328H36.561V33.383a.7.7,0,1,0-1.4,0V38.8L32.7,42.269H15.084L12.623,38.8V21.626l2.461-3.464H32.7l2.461,3.464v8.49A.7.7,0,0,0,35.861,30.816ZM4.856,18.161h8.511L11.562,20.7h-4.9ZM11.223,22.1V38.328H7V22.1ZM6.661,39.728h4.9l1.805,2.541H4.856Zm39.49,3.941a.234.234,0,0,1,.233.233v2.333a.234.234,0,0,1-.233.233H1.633a.234.234,0,0,1-.233-.233V43.9a.234.234,0,0,1,.233-.233Zm-3.222-1.4H34.418l1.805-2.541h4.9ZM41.123,20.7h-4.9l-1.805-2.541h8.511Z" transform="translate(0 0)"/></g></svg>