<svg xmlns="http://www.w3.org/2000/svg" width="57.754" height="47.174" viewBox="0 0 57.754 47.174"><g transform="translate(0 0)"><g transform="translate(37.869 33.204)"><g transform="translate(0 0)"><path d="M337.668,341.58a1.128,1.128,0,0,0-1.6.016l-.032.033a1.128,1.128,0,0,0,1.612,1.579l.032-.033A1.128,1.128,0,0,0,337.668,341.58Z" transform="translate(-335.718 -341.258)"/></g></g><g transform="translate(42.574 17.575)"><g transform="translate(0 0)"><path d="M386.805,206.828h-3v-3a1.128,1.128,0,1,0-2.256,0v3h-3a1.128,1.128,0,1,0,0,2.256h3v3a1.128,1.128,0,1,0,2.256,0v-3h3a1.128,1.128,0,1,0,0-2.256Z" transform="translate(-377.426 -202.702)"/></g></g><g transform="translate(0 0)"><path d="M51.516,60.512A15.547,15.547,0,0,0,36.226,46.9a15.077,15.077,0,0,0-10.395,4.119A15.077,15.077,0,0,0,15.437,46.9,15.642,15.642,0,0,0,0,62.7a13.833,13.833,0,0,0,1.5,5.782H1.128a1.128,1.128,0,1,0,0,2.256H2.7a63.9,63.9,0,0,0,9.981,12.14A145.4,145.4,0,0,0,25.146,93.841a1.128,1.128,0,0,0,1.37,0c.048-.036,4.822-3.7,10.114-8.687a1.128,1.128,0,1,0-1.548-1.641c-4.035,3.8-7.761,6.821-9.251,8A144.6,144.6,0,0,1,14.259,81.266,67.1,67.1,0,0,1,5.353,70.742h10.1a1.128,1.128,0,0,0,1.084-.817l1.971-6.87,5.458,17.486a1.128,1.128,0,0,0,2.153,0l3.023-9.687h5.036a1.128,1.128,0,1,0,0-2.256H28.311a1.128,1.128,0,0,0-1.077.792l-2.193,7.028-5.5-17.632a1.128,1.128,0,0,0-2.161.025L14.6,68.486H4.018A12.828,12.828,0,0,1,2.256,62.7,13.384,13.384,0,0,1,15.437,49.155,12.9,12.9,0,0,1,25,53.383a1.128,1.128,0,0,0,1.658,0,12.9,12.9,0,0,1,9.565-4.228,13.263,13.263,0,0,1,12.9,10.73,9.929,9.929,0,1,0,2.394.626ZM47.828,77.4a7.67,7.67,0,1,1,7.67-7.67A7.679,7.679,0,0,1,47.828,77.4Z" transform="translate(0 -46.899)"/></g></g></svg>