<svg xmlns="http://www.w3.org/2000/svg" width="52.036" height="50.193" viewBox="0 0 52.036 50.193"><g transform="translate(0 -6.948)"><g transform="translate(6.972 48.704)"><path d="M55.522,323.474q-.025-.022-.051-.043c-.53-.44-1.061-.912-1.549-1.4a.793.793,0,0,0-1.119,1.125,20.3,20.3,0,0,0,1.655,1.5.8.8,0,0,0,1.065-1.183Z" transform="translate(-52.569 -321.801)"/></g><g transform="translate(0.163 26.741)"><g transform="translate(0 0)"><path d="M2.665,156.241a.8.8,0,0,0-1.055.679c-.159.727-.281,1.464-.371,2.2a.8.8,0,0,0,.674.891h.1a.8.8,0,0,0,.79-.7c.085-.69.2-1.385.35-2.058A.8.8,0,0,0,2.665,156.241Z" transform="translate(-1.232 -156.197)"/></g></g><g transform="translate(3.335 44.031)"><path d="M27.783,288.691c-.408-.562-.8-1.146-1.151-1.74a.8.8,0,0,0-1.091-.277h0a.8.8,0,0,0-.277,1.091v0c.382.637.8,1.263,1.236,1.862a.8.8,0,0,0,1.284-.939Z" transform="translate(-25.15 -286.562)"/></g><g transform="translate(0.938 38.594)"><path d="M9.332,248.114c-.255-.642-.488-1.305-.684-1.973a.8.8,0,0,0-.986-.543l-.022.007a.8.8,0,0,0-.53.987c.212.711.456,1.422.732,2.122a.8.8,0,1,0,1.491-.6Z" transform="translate(-7.076 -245.566)"/></g><g transform="translate(1.632 21.245)"><g transform="translate(0 0)"><path d="M14.345,114.838a.8.8,0,0,0-1.069.353c-.334.663-.642,1.347-.912,2.042a.795.795,0,0,0,1.478.582l0,0a19.133,19.133,0,0,1,.854-1.9A.8.8,0,0,0,14.345,114.838Z" transform="translate(-12.309 -114.753)"/></g></g><g transform="translate(0 32.757)"><g transform="translate(0 0)"><path d="M1.762,204.4v0c-.085-.69-.143-1.39-.17-2.08A.8.8,0,1,0,0,202.378a17.439,17.439,0,0,0,.18,2.228.8.8,0,0,0,.769.684h.122A.8.8,0,0,0,1.762,204.4Z" transform="translate(0 -201.553)"/></g></g><g transform="translate(19.063 8.338)"><g transform="translate(0 0)"><path d="M147.547,18.15a.8.8,0,0,0-.873-.719c-.737.074-1.48.18-2.212.324a.8.8,0,1,0,.149,1.591l-.005-.021h.154c.684-.133,1.379-.233,2.069-.3A.8.8,0,0,0,147.547,18.15Z" transform="translate(-143.738 -17.428)"/></g></g><g transform="translate(4.454 16.315)"><g transform="translate(0 0)"><path d="M36.254,77.781a.8.8,0,0,0-1.13.069c-.488.557-.955,1.146-1.39,1.751a.8.8,0,0,0,.642,1.263v.011a.8.8,0,0,0,.647-.329c.408-.562.843-1.114,1.3-1.634A.8.8,0,0,0,36.254,77.781Z" transform="translate(-33.582 -77.58)"/></g></g><g transform="translate(25.049 8.239)"><g transform="translate(0 0)"><path d="M191.941,16.92c-.732-.111-1.48-.191-2.223-.233a.8.8,0,1,0-.1,1.591c.7.053,1.4.127,2.08.233h.122a.8.8,0,1,0,.117-1.591Z" transform="translate(-188.873 -16.685)"/></g></g><g transform="translate(8.503 12.401)"><path d="M67.257,48.388a.8.8,0,0,0-1.071-.2c-.61.419-1.21.875-1.782,1.347a.8.8,0,0,0,1.019,1.225c.53-.446,1.093-.87,1.666-1.263A.8.8,0,0,0,67.257,48.388Z" transform="translate(-64.116 -48.064)"/></g><g transform="translate(13.513 9.632)"><path d="M107.82,45.653h0Z" transform="translate(-107.02 -43.203)"/><path d="M105.5,27.774a.8.8,0,0,0-1.087-.518,19.88,19.88,0,0,0-2.058.865.792.792,0,1,0,.663,1.438c.626-.3,1.273-.568,1.926-.806A.8.8,0,0,0,105.5,27.774Z" transform="translate(-101.892 -27.189)"/></g><g transform="translate(22.986 55.5)"><path d="M177.075,373.791a.8.8,0,0,0-.846-.745,19.626,19.626,0,0,1-2.09.048.8.8,0,0,0-.042,1.591h.674c.53,0,1.061,0,1.56-.048A.8.8,0,0,0,177.075,373.791Z" transform="translate(-173.322 -373.044)"/></g><g transform="translate(45.947 37.788)"><path d="M348.068,239.514a.8.8,0,0,0-.968.576c-.17.674-.377,1.342-.61,1.995a.794.794,0,0,0,1.5.522v0c.249-.7.467-1.416.653-2.122A.8.8,0,0,0,348.068,239.514Z" transform="translate(-346.447 -239.489)"/></g><g transform="translate(46.564 25.95)"><path d="M353.119,152.981c-.122-.732-.276-1.469-.462-2.186a.8.8,0,0,0-1.538.4c.175.668.318,1.358.435,2.042a.8.8,0,0,0,.775.652h.133A.8.8,0,0,0,353.119,152.981Z" transform="translate(-351.099 -150.23)"/></g><g transform="translate(5.673 6.948)"><g transform="translate(0 0)"><path d="M89.067,19.568a.772.772,0,0,0-.151-.219L87.51,17.885a.769.769,0,0,0-.769-.191l-2.536.769-2.971-3.151L87.9,11.6a.774.774,0,0,0,.228-1.247L86.258,8.479a.775.775,0,0,0-.769-.18l-8.451,2.557L74.195,7.838a2.573,2.573,0,0,0-2.928-.695h-.048a3.13,3.13,0,0,0-1.7,1.7,2.867,2.867,0,0,0-.17.626l-.324-.111a.8.8,0,0,0-.488,1.517c.408.133.817.281,1.225.435a3.055,3.055,0,0,0,.43.53l3,2.843-.859,2.838a18.694,18.694,0,1,0,3.952,3.809l1.358-2.451,3.151,2.971-.759,2.509a.769.769,0,0,0,.186.785s1.554,1.538,1.591,1.591a.769.769,0,0,0,1.051-.28l.01-.017,2.074-3.8L88.688,20.6A.775.775,0,0,0,89.067,19.568ZM49.458,20.617A17.035,17.035,0,0,1,61.516,15.63q.531,0,1.061.032c3.008,2.774,2.122,5.3.106,7.586a37.237,37.237,0,0,1-3.82,3.522c-1.958,1.666-3.782,3.22-4.472,4.774-.817,1.846-.218,3.517,3.082,4.976a8.673,8.673,0,0,1,2.9,1.729.085.085,0,0,0,.015.014l-.037.012a6.593,6.593,0,0,1-2.5.43c-4,.17-6.849-2.387-9.061-4.366-1.591-1.416-2.912-2.594-4.286-2.6A17.034,17.034,0,0,1,49.458,20.617ZM78.63,32.7h.005A17.1,17.1,0,0,1,66.853,48.95a5.565,5.565,0,0,1,.653-3.613,13.152,13.152,0,0,1,3.183-3.5c4.9-4.085,5.172-6.366,5.384-8.122.133-1.109.233-1.936,2.424-3.14A17.284,17.284,0,0,1,78.63,32.7Zm-.987-5.74A16.925,16.925,0,0,1,78.226,29c-3.337,1.7-3.485,2.907-3.687,4.557-.18,1.485-.414,3.427-4.838,7.119a14.51,14.51,0,0,0-3.554,3.942,7.035,7.035,0,0,0-.8,4.737A17.092,17.092,0,0,1,44.461,33.3c.843,0,1.936,1,3.278,2.2,2.43,2.17,5.538,4.939,10.169,4.774a7.957,7.957,0,0,0,3.183-.6,1.592,1.592,0,0,0,.881-1,1.517,1.517,0,0,0-.382-1.385,9.908,9.908,0,0,0-3.469-2.17c-2.244-.992-2.732-1.958-2.292-2.944.53-1.241,2.239-2.652,4.053-4.244a38.616,38.616,0,0,0,3.984-3.713c2.217-2.525,3.358-5.278,1.1-8.292a16.975,16.975,0,0,1,6.9,3.135l-1.22,4.026a.774.774,0,0,0,.186.785s1.979,1.963,2.042,2a.769.769,0,0,0,1.051-.28l.01-.017,1.544-2.79A17.056,17.056,0,0,1,77.643,26.961Zm7.114-5.926-.684.34a.764.764,0,0,0-.35.355l-.34.69-1.321,2.387-.387-.424.769-2.541a.769.769,0,0,0-.249-.817l-4.186-3.942a.769.769,0,0,0-1.088.01l-.021.022c-.053.058-3.82,6.843-3.82,6.843l-.822-.822,2.568-8.461a.769.769,0,0,0-.249-.822l-3.331-3.135a1.1,1.1,0,0,1-.3-1.273,1.666,1.666,0,0,1,.865-.859h.027a1.1,1.1,0,0,1,1.241.318l3.183,3.363a.769.769,0,0,0,.785.212l8.488-2.562.822.822-6.737,3.7a.769.769,0,0,0-.307,1.044l.01.017c.032.058,4.09,4.377,4.09,4.377a.769.769,0,0,0,.785.207l2.552-.769.4.4Z" transform="translate(-42.775 -6.948)"/></g></g><g transform="translate(43.271 43.295)"><path d="M328.6,281.123l-.035-.019a.8.8,0,0,0-1.061.313c-.334.61-.7,1.21-1.093,1.782a.8.8,0,1,0,1.3.918c.414-.615.806-1.257,1.167-1.9A.8.8,0,0,0,328.6,281.123Z" transform="translate(-326.269 -281.013)"/></g><g transform="translate(47.216 31.789)"><g transform="translate(0 0)"><path d="M356.924,194.255a.8.8,0,0,0-.807.785c0,.011,0,.021,0,.032v.09c0,.695-.032,1.4-.1,2.09a.8.8,0,0,0,.72.865h.076a.8.8,0,0,0,.8-.737c.069-.737.1-1.485.1-2.228v-.106A.8.8,0,0,0,356.924,194.255Z" transform="translate(-356.019 -194.255)"/></g></g><g transform="translate(17.083 54.64)"><path d="M131.908,367.067a16.428,16.428,0,0,1-2.037-.467.8.8,0,0,0-.528,1.5.806.806,0,0,0,.093.027c.711.2,1.443.377,2.175.53h.149a.8.8,0,0,0,.149-1.592Z" transform="translate(-128.811 -366.555)"/></g><g transform="translate(28.895 54.389)"><path d="M221.473,365.186a.8.8,0,0,0-.965-.49v.021a15.807,15.807,0,0,1-2.011.53.8.8,0,1,0,.35,1.554c.721-.164,1.448-.366,2.154-.594A.8.8,0,0,0,221.473,365.186Z" transform="translate(-217.876 -364.665)"/></g><g transform="translate(11.67 52.315)"><path d="M91.048,350.13c-.631-.313-1.252-.653-1.851-.992a.8.8,0,1,0-.806,1.374c.642.377,1.305.727,1.979,1.061a.8.8,0,0,0,.679-1.443Z" transform="translate(-87.997 -349.029)"/></g><g transform="translate(39.357 48.09)"><path d="M299.626,317.379a.8.8,0,0,0-1.111.037h.005a19.34,19.34,0,0,1-1.5,1.459.8.8,0,0,0,1.061,1.188c.531-.493,1.093-1.019,1.591-1.56A.8.8,0,0,0,299.626,317.379Z" transform="translate(-296.758 -317.171)"/></g><g transform="translate(34.463 51.88)"><path d="M263.231,346.134a.8.8,0,0,0-1.091-.275l-.037.024v-.021c-.584.371-1.194.721-1.809,1.061a.8.8,0,0,0,.727,1.416c.658-.34,1.31-.716,1.936-1.114A.8.8,0,0,0,263.231,346.134Z" transform="translate(-259.861 -345.746)"/></g></g></svg>