<svg xmlns="http://www.w3.org/2000/svg" width="50.868" height="43.867" viewBox="0 0 50.868 43.867"><g transform="translate(0 -36)"><path d="M125.406,205.87c4.2,0,8.445-1.365,8.445-3.974v-5.647l3.974-1.766v10.393a.994.994,0,0,0,1.987,0V192.954a.99.99,0,0,0-.608-.916l-13.394-5.953a.993.993,0,0,0-.807,0l-13.412,5.961a.994.994,0,0,0,0,1.816l5.371,2.387V201.9c0,2.609,4.248,3.974,8.445,3.974Zm6.458-3.974c0,.594-2.2,1.987-6.458,1.987s-6.458-1.393-6.458-1.987v-4.763L125,199.823a.995.995,0,0,0,.807,0l6.054-2.691Zm-17.424-8.941,10.966-4.874,10.966,4.874-10.966,4.874Z" transform="translate(-99.972 -135.097)"/><path d="M49.874,36H.994A.993.993,0,0,0,0,36.994V78.721a.994.994,0,0,0,.994.994h19.97a.994.994,0,1,0,0-1.987H1.987v-30.8H48.881v30.8H29.9a.994.994,0,0,0,0,1.987h19.97a.994.994,0,0,0,.994-.994V36.994A.994.994,0,0,0,49.874,36Zm-.994,8.942H1.987V37.987H30.4v1.987a.994.994,0,0,0,1.987,0V37.987h3.974v1.987a.994.994,0,0,0,1.987,0V37.987h3.974v1.987a.994.994,0,0,0,1.987,0V37.987h4.57Z"/><circle cx="1" cy="1" r="1" transform="translate(24.435 77.867)"/></g></svg>