<svg xmlns="http://www.w3.org/2000/svg" width="67.978" height="51.102" viewBox="0 0 67.978 51.102"><defs><style>.a{stroke:#000;stroke-width:0.3px;}.b{fill:none;stroke:#f74a1e;}</style></defs><g transform="translate(-326.318 -1082.197)"><g transform="translate(210.318 1072.197)"><path d="M235.666,433.079a2.357,2.357,0,1,0-2.357-2.357A2.357,2.357,0,0,0,235.666,433.079Zm0-3.467a1.11,1.11,0,1,1-1.11,1.11A1.11,1.11,0,0,1,235.666,429.611Z" transform="translate(-105.125 -374.912)"/><path d="M119.8,61.1h21.384a3.8,3.8,0,0,0,3.8-3.8V13.8a3.8,3.8,0,0,0-3.8-3.8H119.8a3.8,3.8,0,0,0-3.8,3.8V57.3a3.8,3.8,0,0,0,3.8,3.8Zm-2.551-43.831h3.843a.623.623,0,0,0,0-1.246h-3.843V13.8a2.592,2.592,0,0,1,2.595-2.551h21.4a2.592,2.592,0,0,1,2.595,2.551v2.227H125.452a.623.623,0,0,0,0,1.246h18.384V51.234H117.246Zm0,35.21h26.589V57.3a2.592,2.592,0,0,1-2.595,2.551h-21.4a2.592,2.592,0,0,1-2.595-2.551Z"/><path d="M158.954,306.246h9.521a.623.623,0,0,0,0-1.246h-9.521a.623.623,0,0,0,0,1.246Z" transform="translate(-37.934 -264.36)"/><path d="M178,336H158.954a.623.623,0,1,0,0,1.246H178A.623.623,0,1,0,178,336Z" transform="translate(-37.934 -292.14)"/><path d="M178,366H158.954a.623.623,0,0,0,0,1.246H178A.623.623,0,0,0,178,366Z" transform="translate(-37.934 -319.024)"/><path d="M176.942,100H157.623a.623.623,0,0,0-.623.623V118.28a.623.623,0,0,0,.623.623h19.319a.623.623,0,0,0,.623-.623V100.623A.623.623,0,0,0,176.942,100Zm-1.605,1.246-8.054,7.346-8.054-7.346Zm-17.09.806,8.114,7.4-8.114,7.4Zm.982,15.6,8.054-7.346,8.054,7.346Zm17.09-.8-8.114-7.4,8.114-7.4Z" transform="translate(-36.742 -80.652)"/></g><g transform="translate(249.318 1072.197)"><path d="M235.666,433.079a2.357,2.357,0,1,0-2.357-2.357A2.357,2.357,0,0,0,235.666,433.079Zm0-3.467a1.11,1.11,0,1,1-1.11,1.11A1.11,1.11,0,0,1,235.666,429.611Z" transform="translate(-105.125 -374.912)"/><path d="M119.8,61.1h21.384a3.8,3.8,0,0,0,3.8-3.8V13.8a3.8,3.8,0,0,0-3.8-3.8H119.8a3.8,3.8,0,0,0-3.8,3.8V57.3a3.8,3.8,0,0,0,3.8,3.8Zm-2.551-43.831h3.843a.623.623,0,0,0,0-1.246h-3.843V13.8a2.592,2.592,0,0,1,2.595-2.551h21.4a2.592,2.592,0,0,1,2.595,2.551v2.227H125.452a.623.623,0,0,0,0,1.246h18.384V51.234H117.246Zm0,35.21h26.589V57.3a2.592,2.592,0,0,1-2.595,2.551h-21.4a2.592,2.592,0,0,1-2.595-2.551Z"/><path d="M178,336H158.954a.623.623,0,1,0,0,1.246H178A.623.623,0,1,0,178,336Z" transform="translate(-37.934 -292.14)"/><path d="M178,366H158.954a.623.623,0,0,0,0,1.246H178A.623.623,0,0,0,178,366Z" transform="translate(-37.934 -319.024)"/><path class="a" d="M166.234,100h-8.945a.289.289,0,0,0-.289.289v8.176a.289.289,0,0,0,.289.289h8.945a.289.289,0,0,0,.289-.289v-8.176A.289.289,0,0,0,166.234,100Zm-.743.577-3.729,3.4-3.729-3.4Zm-7.913.373,3.757,3.427-3.757,3.427Zm.455,7.226,3.729-3.4,3.729,3.4Zm7.913-.372-3.757-3.427,3.757-3.427Z" transform="translate(-36.22 -78.577)"/><path d="M178,336H158.954a.623.623,0,1,0,0,1.246H178A.623.623,0,1,0,178,336Z" transform="translate(-37.935 -296.141)"/><path d="M178,336H158.954a.623.623,0,1,0,0,1.246H178A.623.623,0,1,0,178,336Z" transform="translate(-37.935 -299.141)"/><path d="M178,336H158.954a.623.623,0,1,0,0,1.246H178A.623.623,0,1,0,178,336Z" transform="translate(-37.935 -303.141)"/></g><path class="b" d="M-8294.853,11169.284h3.612v-17.368h4.509" transform="translate(8651 -10051)"/></g></svg>