<svg xmlns="http://www.w3.org/2000/svg" width="47.682" height="47.676" viewBox="0 0 47.682 47.676"><g transform="translate(2.523 5.49)"><g transform="translate(5.687 25.61)"><path d="M74.692,291.585H71.85v-2.842a.711.711,0,0,0-.711-.711H68.3a.711.711,0,0,0-.711.711v2.842H64.744a.711.711,0,0,0-.711.71v2.842a.711.711,0,0,0,.711.71h2.842v2.842a.711.711,0,0,0,.711.71h2.842a.711.711,0,0,0,.711-.71v-2.842h2.842a.711.711,0,0,0,.71-.71V292.3A.711.711,0,0,0,74.692,291.585Zm-.711,2.842H71.139a.711.711,0,0,0-.71.711v2.842H69.008v-2.842a.711.711,0,0,0-.71-.711H65.455v-1.421H68.3a.711.711,0,0,0,.71-.71v-2.842h1.421V292.3a.711.711,0,0,0,.71.71h2.842Z" transform="translate(-64.034 -288.032)"/></g><g transform="translate(-2.523 -5.49)"><g transform="translate(0 0)"><path d="M47.6,33.542A13.425,13.425,0,0,0,36.367,22.36a13.191,13.191,0,0,0-1.4-.079h-8.74V19.1H24.636V17.513a3.178,3.178,0,0,0-3.178-3.178H17.484a1.589,1.589,0,1,1,0-3.178H30.2a3.178,3.178,0,0,0,0-6.357H26.225A1.589,1.589,0,0,1,24.636,3.21V.032H23.047V3.21a3.178,3.178,0,0,0,3.178,3.178H30.2a1.589,1.589,0,0,1,0,3.178H17.484a3.178,3.178,0,1,0,0,6.357h3.973a1.589,1.589,0,0,1,1.589,1.589V19.1H21.457V22.28h-8.74a12.962,12.962,0,0,0-1.4.079A13.426,13.426,0,0,0,.084,33.546,12.713,12.713,0,0,0,19.408,45.8,7.782,7.782,0,0,1,22.9,44.568a12.255,12.255,0,0,1,1.847-.006,7.841,7.841,0,0,1,3.542,1.246A12.713,12.713,0,0,0,47.6,33.542ZM23.047,20.691h1.589V22.28H23.047ZM43.257,42.41a11.117,11.117,0,0,1-14.134,2.046,9.376,9.376,0,0,0-4.266-1.48q-.5-.036-1.015-.037c-.362,0-.715.015-1.071.043a9.347,9.347,0,0,0-4.2,1.467,11.124,11.124,0,0,1-16.9-10.727,11.912,11.912,0,0,1,9.821-9.782,11.43,11.43,0,0,1,1.232-.071H34.965a11.688,11.688,0,0,1,1.232.066,11.915,11.915,0,0,1,9.821,9.782A11.045,11.045,0,0,1,43.257,42.41Z" transform="translate(0 -0.032)"/></g></g><g transform="translate(28.423 24.189)"><path d="M322.876,272.032a2.842,2.842,0,1,0,2.842,2.842A2.842,2.842,0,0,0,322.876,272.032Zm0,4.263a1.421,1.421,0,1,1,1.421-1.421A1.421,1.421,0,0,1,322.876,276.3Z" transform="translate(-320.034 -272.032)"/></g><g transform="translate(28.423 32.715)"><path d="M322.876,368.032a2.842,2.842,0,1,0,2.842,2.842A2.842,2.842,0,0,0,322.876,368.032Zm0,4.263a1.421,1.421,0,1,1,1.421-1.421A1.421,1.421,0,0,1,322.876,372.295Z" transform="translate(-320.034 -368.032)"/></g><g transform="translate(23.45 28.452)"><path d="M266.876,320.032a2.842,2.842,0,1,0,2.842,2.842A2.842,2.842,0,0,0,266.876,320.032Zm0,4.263a1.421,1.421,0,1,1,1.421-1.421A1.421,1.421,0,0,1,266.876,324.3Z" transform="translate(-264.034 -320.032)"/></g><g transform="translate(33.397 28.452)"><path d="M378.876,320.032a2.842,2.842,0,1,0,2.842,2.842A2.842,2.842,0,0,0,378.876,320.032Zm0,4.263a1.421,1.421,0,1,1,1.421-1.421A1.421,1.421,0,0,1,378.876,324.3Z" transform="translate(-376.034 -320.032)"/></g></g></svg>