<svg xmlns="http://www.w3.org/2000/svg" width="56.066" height="56.065" viewBox="0 0 56.066 56.065"><defs><style>.a{stroke:#fff;stroke-width:0.2px;}.b{fill:#fff;stroke:#f74a1e;stroke-width:1.4px;}.c{stroke:none;}.d{fill:none;}</style></defs><g transform="translate(-1.9 -1.896)"><path class="a" d="M20.792,23.827h-8.55a.929.929,0,0,0-.658.273L8.132,27.551H7.415a2.793,2.793,0,1,0,0,1.862h1.1a.929.929,0,0,0,.658-.273l3.451-3.451h8.165a2.765,2.765,0,0,0,4.46,1.154l3.794,2.111a2.759,2.759,0,0,0-.047.459,2.793,2.793,0,0,0,5.586,0,2.759,2.759,0,0,0-.047-.459l3.794-2.111a2.769,2.769,0,0,0,1.839.708,2.786,2.786,0,0,0,.931-5.415V18.069a2.785,2.785,0,1,0-2.77-4.707l-3.794-2.111a2.737,2.737,0,0,0,.047-.458,2.793,2.793,0,1,0-5.586,0,2.759,2.759,0,0,0,.047.459l-3.794,2.111a2.765,2.765,0,0,0-4.46,1.154H12.627L9.175,11.066a.929.929,0,0,0-.658-.273h-1.1a2.793,2.793,0,1,0,0,1.862h.717l3.451,3.451a.929.929,0,0,0,.658.273h8.55a2.79,2.79,0,0,0,1.691,1.691v1.1H7.415a2.793,2.793,0,1,0,0,1.862H22.482v1.1a2.79,2.79,0,0,0-1.691,1.691Zm-16,5.586a.931.931,0,1,1,.931-.931A.933.933,0,0,1,4.793,29.413Zm0-16.758a.931.931,0,1,1,.931-.931A.933.933,0,0,1,4.793,12.655Zm0,8.379a.931.931,0,1,1,.931-.931A.933.933,0,0,1,4.793,21.034Zm18.62,4.655a.931.931,0,1,1,.931-.931A.933.933,0,0,1,23.413,25.689Zm1.839-8.156,3.794,2.111a2.286,2.286,0,0,0,0,.918l-3.794,2.111a2.8,2.8,0,0,0-.908-.536V18.069a2.754,2.754,0,0,0,.908-.535Zm13.081,5.139-3.794-2.111a2.286,2.286,0,0,0,0-.918l3.794-2.111a2.8,2.8,0,0,0,.908.536v4.068A2.754,2.754,0,0,0,38.333,22.673ZM26.16,24.3l3.794-2.111a2.8,2.8,0,0,0,.908.536v4.068a2.772,2.772,0,0,0-.908.536L26.16,25.218a2.291,2.291,0,0,0,0-.919Zm5.633-5.127a.931.931,0,1,1-.931.931A.933.933,0,0,1,31.792,19.172Zm.931,3.553a2.772,2.772,0,0,0,.908-.536L37.425,24.3a2.286,2.286,0,0,0,0,.918l-3.794,2.111a2.8,2.8,0,0,0-.908-.536Zm4.7-6.818-3.794,2.111a2.8,2.8,0,0,0-.908-.536V13.414a2.772,2.772,0,0,0,.908-.536l3.794,2.111a2.291,2.291,0,0,0,0,.919Zm-6.564,1.574a2.772,2.772,0,0,0-.908.536L26.16,15.907a2.286,2.286,0,0,0,0-.918l3.794-2.111a2.8,2.8,0,0,0,.908.536Zm.931,12.863a.931.931,0,1,1,.931-.931A.933.933,0,0,1,31.792,30.344Zm8.379-4.655a.931.931,0,1,1,.931-.931A.933.933,0,0,1,40.172,25.689Zm0-11.172a.931.931,0,1,1-.931.931A.933.933,0,0,1,40.172,14.517ZM31.792,9.862a.931.931,0,1,1-.931.931A.933.933,0,0,1,31.792,9.862Zm-8.379,4.655a.931.931,0,1,1-.931.931A.933.933,0,0,1,23.413,14.517Z" transform="translate(0 -0.414)"/><path class="a" d="M22.293,57.861h14.9a.931.931,0,0,0,.931-.931V50.413h12.1a.931.931,0,0,0,.931-.931V38.31h6.517A.932.932,0,0,0,58.56,37.1L53.918,22.247A20.935,20.935,0,0,0,31.741,2.037a21.031,21.031,0,0,0-16.377,9.7l1.568,1A19.165,19.165,0,0,1,31.851,3.9,19.074,19.074,0,0,1,52.063,22.528a.891.891,0,0,0,.131.444L56.4,36.448H50.223a.931.931,0,0,0-.931.931V41.1H46.5a2.8,2.8,0,0,1-2.793-2.793H41.844A4.66,4.66,0,0,0,46.5,42.965h2.793v5.586h-12.1a.931.931,0,0,0-.931.931V56H23.224v-.9a43.054,43.054,0,0,0-6.549-22.274,18.914,18.914,0,0,1-2.129-4.994l-1.8.477a20.777,20.777,0,0,0,2.339,5.486A41.2,41.2,0,0,1,21.362,55.1V56.93a.931.931,0,0,0,.931.931Z" transform="translate(-0.741 0)"/><g class="b" transform="translate(28.93 16.931)"><circle class="c" cx="3" cy="3" r="3"/><circle class="d" cx="3" cy="3" r="2.3"/></g></g></svg>