<svg xmlns="http://www.w3.org/2000/svg" width="54.434" height="69.398" viewBox="0 0 54.434 69.398"><defs><style>.a,.b{stroke:#fff;stroke-width:0.3px;}.b{fill:#f74a1e;}</style></defs><g transform="translate(0.158 0.15)"><path class="a" d="M.209,43.273a1.151,1.151,0,0,0,.942.489H9.212v13.82a1.152,1.152,0,0,0,1.152,1.152H25.335V69.1h2.3V57.581a1.152,1.152,0,0,0-1.152-1.152H11.515V42.61a1.152,1.152,0,0,0-1.152-1.152H2.791L16.928,2.3H51.822V69.1h2.3V1.152A1.152,1.152,0,0,0,52.974,0H16.122a1.151,1.151,0,0,0-1.082.76L.068,42.219a1.152,1.152,0,0,0,.141,1.054Zm0,0" transform="translate(0)"/><path class="a" d="M167.532,67.24a11.365,11.365,0,0,0-8.373-3.246A11.59,11.59,0,0,0,148,75.546a11.448,11.448,0,0,0,5.758,9.921v5.009a3.455,3.455,0,0,0,3.455,3.455h4.606a3.455,3.455,0,0,0,3.455-3.455V85.467a11.5,11.5,0,0,0,2.261-18.228ZM156.057,85.877l3.992.026-3.992,2.5Zm5.758,5.75h-4.606a1.141,1.141,0,0,1-1-.609l6.755-4.228v3.685A1.152,1.152,0,0,1,161.816,91.628Zm2-8-8.7-.058a9.151,9.151,0,0,1-4.812-8.028,9.271,9.271,0,0,1,8.927-9.246h.288a9.2,9.2,0,0,1,4.3,17.333Zm0,0" transform="translate(-126.692 -54.776)"/><path class="b" d="M220,32h2.3v2.3H220Zm0,0" transform="translate(-188.327 -27.393)"/><path class="b" d="M167.074,43.62l1.995-1.152,1.152,1.995-1.995,1.152Zm0,0" transform="translate(-143.024 -36.355)"/><path class="b" d="M130.465,81.069l1.152-2,1.995,1.152-1.152,1.995Zm0,0" transform="translate(-111.684 -67.691)"/><path class="b" d="M303.672,181.073l1.152-2,1.995,1.152-1.152,2Zm0,0" transform="translate(-259.958 -153.299)"/><path class="b" d="M120,132h2.3v2.3H120Zm0,0" transform="translate(-102.723 -112.998)"/><path class="b" d="M320,132h2.3v2.3H320Zm0,0" transform="translate(-273.932 -112.998)"/><path class="b" d="M130.473,180.221l1.995-1.151,1.152,1.995-2,1.152Zm0,0" transform="translate(-111.691 -153.293)"/><path class="b" d="M303.664,80.226l2-1.152,1.152,2-2,1.151Zm0,0" transform="translate(-259.951 -67.691)"/><path class="b" d="M267.07,44.463l1.152-1.995,1.995,1.152-1.152,1.995Zm0,0" transform="translate(-228.625 -36.355)"/></g></svg>