<svg xmlns="http://www.w3.org/2000/svg" width="68.982" height="68.982" viewBox="0 0 68.982 68.982"><defs><style>.a,.b{stroke:#fff;stroke-width:0.4px;}.b{fill:#f74a1e;}</style></defs><g transform="translate(0.2 0.2)"><path class="a" d="M68.19,12.58,56,.392A1.339,1.339,0,0,0,55.053,0H15.27a4.023,4.023,0,0,0-4.018,4.018V6.572A17.723,17.723,0,0,0,0,23.051a1.34,1.34,0,0,0,1.339,1.339H17.693a1.34,1.34,0,0,0,1.339-1.339V6.7a1.34,1.34,0,0,0-1.339-1.339,17.686,17.686,0,0,0-3.763.4V4.018A1.341,1.341,0,0,1,15.27,2.679H53.714V10.85a4.023,4.023,0,0,0,4.018,4.018H65.9v49.7A1.341,1.341,0,0,1,64.564,65.9H15.27a1.341,1.341,0,0,1-1.339-1.339V53.089a1.339,1.339,0,1,0-2.679,0V64.564a4.023,4.023,0,0,0,4.018,4.018H64.564a4.023,4.023,0,0,0,4.018-4.018V13.527A1.339,1.339,0,0,0,68.19,12.58ZM16.354,8.1V21.712H2.738A15.04,15.04,0,0,1,16.354,8.1Zm41.378,4.093a1.341,1.341,0,0,1-1.339-1.339V4.573l7.617,7.616Z"/><g transform="translate(11.252 46.882)"><path class="a" d="M86.286,350.392a1.338,1.338,0,1,0,.393.947A1.349,1.349,0,0,0,86.286,350.392Z" transform="translate(-84 -350)"/></g><g transform="translate(4.798 10.156)"><path class="a" d="M53.512,75.819a1.34,1.34,0,0,0-1.339,1.339V92.173H37.158a1.34,1.34,0,0,0-1.339,1.339A17.693,17.693,0,1,0,53.512,75.819Zm1.339,2.738A14.947,14.947,0,0,1,63.135,82l-8.283,8.283Zm-1.339,29.97A15.035,15.035,0,0,1,38.557,94.852H53.512a1.335,1.335,0,0,0,.947-.392h0l10.57-10.57a15.007,15.007,0,0,1-11.517,24.637Z" transform="translate(-35.819 -75.819)"/></g><g transform="translate(20.615 42.275)"><path class="b" d="M191.969,315.6a4.018,4.018,0,0,0-3.7,5.585l-7.717,7.717a4.011,4.011,0,0,0-3.47-.018l-5.125-5.125a4.019,4.019,0,1,0-7.39.22l-4.915,4.915a4.019,4.019,0,1,0,1.9,1.892l4.888-4.888a4.005,4.005,0,0,0,3.763-.109l4.98,4.98a4.019,4.019,0,1,0,7.255.039l7.645-7.645a4.018,4.018,0,1,0,1.89-7.563Zm-34.046,18.262a1.34,1.34,0,1,1,.927-2.3l.016.017.02.018a1.338,1.338,0,0,1-.962,2.269Zm10.291-10.225a1.339,1.339,0,1,1,1.34-1.339A1.341,1.341,0,0,1,168.214,323.642ZM178.8,333.861a1.339,1.339,0,1,1,1.339-1.339A1.341,1.341,0,0,1,178.8,333.861Zm13.172-12.9a1.339,1.339,0,1,1,1.339-1.34A1.341,1.341,0,0,1,191.969,320.963Z" transform="translate(-153.905 -315.605)"/></g><g transform="translate(43.575 31.478)"><path class="a" d="M333.72,235h-7.07a1.339,1.339,0,1,0,0,2.679h7.07a1.339,1.339,0,1,0,0-2.679Z" transform="translate(-325.311 -235)"/></g><g transform="translate(56.744 31.478)"><path class="a" d="M425.906,235.392a1.338,1.338,0,1,0,.393.947A1.349,1.349,0,0,0,425.906,235.392Z" transform="translate(-423.62 -235)"/></g><g transform="translate(43.575 18.619)"><path class="a" d="M343.013,139H326.65a1.339,1.339,0,1,0,0,2.679h16.362a1.339,1.339,0,0,0,0-2.679Z" transform="translate(-325.311 -139)"/></g><g transform="translate(43.575 25.049)"><path class="a" d="M343.013,187H326.65a1.339,1.339,0,1,0,0,2.679h16.362a1.339,1.339,0,0,0,0-2.679Z" transform="translate(-325.311 -187)"/></g></g></svg>