<svg xmlns="http://www.w3.org/2000/svg" width="52.097" height="52.097" viewBox="0 0 52.097 52.097"><defs><style>.a,.b{stroke:#fff;stroke-width:0.3px;}.b{fill:#f74a1e;}</style></defs><g transform="translate(-0.85 -0.85)"><path class="a" d="M52.8,16.038V4.342a1.673,1.673,0,0,0-1.671-1.671H32.746a1.673,1.673,0,0,0-1.671,1.671H12.4A5.016,5.016,0,0,0,7.683,1,6.681,6.681,0,0,0,6.211,14.2L2.82,23.013a2.245,2.245,0,0,0,2.1,3.05h1.1v5.426a4.6,4.6,0,0,0,5.6,4.49l4.428-.984V38.71A16.981,16.981,0,0,0,7.685,51.893l-.074.9H32.746V45.278a5.828,5.828,0,0,0-1.774-4.188c.035,0,.068.011.1.011h20.05A1.673,1.673,0,0,0,52.8,39.43v-11.7a1.673,1.673,0,0,0-1.671-1.671H36.04a10.769,10.769,0,0,0,1.421-8.354H51.126A1.673,1.673,0,0,0,52.8,16.038Zm-20.05-11.7h18.38v11.7H35.572L34.1,18.984a.714.714,0,0,1-1.353-.318Zm-8.2,15.038H21.117a5.851,5.851,0,0,1,4.946-4.946v3.429A2.5,2.5,0,0,0,24.546,19.38Zm0,1.671a2.5,2.5,0,0,0,1.517,1.517V26a5.851,5.851,0,0,1-4.946-4.946Zm2.353,0a.835.835,0,1,1,.835-.835A.837.837,0,0,1,26.9,21.05Zm0-8.354A7.519,7.519,0,1,0,29.4,27.289v1.764a9.194,9.194,0,1,1,1.671-17v1.927A7.514,7.514,0,0,0,26.9,12.7ZM2.671,7.683A5.018,5.018,0,0,1,7.683,2.671a3.342,3.342,0,1,1,0,6.683,1.671,1.671,0,0,1,0-3.342V4.342a3.342,3.342,0,0,0,0,6.683A5.018,5.018,0,0,0,12.7,6.013h18.38V10.19a10.832,10.832,0,0,0-12,2.506H7.683A5.018,5.018,0,0,1,2.671,7.683Zm8.577,26.665a2.964,2.964,0,0,1-.636.069,2.931,2.931,0,0,1-2.928-2.928V29.4h5.848a.837.837,0,0,1,.835.835v3.414Zm9.8,16.778H9.455A15.3,15.3,0,0,1,19.044,39.1l.4-.155a2.522,2.522,0,0,0,1.607-2.339V34.417H19.38v2.194a.84.84,0,0,1-.536.779l-.4.155c-.25.1-.492.206-.735.313V34.623L17.8,34.6a2.516,2.516,0,0,0,1.834-1.653l.536-1.609-1.585-.529L18.05,32.42a.839.839,0,0,1-.611.551l-1.4.312V30.24a2.509,2.509,0,0,0-2.506-2.506H7.683V24.392H4.916a.574.574,0,0,1-.574-.574.6.6,0,0,1,.038-.206l3.556-9.245h9.826A10.838,10.838,0,0,0,29.345,30.79l-1.079,1.079a7.469,7.469,0,0,0-2.2,5.317V39.5a5.852,5.852,0,0,0-5.013,5.781v5.849Zm10.025-5.848v5.848H22.721V45.278a4.177,4.177,0,0,1,8.354,0ZM27.734,39.5V37.186A5.806,5.806,0,0,1,29.4,33.1V39.43a1.666,1.666,0,0,0,.126.633,5.783,5.783,0,0,0-1.8-.566ZM29.4,25.106v.381A5.826,5.826,0,0,1,27.734,26V22.567a2.492,2.492,0,0,0,0-4.705V14.434a5.84,5.84,0,0,1,3.342,1.7v2.531A2.38,2.38,0,0,0,32.7,20.913a5.818,5.818,0,0,1-.55,1.857,2.339,2.339,0,0,0-.359-.05A2.388,2.388,0,0,0,29.4,25.106ZM51.126,39.43H31.076V25.106a.714.714,0,0,1,1.352-.319L33.9,27.734H51.126ZM34.549,25.292l-.627-1.253a2.358,2.358,0,0,0-.316-.459,7.466,7.466,0,0,0,.767-2.733,2.356,2.356,0,0,0,1.22-1.114l.4-.8a9.032,9.032,0,0,1-1.444,6.358Z"/><path class="a" d="M44.671,13.683h1.671v1.671h1.671V9.506a2.506,2.506,0,0,0-5.013,0v5.848h1.671Zm.835-5.013a.837.837,0,0,1,.835.835v2.506H44.671V9.506A.837.837,0,0,1,45.506,8.671Z" transform="translate(-6.912 -0.987)"/><path class="a" d="M56.013,12.848a2.5,2.5,0,0,0-.64-1.671A2.5,2.5,0,0,0,53.506,7H51v8.354h2.506A2.509,2.509,0,0,0,56.013,12.848ZM52.671,8.671h.835a.835.835,0,1,1,0,1.671h-.835Zm0,3.342h.835a.835.835,0,1,1,0,1.671h-.835Z" transform="translate(-8.228 -0.987)"/><path class="b" d="M51.683,35H50.013v3.342H46.671V35H45v8.354h6.683Zm-5.013,6.683V40.013h3.342v1.671Z" transform="translate(-7.241 -5.595)"/><path class="a" d="M41,43h1.671v1.671H41Z" transform="translate(-6.583 -6.912)"/><path class="a" d="M41,35h1.671v5.013H41Z" transform="translate(-6.583 -5.595)"/><path class="a" d="M55,43h1.671v1.671H55Z" transform="translate(-8.887 -6.912)"/><path class="a" d="M55,35h1.671v5.013H55Z" transform="translate(-8.887 -5.595)"/><path class="a" d="M12.342,24.671A1.673,1.673,0,0,1,10.671,23H9a3.342,3.342,0,0,0,6.683,0H14.013A1.673,1.673,0,0,1,12.342,24.671Z" transform="translate(-1.317 -3.62)"/><path class="a" d="M31.506,51a2.506,2.506,0,1,0,2.506,2.506A2.509,2.509,0,0,0,31.506,51Zm0,3.342a.835.835,0,1,1,.835-.835A.837.837,0,0,1,31.506,54.342Z" transform="translate(-4.608 -8.228)"/></g></svg>