<svg xmlns="http://www.w3.org/2000/svg" width="84.88" height="21.998" viewBox="0 0 84.88 21.998">
  <g id="upcity_logo" transform="translate(-1 -1)">
    <path id="Path_1970" data-name="Path 1970" d="M10.382,3.024a6.4,6.4,0,0,1,3.851,2.37,6.75,6.75,0,0,1,1.432,4.148,10.869,10.869,0,0,1-1.6,4.469c.321.543.667,1.136,1.062,1.778,1.309-2.271,2.3-4.567,2.3-6.246a8.639,8.639,0,0,0-1.6-5.061,8.247,8.247,0,0,0-3.827-2.963A7.254,7.254,0,0,0,9.221,1,8.386,8.386,0,0,0,1,9.542c0,3.432,4.123,9.382,6.567,12.616a2.05,2.05,0,0,0,3.308,0c.518-.667,1.086-1.457,1.7-2.321-.37-.543-.716-1.086-1.062-1.629-.617.889-1.284,1.8-2,2.765a.376.376,0,0,1-.568,0C5.074,15.863,2.778,11.592,2.778,9.542A6.556,6.556,0,0,1,9.221,2.9,6.177,6.177,0,0,1,10.382,3.024Z" fill="#d37728"/>
    <path id="Path_1971" data-name="Path 1971" d="M39.213,19.838c.593.864,1.185,1.654,1.7,2.321a2.05,2.05,0,0,0,3.308,0c2.42-3.234,6.543-9.209,6.543-12.616A8.386,8.386,0,0,0,42.546,1a7.473,7.473,0,0,0-2.79.518,9.44,9.44,0,0,1,1.629,1.506,5.965,5.965,0,0,1,1.16-.123A6.54,6.54,0,0,1,48.99,9.542c0,2.049-2.3,6.32-6.172,11.431a.376.376,0,0,1-.568,0c-.716-.963-1.383-1.876-2-2.765a46.9,46.9,0,0,1-2.592-4.2,10.971,10.971,0,0,1-1.58-4.469A6.7,6.7,0,0,1,37.51,5.395a5.419,5.419,0,0,0-1.6-.913,8.639,8.639,0,0,0-1.6,5.061c0,1.679.988,3.975,2.3,6.246C37.411,17.2,38.324,18.578,39.213,19.838Z" transform="translate(-25.079)" fill="#d37728"/>
    <path id="Path_1972" data-name="Path 1972" d="M124.576,25.838V32.8c0,3.21-1.7,4.888-4.987,4.888-3.308,0-4.888-1.654-4.888-4.913V25.739a.838.838,0,0,1,.864-.839.867.867,0,0,1,.913.839v6.987c0,2.395.988,3.382,3.111,3.382,2.1,0,3.21-.938,3.21-3.333V25.838a.893.893,0,0,1,.864-.938A.9.9,0,0,1,124.576,25.838Z" transform="translate(-85.629 -17.999)" fill="#394053"/>
    <path id="Path_1973" data-name="Path 1973" d="M171.249,45.446c0,2.938-1.6,4.518-4.469,4.518a5.589,5.589,0,0,1-1.852-.3v2.592a.8.8,0,0,1-.864.815.819.819,0,0,1-.864-.815V41.941a.713.713,0,0,1,.741-.741c.469,0,.691.3.741.741l.049.667a3.071,3.071,0,0,1,2.74-1.407C169.817,41.2,171.249,42.558,171.249,45.446Zm-1.728.1c0-2-.889-2.864-2.345-2.864a2.119,2.119,0,0,0-2.247,2.1H164.9v3.358a4.4,4.4,0,0,0,1.778.4C168.434,48.508,169.52,47.644,169.52,45.545Z" transform="translate(-122.155 -30.275)" fill="#394053"/>
    <path id="Path_1974" data-name="Path 1974" d="M213.971,28.233a.693.693,0,0,1-.741.716.673.673,0,0,1-.765-.543,2.855,2.855,0,0,0-2.963-1.95c-2.42,0-4,1.531-4,4.691,0,3.308,1.7,4.938,4.469,4.938a6.993,6.993,0,0,0,2.716-.568,1.757,1.757,0,0,1,.518-.1.681.681,0,0,1,.691.716.849.849,0,0,1-.494.815,8.361,8.361,0,0,1-3.629.741c-3.753,0-6.073-2.222-6.073-6.419,0-4.123,2.271-6.37,5.753-6.37C212.588,24.9,213.971,26.752,213.971,28.233Z" transform="translate(-152.656 -17.999)" fill="#394053"/>
    <path id="Path_1975" data-name="Path 1975" d="M252.8,27.06a1.1,1.1,0,0,1,1.111-1.16,1.161,1.161,0,0,1,0,2.321A1.1,1.1,0,0,1,252.8,27.06Zm1.926,3.382V37.6a.8.8,0,0,1-.864.815A.819.819,0,0,1,253,37.6v-7.16a.819.819,0,0,1,.864-.815A.834.834,0,0,1,254.726,30.443Z" transform="translate(-189.633 -18.752)" fill="#394053"/>
    <path id="Path_1976" data-name="Path 1976" d="M270.334,35.6v4.592c0,.864.4,1.086.988,1.086.148,0,.3-.025.593-.049a.624.624,0,0,1,.741.667.741.741,0,0,1-.617.765,8.1,8.1,0,0,1-1.136.1c-1.506,0-2.247-.543-2.247-2.444V35.6h-.864a.7.7,0,0,1-.691-.716.681.681,0,0,1,.691-.716h.864V32.515a.819.819,0,0,1,.864-.815.8.8,0,0,1,.839.815v1.654h1.629a.668.668,0,0,1,.691.716.681.681,0,0,1-.691.716Z" transform="translate(-200.403 -23.121)" fill="#394053"/>
    <path id="Path_1977" data-name="Path 1977" d="M301.549,41.741a1.108,1.108,0,0,1-.123.469l-3.654,8.715a2.787,2.787,0,0,1-2.864,1.95c-.3,0-.444-.025-.568-.025a.721.721,0,0,1-.716-.741.655.655,0,0,1,.691-.716c.123,0,.247.025.518.025a1.445,1.445,0,0,0,1.58-.938l.37-.938-3.16-7.308a1.107,1.107,0,0,1-.123-.469.765.765,0,0,1,.815-.765.89.89,0,0,1,.815.568l2.469,5.95,2.37-5.975a.8.8,0,0,1,.815-.518A.709.709,0,0,1,301.549,41.741Z" transform="translate(-220.285 -30.124)" fill="#394053"/>
    <path id="Path_1978" data-name="Path 1978" d="M333.353,40.68a.2.2,0,1,1-.4,0l-.025-1.111-.444.988a.231.231,0,0,1-.2.148.252.252,0,0,1-.2-.123l-.469-1.037L331.6,40.68a.2.2,0,1,1-.4,0l.025-1.259h-.617V40.68a.2.2,0,1,1-.4,0V39.421h-.444a.169.169,0,0,1-.173-.173c0-.1.074-.148.173-.148h1.654a.519.519,0,0,1,.444.247l.4.889.42-.913a.365.365,0,0,1,.321-.222.292.292,0,0,1,.3.321Z" transform="translate(-247.473 -28.694)" fill="#394053"/>
  </g>
</svg>
