<svg xmlns="http://www.w3.org/2000/svg" width="58.834" height="58.834" viewBox="0 0 58.834 58.834"><defs><style>.a{fill:#f74a1e;}</style></defs><path d="M142.072,29.377l-10.456-6.585V5.171A5.177,5.177,0,0,0,126.445,0H99.671A5.177,5.177,0,0,0,94.5,5.171V7.814a.862.862,0,0,0,1.724,0V5.171a3.451,3.451,0,0,1,3.447-3.447h26.774a3.451,3.451,0,0,1,3.447,3.447V21.706L127.81,20.4a.862.862,0,1,0-.919,1.459l3,1.89V36.47l-3,1.89a.862.862,0,1,0,.919,1.459l2.082-1.311V53.663a3.451,3.451,0,0,1-3.447,3.447h-9.25a.862.862,0,1,0,0,1.724h9.25a5.177,5.177,0,0,0,5.171-5.171V37.421l10.456-6.585a.862.862,0,0,0,0-1.459Zm-10.456,6.007V24.829L140,30.106Z" transform="translate(-83.641)"/><path d="M29.532,141.636H16.03a3.451,3.451,0,0,1-3.447-3.447V123.033l2.082,1.311a.862.862,0,0,0,.919-1.459l-3-1.89V108.27l3-1.89a.862.862,0,0,0-.919-1.459l-2.082,1.311V96.362a.862.862,0,1,0-1.724,0v10.956L.4,113.9a.862.862,0,0,0,0,1.459l10.456,6.585v16.242a5.177,5.177,0,0,0,5.171,5.171h13.5a.862.862,0,1,0,0-1.724Zm-27.053-27,8.38-5.277V119.91Z" transform="translate(0 -84.526)"/><path d="M217.607,30h-5.746a.862.862,0,0,0,0,1.724h5.746a.862.862,0,1,0,0-1.724Z" transform="translate(-186.754 -26.553)"/><path d="M286.156,31.36a.862.862,0,1,0,.108-1.087.868.868,0,0,0-.108,1.087Z" transform="translate(-253.147 -26.573)"/><path d="M163.389,149.863a.867.867,0,0,0-.389.72v12.985a.862.862,0,0,0,.4.727l9.825,6.268a.862.862,0,0,0,.923,0l9.94-6.268a.862.862,0,0,0,.4-.729v-2.356a.862.862,0,1,0-1.724,0v1.88l-8.216,5.181V157.326l8.216-5.181v5.045a.862.862,0,0,0,1.724,0v-6.607a.87.87,0,0,0-.4-.729l-9.94-6.268a.862.862,0,0,0-.923,0l-9.825,6.268Zm10.3-4.528,8.321,5.247-8.321,5.247-2.671-1.7a.862.862,0,1,0-.927,1.453l2.733,1.744v10.94l-8.1-5.168v-10.94l1.971,1.257a.862.862,0,0,0,.927-1.453l-2.157-1.376Z" transform="translate(-144.27 -126.968)"/><path d="M159.73,136.607,156.1,138.9a.862.862,0,1,0,.922,1.456l3.625-2.294a.862.862,0,0,0-.922-1.456Z" transform="translate(-137.812 -120.791)"/><path class="a" d="M222.689,98.133l-3.4,2.143a.862.862,0,1,0,.919,1.459l2.944-1.854,2.944,1.854a.862.862,0,0,0,.919-1.459l-3.4-2.143A.862.862,0,0,0,222.689,98.133Z" transform="translate(-193.731 -86.739)"/><path d="M314.617,138.911l-3.6-2.235a.862.862,0,1,0-.91,1.464l3.6,2.235a.862.862,0,0,0,.91-1.464Z" transform="translate(-274.116 -120.855)"/><path d="M313.547,352.686l-3.656,2.244a.862.862,0,1,0,.9,1.469l3.656-2.244a.862.862,0,0,0-.9-1.469Z" transform="translate(-273.917 -312.046)"/><path class="a" d="M226.092,392.481l-2.944,1.854-2.944-1.854a.862.862,0,1,0-.919,1.459l3.4,2.143a.862.862,0,0,0,.919,0l3.4-2.143a.862.862,0,1,0-.919-1.459Z" transform="translate(-193.731 -347.264)"/><path d="M156.05,354.248l3.637,2.275a.862.862,0,0,0,.914-1.461l-3.637-2.275a.862.862,0,1,0-.914,1.461Z" transform="translate(-137.76 -312.132)"/></svg>