<svg id="clutch_logo" xmlns="http://www.w3.org/2000/svg" width="77.318" height="22" viewBox="0 0 77.318 22">
  <path id="Path_1967" data-name="Path 1967" d="M22.861,0h3.518V22H22.861ZM38.69,14.982a3.409,3.409,0,0,1-3.671,3.635c-2.1,0-2.485-1.969-2.485-3.157V7.04H29.017v8.4a6.857,6.857,0,0,0,1.8,4.954,5.871,5.871,0,0,0,4.175,1.569,6.036,6.036,0,0,0,3.7-1.167V22h3.518V7.04H38.69ZM49.243,1.76H45.725V7.04H43.087v3.52h2.638V22h3.518V10.56h2.638V7.04H49.243ZM62.959,17.527A4.27,4.27,0,0,1,60.072,18.6a4.124,4.124,0,0,1-4.243-4.266,4.031,4.031,0,0,1,4.243-4.191,4.377,4.377,0,0,1,2.906,1.052l.534.459L65.884,9.28l-.594-.536a7.758,7.758,0,0,0-5.219-1.969,7.319,7.319,0,0,0-7.59,7.537,7.453,7.453,0,0,0,7.59,7.632,7.676,7.676,0,0,0,5.258-1.989l.573-.536L63.494,17.05Zm15.48-9.183a5.472,5.472,0,0,0-7.211-.4V0H67.711V22h3.518V13.759c0-3.367,2.39-3.634,3.232-3.634,2.1,0,2.045,1.97,2.045,3.157V22h3.518V13.3a6.765,6.765,0,0,0-1.583-4.955" transform="translate(-2.705)" fill="#17313b"/>
  <path id="Path_1968" data-name="Path 1968" d="M64.7,13.438a2.55,2.55,0,1,1-2.55,2.55,2.55,2.55,0,0,1,2.55-2.55" transform="translate(-7.466 -1.619)" fill="#ff3d2e"/>
  <path id="Path_1969" data-name="Path 1969" d="M15.219,16.558a7.049,7.049,0,0,1-5.079,2.123c-3.929,0-6.786-3.08-6.786-7.307,0-4.247,2.857-7.326,6.786-7.326a7.129,7.129,0,0,1,5.061,2.1l.536.536,2.358-2.353L17.577,3.8A10.274,10.274,0,0,0,10.14.7C4.351.7,0,5.291,0,11.392c0,6.083,4.371,10.655,10.14,10.655A10.3,10.3,0,0,0,17.6,18.93l.518-.536L15.775,16l-.556.554Z" transform="translate(0 -0.083)" fill="#17313b"/>
</svg>
