<svg xmlns="http://www.w3.org/2000/svg" xmlns:xlink="http://www.w3.org/1999/xlink" width="141.218" height="31.716" viewBox="0 0 141.218 31.716">
  <defs>
    <linearGradient id="linear-gradient" x1="-0.106" y1="-1.102" x2="4.495" y2="-1.102" gradientUnits="objectBoundingBox">
      <stop offset="0.73" stop-color="#2af4ff"/>
      <stop offset="0.884" stop-color="#2af4ff"/>
    </linearGradient>
    <linearGradient id="linear-gradient-2" x1="-1.293" y1="-1.077" x2="3.333" y2="-1.077" xlink:href="#linear-gradient"/>
    <linearGradient id="linear-gradient-3" x1="-2.713" y1="-1.062" x2="2.359" y2="-1.062" xlink:href="#linear-gradient"/>
    <linearGradient id="linear-gradient-4" x1="-3.708" y1="-1.102" x2="1.049" y2="-1.102" xlink:href="#linear-gradient"/>
    <linearGradient id="linear-gradient-5" x1="4.895" y1="1.002" x2="0.027" y2="0.473" xlink:href="#linear-gradient"/>
  </defs>
  <g id="designrush_logo" transform="translate(0 -0.1)">
    <g id="Group_4507" data-name="Group 4507" transform="translate(24.771 12.949)">
      <path id="Path_2032" data-name="Path 2032" d="M42.8,22.7h4.746c3.82,0,6.482,2.6,6.482,5.961v.058c0,3.357-2.6,5.961-6.482,5.961H42.8V22.7m4.746,9.55a3.4,3.4,0,0,0,3.646-3.53v-.058a3.449,3.449,0,0,0-3.646-3.588H45.52V32.25h2.026" transform="translate(-42.8 -22.468)"/>
      <path id="Path_2033" data-name="Path 2033" d="M66.2,22.7h9.2v2.315H68.92v2.431h5.73v2.315H68.92V32.25h6.6v2.315h-9.26L66.2,22.7" transform="translate(-52.657 -22.468)"/>
      <path id="Path_2034" data-name="Path 2034" d="M84.9,32.76l1.621-1.852a5.785,5.785,0,0,0,3.646,1.447c1.1,0,1.736-.463,1.736-1.1V31.2c0-.695-.463-1.042-2.431-1.5-2.431-.637-4.051-1.273-4.051-3.646v-.058c0-2.141,1.736-3.588,4.283-3.588a7.074,7.074,0,0,1,4.514,1.5L92.829,25.93a5.524,5.524,0,0,0-3.183-1.158c-1.042,0-1.563.463-1.563,1.042v-.058c0,.752.521,1.042,2.6,1.563,2.489.637,3.82,1.5,3.82,3.53v.058c0,2.373-1.852,3.7-4.456,3.7A8.038,8.038,0,0,1,84.9,32.76" transform="translate(-60.534 -22.342)"/>
      <path id="Path_2035" data-name="Path 2035" d="M105.7,22.7h2.662V34.622H105.7V22.7" transform="translate(-69.296 -22.468)"/>
      <path id="Path_2036" data-name="Path 2036" d="M114.7,28.493a6.168,6.168,0,0,1,6.366-6.193,6.5,6.5,0,0,1,4.746,1.678L124.134,26a4.512,4.512,0,0,0-3.183-1.215,3.574,3.574,0,0,0-3.473,3.7v.058a3.618,3.618,0,0,0,3.7,3.82,4.146,4.146,0,0,0,2.547-.752V29.94h-2.72V27.682h5.267v5.151a8,8,0,0,1-5.209,1.91c-3.82-.174-6.366-2.72-6.366-6.251" transform="translate(-73.087 -22.3)"/>
      <path id="Path_2037" data-name="Path 2037" d="M139.1,22.7h2.489l5.672,7.292V22.7h2.6V34.622h-2.257l-5.9-7.582v7.582h-2.6Z" transform="translate(-83.365 -22.468)"/>
    </g>
    <g id="Group_4508" data-name="Group 4508" transform="translate(94.107 13.006)">
      <path id="Path_2038" data-name="Path 2038" d="M162.716,22.7h5.556a5,5,0,0,1,3.53,1.215,3.71,3.71,0,0,1,1.042,2.72v.058a3.724,3.724,0,0,1-2.6,3.7l2.952,4.225h-3.125l-2.6-3.82H165.32v3.82H162.6V22.7h.116m5.382,5.73c1.331,0,2.026-.695,2.026-1.678v-.058c0-1.1-.752-1.678-2.084-1.678h-2.662V28.43h2.72" transform="translate(-162.6 -22.526)" fill="url(#linear-gradient)"/>
      <path id="Path_2039" data-name="Path 2039" d="M184.2,29.387V22.558h2.662v6.714c0,1.968.984,2.894,2.6,2.894s2.6-.984,2.6-2.894V22.5h2.662v6.714c0,3.588-2.084,5.382-5.325,5.382S184.2,32.86,184.2,29.387" transform="translate(-171.699 -22.442)" fill="url(#linear-gradient-2)"/>
      <path id="Path_2040" data-name="Path 2040" d="M205.7,32.76l1.621-1.852a5.785,5.785,0,0,0,3.646,1.447c1.1,0,1.736-.463,1.736-1.1V31.2c0-.695-.463-1.042-2.431-1.5-2.431-.637-4.051-1.273-4.051-3.646v-.058c0-2.141,1.736-3.588,4.283-3.588a7.074,7.074,0,0,1,4.514,1.5l-1.389,2.026a5.524,5.524,0,0,0-3.183-1.158c-1.042,0-1.563.463-1.563,1.042v-.058c0,.752.521,1.042,2.6,1.563,2.489.637,3.82,1.5,3.82,3.53v.058c0,2.373-1.852,3.7-4.456,3.7A8.154,8.154,0,0,1,205.7,32.76" transform="translate(-180.755 -22.4)" fill="url(#linear-gradient-3)"/>
      <path id="Path_2041" data-name="Path 2041" d="M226.3,22.7h2.662v4.746h4.919V22.7h2.662V34.622h-2.662V29.877h-4.919v4.746H226.3V22.7" transform="translate(-189.433 -22.526)" fill="url(#linear-gradient-4)"/>
    </g>
    <path id="Path_2042" data-name="Path 2042" d="M9.492,29.414c-.058,0-.058-.058,0,0L9.2,29.24l-.058-.058L2.315,24.321a.057.057,0,0,1-.058-.058l-.116-.116-.058-.058H1.968L0,22.7l3.878.579a1.073,1.073,0,0,1,.405.116.583.583,0,0,1,.174.058,1.927,1.927,0,0,1,.347.174c.116.058.174.116.289.174.058.058.174.116.174.174.058.058.116.058.174.116q.174.087.174.174a3.492,3.492,0,0,0,.463.463l3.067,4.341.058.058.289.289" transform="translate(0 -9.52)" fill="#2ad2ff"/>
    <path id="Path_2043" data-name="Path 2043" d="M9.534,36.127l-.289-.463-.058-.058L.1,22.7l1.968,1.389.347.232,6.829,4.862H9.3l.232.174a.057.057,0,0,1,.058.058l.289-.232,9.2-6.482L9.823,35.664l-.058.058-.232.405" transform="translate(-0.042 -9.52)" fill="url(#linear-gradient-5)"/>
    <g id="Group_4509" data-name="Group 4509" transform="translate(6.887 13.122)">
      <path id="Path_2044" data-name="Path 2044" d="M14.5,27.8l-.289-.463-.058-.058L11.9,24.158l2.257.463h.058l.289.058.289-.058,2.2-.521-2.2,3.241V27.4L14.5,27.8" transform="translate(-11.9 -23.232)" fill="#2ad2ff"/>
      <path id="Path_2045" data-name="Path 2045" d="M26.007,22.6l-2.894.405-1.1.174a3.176,3.176,0,0,0-2.2,1.331l-3.067,4.4-.058.058-.289.405.347-.347.058-.058-.405.405,7.813-5.556L26.007,22.6" transform="translate(-13.796 -22.6)" fill="#2ad2ff"/>
    </g>
    <g id="Group_4510" data-name="Group 4510" transform="translate(5.267 0.1)">
      <path id="Path_2046" data-name="Path 2046" d="M14.772,3.978c0,2.547-4.4,3.878-4.4,6.6a3.473,3.473,0,0,0,.405,1.852A5.64,5.64,0,0,1,9.1,9.071c0-1.736,1.621-4.341,1.621-4.341,0,1.158.463,1.5.926,1.563H11.7c.521,0,.81-.405.81-.984s-.637-1.158-.637-2.315c0-1.1,1.389-2.894,1.389-2.894a5.945,5.945,0,0,1,1.5,3.878" transform="translate(-9.1 -0.1)" fill="#2af4ff"/>
      <path id="Path_2047" data-name="Path 2047" d="M15.031,15.723A2.409,2.409,0,0,1,12.6,13.292v-.058c0-2.952,4.109-3.241,4.109-7.235a6.366,6.366,0,0,1,1.215,3.3c0,2.026-1.91,2.547-1.91,3.53,0,.405.174.695.752.695a.213.213,0,0,0,.174-.058,3.107,3.107,0,0,0,1.91-2.72c0,.058.579,4.977-3.82,4.977" transform="translate(-10.574 -2.585)" fill="#2af4ff"/>
    </g>
    <g id="Group_4511" data-name="Group 4511" transform="translate(0.752 0.1)">
      <path id="Path_2048" data-name="Path 2048" d="M18.047,13.524a.213.213,0,0,0,.174-.058c-.579.174-2.72.695-2.72-.81,0-1.852,3.183-2.257,3.183-3.82A5.482,5.482,0,0,0,17.931,6a6.366,6.366,0,0,1,1.215,3.3c0,2.026-1.91,2.547-1.91,3.53a.736.736,0,0,0,.81.695" transform="translate(-7.282 -2.585)" fill="#2ad2ff"/>
      <path id="Path_2049" data-name="Path 2049" d="M15.468,5.019c0,1.447-1.852,1.331-1.968,1.273h.174c.521,0,.81-.405.81-.984s-.637-1.158-.637-2.315c0-1.1,1.389-2.894,1.389-2.894a5.191,5.191,0,0,0-.752,2.373c0,1.331.984,1.447.984,2.547" transform="translate(-6.439 -0.1)" fill="#2ad2ff"/>
      <path id="Path_2050" data-name="Path 2050" d="M13.973,50.531,12.7,49.663h1.563l.521-1.563.463,1.563h1.563l-1.273.868.463,1.5-1.273-.926-1.331.926.579-1.5" transform="translate(-6.102 -20.319)" fill="#2ad2ff"/>
      <path id="Path_2051" data-name="Path 2051" d="M25.473,50.531,24.2,49.663h1.563l.521-1.563.463,1.563h1.563l-1.273.868.463,1.5-1.273-.926-1.331.926.579-1.5" transform="translate(-10.946 -20.319)" fill="#2ad2ff"/>
      <path id="Path_2052" data-name="Path 2052" d="M2.573,50.531,1.3,49.663H2.863L3.384,48.1l.463,1.563H5.409l-1.273.868.463,1.5L3.326,51.11l-1.273.926.521-1.5" transform="translate(-1.3 -20.319)" fill="#2ad2ff"/>
    </g>
  </g>
</svg>
