<svg xmlns="http://www.w3.org/2000/svg" xmlns:xlink="http://www.w3.org/1999/xlink" width="134.385" height="134.079" viewBox="0 0 134.385 134.079">
  <defs>
    <radialGradient id="radial-gradient" cx="0.5" cy="0.5" r="0.5" gradientUnits="objectBoundingBox">
      <stop offset="0.183" stop-color="#999"/>
      <stop offset="0.282" stop-color="#acacac"/>
      <stop offset="0.49" stop-color="#d0d0d0"/>
      <stop offset="0.685" stop-color="#e9e9e9"/>
      <stop offset="0.861" stop-color="#f9f9f9"/>
      <stop offset="1" stop-color="#fff"/>
    </radialGradient>
  </defs>
  <g id="Group_77319" data-name="Group 77319" transform="translate(-50.034 -60.466)">
    <g id="Group_77318" data-name="Group 77318" transform="translate(50.033 60.466)">
      <path id="Path_129864" data-name="Path 129864" d="M124.546,174.487a67.039,67.039,0,1,1,67.039-67.039A67.116,67.116,0,0,1,124.546,174.487Zm0-132.613a65.574,65.574,0,1,0,65.574,65.574A65.648,65.648,0,0,0,124.546,41.874Z" transform="translate(-57.506 -40.408)" fill="#44bbf2"/>
      <g id="Group_77289" data-name="Group 77289" transform="translate(0.006 1.762)">
        <ellipse id="Ellipse_1323" data-name="Ellipse 1323" cx="67.19" cy="55.229" rx="67.19" ry="55.229" transform="translate(0 18.023)" opacity="0.75" fill="url(#radial-gradient)" style="mix-blend-mode: multiply;isolation: isolate"/>
        <circle id="Ellipse_1324" data-name="Ellipse 1324" cx="50.967" cy="50.967" r="50.967" transform="translate(15.892 13.273)" fill="#fff"/>
        <circle id="Ellipse_1325" data-name="Ellipse 1325" cx="49.35" cy="49.35" r="49.35" transform="matrix(0.927, -0.374, 0.374, 0.927, 2.62, 36.961)" fill="#d6f2ff"/>
        <g id="planning" transform="translate(37.854 35.346)">
          <path id="Path_7151" data-name="Path 7151" d="M43.633,367.985c-.568.309-1.143.628-1.726.951-4.932,2.734-10.521,5.833-15.893,5.354l-19.025-1.7q-.037,0-.075,0H1.677v-9.415H6.914a.839.839,0,0,0,.542-.2,22.715,22.715,0,0,1,3.8-2.457.839.839,0,1,0-.773-1.488,25.219,25.219,0,0,0-3.86,2.466H.839a.839.839,0,0,0-.839.839v11.092a.839.839,0,0,0,.839.839H6.877l18.988,1.7q.643.057,1.285.057c5.445,0,10.8-2.971,15.571-5.614.579-.321,1.151-.638,1.715-.946a.839.839,0,0,0-.8-1.473Z" transform="translate(0 -318.878)" fill="#242a39"/>
          <path id="Path_7152" data-name="Path 7152" d="M160.855,302.936a3.188,3.188,0,0,0-3.786-1.029,2.9,2.9,0,0,0-4.242-2.384l-1.995,1.051a2.873,2.873,0,0,0-4.238-2.376l-1.491.808a2.965,2.965,0,0,0-4.337-2.491L130,302.16a18.422,18.422,0,0,0-9.576-.882,17.873,17.873,0,0,0-2.381.623.839.839,0,1,0,.532,1.591,16.18,16.18,0,0,1,2.157-.564,16.849,16.849,0,0,1,8.97.922.839.839,0,0,0,.344.074h11.2a1.448,1.448,0,0,1,.181,2.884l-14.2,1.8a.839.839,0,0,0,.005,1.664l6.03.727a27.562,27.562,0,0,0,16.792-3.3l7.535-4.189a1.518,1.518,0,0,1,1.92.435,1.542,1.542,0,0,1-.488,2.268l-8.085,4.406a.839.839,0,0,0,.8,1.473l8.085-4.406a3.21,3.21,0,0,0,1.025-4.751ZM141.545,298a1.278,1.278,0,0,1,1.633.378,1.3,1.3,0,0,1-.423,1.9l-3.625,1.965h-5.677Zm.763,4.43,5.085-2.757a1.2,1.2,0,0,1,1.594.434,1.209,1.209,0,0,1-.467,1.687l-4.411,2.325A3.138,3.138,0,0,0,142.308,302.43Zm6.937,3.8a25.88,25.88,0,0,1-15.026,3.175l7.423-.94a3.13,3.13,0,0,0,2.683-2.57l9.283-4.893a1.224,1.224,0,0,1,1.16,2.156Z" transform="translate(-104.363 -263.119)" fill="#242a39"/>
          <path id="Path_7153" data-name="Path 7153" d="M124.741,103.683a6.257,6.257,0,0,0,2.708-.609.839.839,0,0,0-.72-1.515,4.592,4.592,0,0,1-1.988.446,4.632,4.632,0,1,1,4.061-2.4.839.839,0,1,0,1.468.81,6.313,6.313,0,1,0-5.53,3.266Z" transform="translate(-105.212 -80.896)" fill="#242a39"/>
          <path id="Path_7154" data-name="Path 7154" d="M46.357,18.968l1.738.261a11.533,11.533,0,0,0,1.379,3.328L48.43,23.972a1.656,1.656,0,0,0,.162,2.168l1.2,1.2a1.656,1.656,0,0,0,2.168.162l1.414-1.045A11.532,11.532,0,0,0,56.7,27.832l.261,1.738a1.656,1.656,0,0,0,1.647,1.418H60.3a1.656,1.656,0,0,0,1.647-1.418l.261-1.738a11.532,11.532,0,0,0,3.328-1.379L66.95,27.5a1.656,1.656,0,0,0,2.168-.162l1.2-1.2a1.656,1.656,0,0,0,.162-2.168l-1.045-1.414a11.529,11.529,0,0,0,1.379-3.328l1.738-.261a1.656,1.656,0,0,0,1.418-1.647v-.008h4.977V28A1.958,1.958,0,0,0,80.9,29.959h3.583a3.83,3.83,0,1,0,0-1.677H80.9A.279.279,0,0,1,80.621,28V17.313h3.861a3.83,3.83,0,1,0,0-1.677H80.621V4.947a.279.279,0,0,1,.278-.278h3.583a3.83,3.83,0,1,0,0-1.677H80.9a1.958,1.958,0,0,0-1.956,1.956V15.636H73.967v-.007a1.656,1.656,0,0,0-1.418-1.647l-1.738-.261a11.532,11.532,0,0,0-1.379-3.328l1.045-1.414a1.656,1.656,0,0,0-.162-2.168l-1.2-1.2a1.656,1.656,0,0,0-2.168-.162L65.535,6.5a11.531,11.531,0,0,0-3.328-1.379l-.261-1.738A1.656,1.656,0,0,0,60.3,1.961H58.607A1.656,1.656,0,0,0,56.96,3.379L56.7,5.117A11.534,11.534,0,0,0,53.37,6.5L51.956,5.451a1.656,1.656,0,0,0-2.168.162l-1.2,1.2a1.656,1.656,0,0,0-.162,2.168l1.045,1.414A11.53,11.53,0,0,0,48.1,13.72l-1.738.261a1.656,1.656,0,0,0-1.418,1.647v1.692a1.656,1.656,0,0,0,1.418,1.648Zm41.861,8a2.152,2.152,0,1,1-2.152,2.152A2.155,2.155,0,0,1,88.219,26.967Zm0-12.645a2.152,2.152,0,1,1-2.152,2.152A2.155,2.155,0,0,1,88.219,14.322Zm0-12.645A2.152,2.152,0,1,1,86.066,3.83,2.155,2.155,0,0,1,88.219,1.677Zm-41.6,13.961,2.3-.346a.838.838,0,0,0,.7-.675,9.9,9.9,0,0,1,1.568-3.784.839.839,0,0,0-.018-.972L49.785,7.989l1.183-1.183L52.84,8.19a.839.839,0,0,0,.972.018A9.9,9.9,0,0,1,57.6,6.64a.839.839,0,0,0,.675-.7l.346-2.3h1.672l.346,2.3a.839.839,0,0,0,.675.7,9.9,9.9,0,0,1,3.784,1.568.839.839,0,0,0,.972-.018l1.873-1.384,1.183,1.183L67.738,9.862a.839.839,0,0,0-.018.972,9.9,9.9,0,0,1,1.568,3.784.839.839,0,0,0,.7.675l2.3.346v1.672l-2.3.346a.839.839,0,0,0-.7.675,9.9,9.9,0,0,1-1.568,3.784.839.839,0,0,0,.018.972l1.384,1.873-1.183,1.183L66.065,24.76a.839.839,0,0,0-.972-.018A9.9,9.9,0,0,1,61.31,26.31a.839.839,0,0,0-.675.7l-.346,2.3H58.617l-.346-2.3a.839.839,0,0,0-.675-.7,9.9,9.9,0,0,1-3.784-1.568.839.839,0,0,0-.972.018l-1.873,1.384L49.785,24.96l1.384-1.873a.839.839,0,0,0,.018-.972,9.894,9.894,0,0,1-1.568-3.784.839.839,0,0,0-.7-.675l-2.3-.346Z" transform="translate(-39.924 0)" fill="#242a39"/>
        </g>
      </g>
    </g>
  </g>
</svg>
